<?xml version="1.0" encoding="utf-8"?>
<!-- Generator: Adobe Illustrator 23.1.1, SVG Export Plug-In . SVG Version: 6.00 Build 0)  -->
<svg
  version="1.1"
  id="Layer_1"
  xmlns="http://www.w3.org/2000/svg"
  xmlns:xlink="http://www.w3.org/1999/xlink"
  x="0px"
  y="0px"
  viewBox="0 0 726.8 185.6"
  style="enable-background:new 0 0 726.8 185.6;"
  xml:space="preserve"
>
  <style type="text/css">
    .st0 {
      fill: #00a297;
    }
    .st1 {
      fill: #1d1d1b;
    }
  </style>
  <title>Agency-digital-logo</title>
  <rect y="0" class="st0" width="4.2" height="175.3" />
  <path
    class="st1"
    d="M31.4,87.9l11.2,29.7l11.2-29.7h6.4v35.3h-4.5V93.9h-0.2l-11,29.4h-4l-11-29.4h-0.1v29.4h-4.5V87.9H31.4z"
  />
  <path
    class="st1"
    d="M84.2,121.6c-2.1,1.5-4.6,2.3-7.2,2.2c-1.8,0-3.6-0.3-5.3-1c-1.5-0.6-2.8-1.6-3.8-2.8c-1.1-1.2-1.8-2.7-2.3-4.3
	c-0.5-1.8-0.8-3.6-0.9-5.4c0-1.8,0.3-3.6,0.9-5.3c0.6-1.5,1.4-3,2.5-4.2c1.1-1.2,2.4-2.1,3.8-2.8c1.5-0.7,3.2-1,4.8-1
	c2-0.1,4,0.4,5.7,1.4c1.5,0.9,2.7,2.1,3.6,3.6c0.9,1.5,1.5,3.1,1.9,4.7c0.3,1.6,0.5,3.3,0.4,4.9H69.2c0,1.1,0.1,2.2,0.4,3.2
	c0.3,1,0.8,1.9,1.4,2.7c0.7,0.8,1.6,1.4,2.5,1.9c1.1,0.5,2.4,0.7,3.6,0.7c1.6,0.1,3.1-0.4,4.4-1.2c1.2-0.9,2-2.3,2.2-3.8H88
	C87.6,117.7,86.3,120,84.2,121.6z M83.2,105.2c-0.4-0.9-0.9-1.6-1.5-2.3c-1.4-1.4-3.2-2.1-5.2-2.1c-1,0-2,0.2-2.9,0.6
	c-0.9,0.4-1.6,0.9-2.3,1.6c-0.6,0.7-1.1,1.4-1.5,2.3c-0.4,0.9-0.6,1.8-0.6,2.8h14.7C83.9,107,83.6,106.1,83.2,105.2L83.2,105.2z"
  />
  <path
    class="st1"
    d="M110.7,123.3v-3.5h-0.1c-0.7,1.4-1.8,2.5-3.3,3.1c-1.6,0.6-3.2,1-4.9,0.9c-1.8,0-3.6-0.3-5.2-1.1
	c-1.4-0.7-2.7-1.7-3.7-2.9c-1-1.3-1.7-2.7-2.2-4.2c-0.5-1.7-0.8-3.4-0.8-5.1c0-1.7,0.2-3.5,0.7-5.1c0.4-1.5,1.2-3,2.2-4.2
	c1-1.2,2.2-2.2,3.7-2.9c1.6-0.7,3.4-1.1,5.1-1.1c0.7,0,1.4,0.1,2.1,0.2c0.8,0.1,1.5,0.4,2.3,0.7c0.8,0.3,1.5,0.7,2.1,1.2
	c0.7,0.5,1.3,1.2,1.7,1.9h0.1V87.9h4.2v35.3L110.7,123.3z M95.5,114.2c0.3,1.1,0.8,2.1,1.4,3c0.6,0.9,1.5,1.6,2.5,2.1
	c1.1,0.5,2.3,0.8,3.5,0.8c1.3,0,2.5-0.3,3.6-0.8c1-0.5,1.8-1.3,2.4-2.2c0.6-0.9,1.1-2,1.4-3.1c0.3-1.1,0.4-2.3,0.4-3.5
	c0-1.2-0.1-2.5-0.4-3.6c-0.3-1.1-0.8-2.2-1.4-3.1c-0.7-0.9-1.5-1.6-2.5-2.1c-1.2-0.6-2.4-0.9-3.7-0.8c-1.3,0-2.5,0.3-3.6,0.8
	c-1,0.5-1.8,1.3-2.4,2.2c-0.6,1-1.1,2-1.3,3.2c-0.3,1.2-0.4,2.4-0.4,3.7C95.1,111.8,95.2,113,95.5,114.2z"
  />
  <path
    class="st1"
    d="M120.2,93.1v-5.1h4.2v5.1H120.2z M124.4,97.7v25.6h-4.2V97.7H124.4z"
  />
  <path
    class="st1"
    d="M145.2,102.1c-1.2-0.9-2.7-1.4-4.3-1.3c-1.3,0-2.6,0.2-3.8,0.8c-1,0.5-1.8,1.3-2.4,2.2c-0.6,1-1.1,2.1-1.3,3.2
	c-0.3,1.2-0.4,2.5-0.4,3.7c0,1.2,0.1,2.3,0.4,3.5c0.3,1.1,0.7,2.1,1.3,3c0.6,0.9,1.4,1.6,2.3,2.1c1.1,0.5,2.2,0.8,3.4,0.8
	c1.8,0.1,3.5-0.5,4.9-1.6c1.2-1.2,2-2.9,2.1-4.6h4.3c-0.3,2.8-1.5,5.4-3.5,7.3c-2.2,1.8-4.9,2.7-7.7,2.6c-1.8,0-3.5-0.3-5.2-0.9
	c-1.4-0.6-2.7-1.5-3.8-2.7c-1-1.2-1.8-2.6-2.3-4.1c-0.5-1.7-0.8-3.5-0.8-5.3c0-1.8,0.2-3.6,0.7-5.4c0.5-1.6,1.2-3.1,2.2-4.3
	c1-1.3,2.3-2.2,3.8-2.9c1.7-0.7,3.5-1.1,5.3-1.1c1.4,0,2.7,0.2,4.1,0.5c1.2,0.3,2.4,0.9,3.4,1.6c1,0.7,1.8,1.7,2.4,2.7
	c0.7,1.2,1.1,2.6,1.2,3.9h-4.4C147.1,104.4,146.3,103.1,145.2,102.1z"
  />
  <path
    class="st1"
    d="M155.6,93.1v-5.1h4.2v5.1H155.6z M159.8,97.7v25.6h-4.2V97.7H159.8z"
  />
  <path
    class="st1"
    d="M169,97.7v4.1h0.1c1.6-3,4.9-4.9,8.3-4.6c1.4,0,2.9,0.2,4.2,0.7c1,0.4,2,1.1,2.7,1.9c0.7,0.9,1.2,1.9,1.5,2.9
	c0.3,1.2,0.4,2.5,0.4,3.8v16.8h-4.2v-17.3c0.1-1.4-0.4-2.7-1.4-3.8c-1-1-2.4-1.5-3.8-1.4c-1.1,0-2.3,0.2-3.3,0.6
	c-0.9,0.4-1.7,0.9-2.3,1.7c-0.6,0.8-1.1,1.6-1.4,2.5c-0.3,1-0.5,2.1-0.5,3.2v14.5h-4.2V97.7L169,97.7z"
  />
  <path
    class="st1"
    d="M209.5,121.6c-2.1,1.5-4.6,2.3-7.2,2.2c-1.8,0-3.6-0.3-5.3-1c-1.5-0.6-2.7-1.6-3.8-2.8
	c-1.1-1.2-1.8-2.7-2.3-4.3c-0.5-1.7-0.8-3.6-0.9-5.4c0-1.8,0.3-3.6,0.9-5.3c0.6-1.6,1.4-3,2.5-4.2c1.1-1.2,2.4-2.1,3.8-2.8
	c1.5-0.7,3.2-1,4.8-1c2-0.1,3.9,0.4,5.7,1.4c1.5,0.9,2.7,2.1,3.6,3.6c0.9,1.5,1.5,3.1,1.9,4.7c0.3,1.6,0.5,3.3,0.4,4.9h-19.2
	c0,1.1,0.1,2.2,0.4,3.2c0.3,1,0.8,1.9,1.4,2.7c0.7,0.8,1.6,1.4,2.5,1.9c1.1,0.5,2.4,0.7,3.6,0.7c1.6,0.1,3.1-0.4,4.4-1.2
	c1.2-0.9,2-2.3,2.2-3.8h4.2C212.9,117.7,211.6,120,209.5,121.6z M208.5,105.2c-0.4-0.9-0.9-1.6-1.5-2.3c-1.4-1.4-3.2-2.1-5.2-2.1
	c-1,0-2,0.2-2.9,0.6c-0.8,0.4-1.6,0.9-2.2,1.6c-0.6,0.7-1.1,1.4-1.5,2.3c-0.4,0.9-0.6,1.8-0.6,2.8h14.7
	C209.1,107,208.9,106.1,208.5,105.2L208.5,105.2z"
  />
  <path
    class="st1"
    d="M220.5,117.5c0.4,0.6,0.9,1.2,1.6,1.5c0.7,0.4,1.4,0.7,2.2,0.8c0.8,0.2,1.7,0.3,2.5,0.2c0.7,0,1.4-0.1,2.1-0.1
	c0.7-0.1,1.4-0.3,2-0.5c0.6-0.3,1.1-0.7,1.5-1.2c0.4-0.6,0.6-1.3,0.6-1.9c0.1-1-0.4-1.9-1.2-2.5c-1-0.6-2-1.1-3.1-1.4
	c-1.2-0.3-2.6-0.7-4-0.9c-1.4-0.3-2.7-0.7-4-1.2c-1.2-0.5-2.2-1.2-3.1-2.1c-0.9-1.1-1.3-2.5-1.2-3.9c0-1.2,0.3-2.3,0.9-3.3
	c0.6-0.9,1.3-1.7,2.2-2.2c0.9-0.6,2-1,3.1-1.3c1.1-0.3,2.2-0.4,3.4-0.4c1.3,0,2.7,0.1,4,0.4c1.2,0.2,2.3,0.7,3.2,1.3
	c0.9,0.6,1.7,1.5,2.2,2.5c0.6,1.2,0.9,2.5,1,3.9h-4.2c0-1.4-0.8-2.7-2-3.4c-0.6-0.3-1.2-0.6-1.8-0.7c-0.7-0.2-1.4-0.2-2.1-0.2
	c-0.6,0-1.3,0.1-1.9,0.1c-0.6,0.1-1.2,0.3-1.8,0.5c-0.5,0.2-0.9,0.6-1.3,1c-0.3,0.5-0.5,1-0.5,1.6c0,0.7,0.3,1.3,0.8,1.8
	c0.6,0.5,1.3,0.9,2,1.2c0.9,0.3,1.8,0.6,2.7,0.8c1,0.2,2,0.4,3,0.7c1,0.2,2.1,0.5,3.1,0.8c0.9,0.3,1.8,0.7,2.7,1.3
	c0.8,0.5,1.4,1.2,1.9,2c0.5,0.9,0.8,2,0.7,3.1c0,1.4-0.3,2.7-1,3.9c-0.6,1-1.5,1.9-2.5,2.5c-1.1,0.6-2.3,1.1-3.5,1.3
	c-1.3,0.2-2.6,0.4-3.9,0.4c-1.4,0-2.7-0.1-4.1-0.4c-1.2-0.3-2.4-0.8-3.4-1.5c-1-0.7-1.8-1.6-2.4-2.7c-0.6-1.2-1-2.6-1-4h4.2
	C220,116,220.2,116.8,220.5,117.5z"
  />
  <path
    class="st1"
    d="M270,122.6c-1.8,0.8-3.7,1.2-5.7,1.2c-2,0.1-3.9-0.3-5.7-1.1c-1.3-0.6-2.5-1.5-3.4-2.6c-0.7-0.9-1.3-2-1.6-3.2
	c-0.2-0.9-0.3-1.8-0.4-2.7c0-1.3,0.2-2.5,0.7-3.7c0.4-1,1-2,1.8-2.8c0.8-0.9,1.7-1.6,2.6-2.3c1-0.7,2.1-1.3,3.2-1.9
	c-0.5-0.7-1-1.4-1.4-2c-0.4-0.6-0.9-1.3-1.3-1.9c-0.4-0.6-0.7-1.3-0.9-2c-0.2-0.8-0.3-1.6-0.3-2.4c0-0.9,0.2-1.9,0.5-2.7
	c0.3-0.9,0.9-1.7,1.5-2.3c0.7-0.7,1.6-1.3,2.5-1.6c1.1-0.4,2.2-0.6,3.4-0.6c1.1,0,2.2,0.2,3.2,0.4c1,0.3,1.9,0.7,2.7,1.4
	c0.8,0.6,1.4,1.4,1.9,2.3c0.5,1,0.7,2,0.7,3.1c0,1-0.2,2-0.5,2.9c-0.4,0.9-0.9,1.7-1.5,2.5c-0.6,0.8-1.3,1.4-2.1,2
	c-0.8,0.6-1.6,1.2-2.5,1.7l6.4,7.8c0.6-1.8,1-3.6,1.1-5.5h4c-0.1,1-0.2,1.9-0.3,2.7c-0.1,0.7-0.3,1.4-0.5,2.1
	c-0.2,0.6-0.4,1.2-0.7,1.8c-0.3,0.6-0.6,1.3-0.9,2.1l6.9,8h-5.5l-3.8-4.4C273.3,120.5,271.8,121.8,270,122.6z M261.5,107.6
	c-0.7,0.5-1.4,1-2,1.7c-0.6,0.6-1,1.3-1.3,2.1c-0.3,0.9-0.5,1.8-0.5,2.7c0,0.9,0.2,1.7,0.6,2.4c0.4,0.7,0.9,1.4,1.5,1.9
	c0.6,0.5,1.4,0.9,2.2,1.2c0.8,0.3,1.6,0.5,2.5,0.4c1.5,0,3-0.4,4.3-1.1c1.3-0.8,2.4-1.8,3.2-3.1l-8.1-9.7
	C263.1,106.6,262.3,107.1,261.5,107.6z M266.9,100.4c0.6-0.4,1.1-0.8,1.5-1.3c0.5-0.5,0.8-1.1,1.1-1.7c0.3-0.6,0.5-1.3,0.4-2
	c0-1-0.4-2-1.1-2.6c-0.8-0.8-1.9-1.2-3-1.1c-1,0-2,0.3-2.8,0.9c-0.9,0.7-1.4,1.7-1.3,2.8c0,0.5,0.1,1.1,0.3,1.6
	c0.2,0.5,0.5,1.1,0.8,1.6c0.3,0.5,0.7,1,1.1,1.5l1.2,1.5L266.9,100.4z"
  />
  <path
    class="st1"
    d="M304.2,87.9v15.2h18.6V87.9h4.7v35.3h-4.7v-16.2h-18.6v16.2h-4.7V87.9H304.2z"
  />
  <path
    class="st1"
    d="M351.5,121.6c-2.1,1.5-4.6,2.3-7.2,2.2c-1.8,0-3.6-0.3-5.3-1c-1.5-0.6-2.8-1.6-3.8-2.8
	c-1.1-1.2-1.8-2.7-2.3-4.3c-0.5-1.8-0.8-3.6-0.9-5.4c0-1.8,0.3-3.6,0.9-5.3c0.6-1.5,1.4-3,2.5-4.2c1.1-1.2,2.4-2.1,3.8-2.8
	c1.5-0.7,3.2-1,4.8-1c2-0.1,4,0.4,5.7,1.4c1.5,0.9,2.7,2.1,3.6,3.6c0.9,1.5,1.5,3.1,1.9,4.7c0.3,1.6,0.5,3.3,0.4,4.9h-19.1
	c0,1.1,0.1,2.2,0.4,3.2c0.3,1,0.8,1.9,1.4,2.7c0.7,0.8,1.6,1.4,2.5,1.9c1.1,0.5,2.4,0.7,3.6,0.7c1.6,0.1,3.1-0.4,4.4-1.2
	c1.2-0.9,2-2.3,2.2-3.8h4.2C354.9,117.7,353.5,120,351.5,121.6z M350.5,105.2c-0.4-0.9-0.9-1.6-1.5-2.3c-1.4-1.4-3.2-2.1-5.2-2.1
	c-1,0-2,0.2-2.9,0.6c-0.9,0.4-1.6,0.9-2.3,1.6c-0.6,0.7-1.1,1.4-1.5,2.3c-0.4,0.9-0.6,1.8-0.6,2.8h14.7
	C351.1,107,350.9,106.1,350.5,105.2L350.5,105.2z"
  />
  <path
    class="st1"
    d="M378.7,123.8c-1,0.1-1.9-0.3-2.6-0.9c-0.7-0.8-1.1-1.9-1-3c-1.1,1.3-2.4,2.4-4,3c-1.6,0.6-3.3,0.9-5,0.9
	c-1.1,0-2.2-0.1-3.3-0.4c-1-0.2-1.9-0.6-2.7-1.2c-0.8-0.6-1.4-1.4-1.8-2.2c-0.5-1-0.7-2.2-0.7-3.3c0-1.2,0.2-2.5,0.7-3.6
	c0.5-0.9,1.2-1.7,2-2.2c0.8-0.6,1.8-1,2.8-1.3c1-0.3,2.1-0.5,3.2-0.7c1.1-0.2,2.3-0.4,3.3-0.5c0.9-0.1,1.8-0.3,2.7-0.5
	c0.7-0.2,1.3-0.5,1.9-0.9c0.5-0.5,0.7-1.1,0.7-1.8c0-0.8-0.1-1.5-0.5-2.2c-0.3-0.5-0.8-1-1.3-1.3c-0.6-0.3-1.2-0.5-1.8-0.6
	c-0.7-0.1-1.3-0.1-2-0.1c-1.5-0.1-3.1,0.3-4.5,1c-1.2,0.7-1.8,1.9-1.9,3.8h-4.2c0-1.4,0.4-2.8,1-4c0.6-1.1,1.4-2,2.4-2.6
	c1-0.7,2.2-1.2,3.4-1.5c1.3-0.3,2.7-0.5,4.1-0.4c1.2,0,2.3,0.1,3.4,0.2c1.1,0.1,2.1,0.5,3.1,1c0.9,0.5,1.7,1.3,2.2,2.2
	c0.6,1.1,0.9,2.4,0.9,3.6v13.2c0,0.7,0,1.5,0.2,2.2c0.1,0.5,0.5,0.7,1.2,0.7c0.4,0,0.9-0.1,1.3-0.2v3.3
	C380.8,123.6,379.7,123.9,378.7,123.8z M372.8,110.9c-0.9,0.2-1.8,0.3-2.7,0.4c-0.9,0.1-1.9,0.2-2.8,0.4c-0.9,0.1-1.7,0.4-2.6,0.7
	c-0.7,0.3-1.4,0.8-1.9,1.4c-0.5,0.7-0.8,1.6-0.7,2.5c0,0.6,0.1,1.2,0.4,1.7c0.3,0.5,0.6,0.9,1.1,1.2c0.5,0.3,1,0.5,1.6,0.6
	c0.6,0.1,1.2,0.2,1.9,0.2c1.2,0,2.4-0.2,3.6-0.6c0.9-0.3,1.7-0.8,2.4-1.4c0.6-0.5,1.1-1.2,1.4-1.9c0.3-0.6,0.4-1.2,0.5-1.9V110
	C374.2,110.5,373.5,110.8,372.8,110.9L372.8,110.9z"
  />
  <path class="st1" d="M389.1,87.9v35.3h-4.2V87.9H389.1z" />
  <path
    class="st1"
    d="M405.4,97.7v3.8h-5.1v15.9c0,0.4,0,0.8,0.1,1.2c0.1,0.3,0.2,0.5,0.5,0.7c0.3,0.2,0.6,0.3,1,0.3
	c0.5,0.1,1.1,0.1,1.6,0.1h1.9v3.7h-3.2c-0.9,0-1.9-0.1-2.8-0.2c-0.7-0.1-1.3-0.4-1.9-0.8c-0.5-0.4-0.9-1-1.1-1.7
	c-0.3-0.9-0.4-1.9-0.3-2.9v-16.3h-4.4v-3.7h4.4V90h4.2v7.7L405.4,97.7z"
  />
  <path
    class="st1"
    d="M412.8,87.9v13.5h0.1c0.3-0.8,0.8-1.4,1.4-2c0.6-0.5,1.3-1,2-1.3c0.7-0.4,1.5-0.6,2.3-0.8
	c0.8-0.2,1.6-0.2,2.3-0.2c1.4,0,2.9,0.2,4.2,0.7c1,0.4,2,1.1,2.7,1.9c0.7,0.9,1.2,1.9,1.5,2.9c0.3,1.2,0.4,2.5,0.4,3.8v16.8h-4.2
	v-17.3c0.1-1.4-0.4-2.7-1.4-3.8c-1-1-2.4-1.5-3.8-1.4c-1.1,0-2.3,0.2-3.3,0.6c-0.9,0.4-1.7,0.9-2.4,1.7c-0.6,0.8-1.1,1.6-1.4,2.5
	c-0.3,1-0.5,2.1-0.5,3.2v14.5h-4.2V87.9H412.8z"
  />
  <path
    class="st1"
    d="M450.4,102.1c-1.2-0.9-2.7-1.4-4.2-1.3c-1.3,0-2.6,0.2-3.8,0.8c-1,0.5-1.8,1.3-2.5,2.2c-0.6,1-1.1,2.1-1.3,3.2
	c-0.3,1.2-0.4,2.5-0.4,3.7c0,1.2,0.1,2.3,0.4,3.5c0.3,1.1,0.7,2.1,1.3,3c0.6,0.9,1.4,1.6,2.3,2.1c1.1,0.5,2.2,0.8,3.4,0.8
	c1.8,0.1,3.5-0.5,4.9-1.6c1.2-1.2,2-2.9,2.2-4.6h4.3c-0.3,2.8-1.5,5.4-3.5,7.3c-2.2,1.8-4.9,2.7-7.7,2.6c-1.8,0-3.5-0.3-5.2-0.9
	c-1.4-0.6-2.7-1.5-3.8-2.7c-1-1.2-1.8-2.6-2.3-4.1c-0.5-1.7-0.8-3.5-0.8-5.3c0-1.8,0.2-3.6,0.7-5.4c0.5-1.6,1.2-3.1,2.3-4.3
	c1-1.2,2.3-2.2,3.8-2.9c1.7-0.7,3.5-1.1,5.3-1.1c1.4,0,2.7,0.2,4.1,0.5c1.2,0.3,2.4,0.9,3.4,1.6c1,0.7,1.8,1.7,2.4,2.7
	c0.7,1.2,1.1,2.6,1.2,3.9h-4.4C452.2,104.4,451.5,103.1,450.4,102.1z"
  />
  <path
    class="st1"
    d="M480.3,123.8c-1,0.1-1.9-0.3-2.6-0.9c-0.7-0.8-1.1-1.9-1-3c-1.1,1.3-2.4,2.4-4,3c-1.6,0.6-3.3,0.9-5,0.9
	c-1.1,0-2.2-0.1-3.3-0.4c-1-0.2-1.9-0.6-2.7-1.2c-0.8-0.6-1.4-1.3-1.8-2.2c-0.5-1-0.7-2.2-0.7-3.3c0-1.2,0.2-2.5,0.7-3.6
	c0.5-0.9,1.2-1.7,2-2.2c0.8-0.6,1.8-1,2.8-1.3c1-0.3,2.1-0.5,3.2-0.7s2.2-0.4,3.3-0.5c0.9-0.1,1.8-0.3,2.7-0.5
	c0.7-0.2,1.3-0.5,1.9-0.9c0.5-0.5,0.7-1.1,0.7-1.8c0-0.8-0.1-1.5-0.5-2.2c-0.3-0.5-0.8-1-1.3-1.3c-0.6-0.3-1.2-0.5-1.8-0.6
	c-0.7-0.1-1.3-0.1-2-0.1c-1.5-0.1-3.1,0.3-4.4,1c-1.2,0.7-1.8,1.9-1.9,3.8h-4.2c0-1.4,0.4-2.8,1-4c0.6-1.1,1.4-2,2.4-2.6
	c1-0.7,2.2-1.2,3.4-1.5c1.3-0.3,2.7-0.5,4.1-0.4c1.2,0,2.3,0.1,3.4,0.2c1.1,0.1,2.1,0.5,3.1,1c0.9,0.5,1.7,1.3,2.2,2.2
	c0.6,1.1,0.9,2.4,0.8,3.6v13.2c0,0.7,0,1.5,0.2,2.2c0.1,0.5,0.5,0.7,1.2,0.7c0.4,0,0.9-0.1,1.3-0.2v3.3
	C482.4,123.6,481.4,123.9,480.3,123.8z M474.4,110.9c-0.9,0.2-1.8,0.3-2.7,0.4c-0.9,0.1-1.9,0.2-2.8,0.4c-0.9,0.1-1.7,0.4-2.6,0.7
	c-0.7,0.3-1.4,0.8-1.9,1.4c-0.5,0.7-0.8,1.6-0.7,2.5c0,0.6,0.1,1.2,0.4,1.7c0.3,0.5,0.6,0.9,1.1,1.2c0.5,0.3,1,0.5,1.6,0.6
	c0.6,0.1,1.2,0.2,1.8,0.2c1.2,0,2.4-0.2,3.6-0.6c0.9-0.3,1.7-0.8,2.4-1.4c0.6-0.5,1.1-1.2,1.4-1.9c0.3-0.6,0.4-1.2,0.4-1.9V110
	C475.9,110.5,475.2,110.8,474.4,110.9z"
  />
  <path
    class="st1"
    d="M490.2,97.7v5.4h0.1c0.8-1.8,2.1-3.4,3.8-4.6c1.7-1,3.7-1.5,5.6-1.4v4.5c-1.5,0-2.9,0.2-4.3,0.7
	c-1.1,0.4-2.1,1.1-2.9,2c-0.8,1-1.3,2.1-1.6,3.2c-0.3,1.4-0.5,2.9-0.5,4.4v11.4h-4.2V97.6L490.2,97.7z"
  />
  <path
    class="st1"
    d="M519.8,121.6c-2.1,1.5-4.6,2.3-7.2,2.2c-1.8,0-3.6-0.3-5.3-1c-1.5-0.6-2.8-1.6-3.8-2.8
	c-1.1-1.2-1.8-2.7-2.3-4.3c-0.5-1.8-0.8-3.6-0.9-5.4c0-1.8,0.3-3.6,0.9-5.3c0.6-1.5,1.4-3,2.5-4.2c2.2-2.4,5.4-3.8,8.6-3.8
	c2-0.1,4,0.4,5.7,1.4c1.5,0.9,2.7,2.1,3.6,3.6c0.9,1.5,1.5,3.1,1.9,4.7c0.3,1.6,0.5,3.3,0.4,4.9h-19.1c0,1.1,0.1,2.2,0.4,3.2
	c0.3,1,0.8,1.9,1.4,2.7c0.7,0.8,1.6,1.4,2.5,1.9c1.1,0.5,2.4,0.7,3.6,0.7c1.6,0.1,3.1-0.4,4.4-1.2c1.2-0.9,2-2.3,2.2-3.8h4.2
	C523.1,117.7,521.8,120,519.8,121.6z M518.8,105.2c-0.4-0.9-0.9-1.6-1.5-2.3c-0.7-0.7-1.4-1.2-2.3-1.5c-0.9-0.4-1.9-0.6-2.9-0.6
	c-1,0-2,0.2-2.9,0.6c-0.8,0.4-1.6,0.9-2.2,1.6c-0.6,0.7-1.1,1.4-1.5,2.3c-0.4,0.9-0.6,1.8-0.6,2.8h14.7
	C519.4,107,519.1,106.1,518.8,105.2L518.8,105.2z"
  />
  <path
    class="st1"
    d="M545.3,97.7v3.5h0.1c0.7-1.4,1.8-2.5,3.3-3.1c1.5-0.7,3.2-1,4.9-1c1.8,0,3.6,0.3,5.2,1.1c1.4,0.7,2.7,1.7,3.7,3
	c1,1.3,1.7,2.7,2.2,4.3c0.5,1.7,0.8,3.4,0.7,5.1c0,1.7-0.2,3.5-0.7,5.1c-0.4,1.5-1.2,3-2.2,4.2c-1,1.2-2.2,2.2-3.7,2.8
	c-1.6,0.7-3.4,1-5.1,1c-0.7,0-1.4-0.1-2.1-0.2c-0.8-0.1-1.6-0.3-2.3-0.6c-0.8-0.3-1.5-0.7-2.2-1.2c-0.7-0.5-1.3-1.2-1.7-1.9h-0.1
	V133h-4.2V97.7H545.3z M560.5,106.8c-0.3-1.1-0.8-2.1-1.4-3c-0.6-0.9-1.5-1.6-2.5-2.1c-1.1-0.6-2.3-0.8-3.5-0.8
	c-1.3,0-2.5,0.3-3.6,0.8c-1,0.5-1.8,1.3-2.4,2.2c-0.6,0.9-1.1,2-1.4,3.1c-0.6,2.3-0.6,4.8,0,7.1c0.3,1.1,0.7,2.2,1.4,3.1
	c0.7,0.9,1.5,1.6,2.5,2.1c1.2,0.6,2.4,0.9,3.7,0.8c1.3,0,2.5-0.2,3.6-0.8c0.9-0.5,1.8-1.3,2.3-2.2c0.6-1,1-2,1.3-3.2
	c0.3-1.2,0.4-2.4,0.4-3.7C560.9,109.1,560.8,107.9,560.5,106.8L560.5,106.8z"
  />
  <path
    class="st1"
    d="M573.2,97.7v5.4h0.1c0.8-1.8,2.1-3.4,3.8-4.6c1.7-1,3.7-1.5,5.6-1.4v4.5c-1.5,0-2.9,0.2-4.3,0.7
	c-1.1,0.4-2.1,1.1-2.9,2c-0.8,1-1.3,2.1-1.6,3.2c-0.3,1.4-0.5,2.9-0.5,4.4v11.4h-4.2V97.6L573.2,97.7z"
  />
  <path
    class="st1"
    d="M584,105.2c0.5-1.6,1.3-3,2.4-4.2c1.1-1.2,2.4-2.2,3.9-2.8c3.4-1.4,7.3-1.4,10.7,0c1.5,0.7,2.8,1.6,3.9,2.8
	c1.1,1.2,1.9,2.7,2.4,4.2c0.5,1.7,0.8,3.5,0.8,5.3c0,1.8-0.2,3.5-0.8,5.2c-0.5,1.6-1.3,3-2.4,4.2c-1.1,1.2-2.4,2.2-3.9,2.8
	c-3.4,1.3-7.3,1.3-10.7,0c-1.5-0.6-2.8-1.6-3.9-2.8c-1.1-1.2-1.9-2.7-2.4-4.2c-0.5-1.7-0.8-3.5-0.8-5.2
	C583.2,108.7,583.5,106.9,584,105.2z M588.3,114.6c0.4,1.1,0.9,2.1,1.7,3c0.7,0.8,1.6,1.4,2.5,1.8c1,0.4,2,0.7,3.1,0.6
	c1.1,0,2.1-0.2,3.1-0.6c1-0.4,1.8-1.1,2.5-1.8c0.8-0.9,1.3-1.9,1.7-3c0.8-2.7,0.8-5.6,0-8.3c-0.4-1.1-0.9-2.1-1.7-3
	c-0.7-0.8-1.6-1.4-2.5-1.9c-1-0.4-2-0.7-3.1-0.6c-1.1,0-2.1,0.2-3.1,0.6c-1,0.4-1.8,1.1-2.5,1.9c-0.8,0.9-1.3,1.9-1.7,3
	C587.5,109.1,587.5,111.9,588.3,114.6z"
  />
  <path
    class="st1"
    d="M630.7,123.3v-3.5h0c-0.7,1.4-1.8,2.5-3.3,3.1c-1.6,0.6-3.2,1-4.9,0.9c-1.8,0-3.6-0.3-5.2-1.1
	c-1.4-0.7-2.7-1.7-3.7-2.9c-1-1.3-1.7-2.7-2.2-4.2c-0.5-1.7-0.8-3.4-0.8-5.1c0-1.7,0.2-3.5,0.7-5.1c0.4-1.5,1.2-3,2.2-4.2
	c1-1.2,2.2-2.2,3.7-2.9c1.6-0.7,3.4-1.1,5.1-1.1c0.7,0,1.4,0.1,2.1,0.2c0.8,0.1,1.5,0.4,2.3,0.7c0.8,0.3,1.5,0.7,2.1,1.2
	c0.7,0.5,1.3,1.2,1.7,1.9h0.1V87.9h4.2v35.3L630.7,123.3z M615.5,114.2c0.3,1.1,0.8,2.1,1.4,3c0.6,0.9,1.5,1.6,2.5,2.1
	c1.1,0.5,2.3,0.8,3.5,0.8c2.4,0.1,4.7-1.1,6-3c0.6-0.9,1.1-2,1.4-3.1c0.3-1.1,0.4-2.3,0.4-3.5c0-1.2-0.1-2.5-0.5-3.6
	c-0.3-1.1-0.8-2.2-1.4-3.1c-0.7-0.9-1.5-1.6-2.5-2.1c-1.2-0.6-2.4-0.9-3.7-0.8c-1.3,0-2.5,0.3-3.6,0.8c-1,0.5-1.8,1.3-2.4,2.2
	c-0.6,1-1.1,2-1.3,3.2c-0.3,1.2-0.4,2.4-0.4,3.7C615,111.8,615.2,113,615.5,114.2z"
  />
  <path
    class="st1"
    d="M657.3,123.3v-4.1h-0.1c-0.8,1.5-2,2.7-3.4,3.5c-1.5,0.8-3.2,1.2-4.9,1.1c-1.4,0-2.9-0.2-4.2-0.7
	c-1.1-0.4-2-1-2.7-1.9c-0.7-0.9-1.2-1.9-1.5-3c-0.3-1.2-0.4-2.5-0.4-3.8V97.7h4.2V115c-0.2,2.6,1.8,5,4.4,5.2c0.3,0,0.5,0,0.8,0
	c1.1,0,2.3-0.2,3.3-0.6c0.9-0.4,1.7-0.9,2.3-1.7c0.6-0.7,1.1-1.6,1.4-2.5c0.3-1,0.5-2.1,0.5-3.2V97.7h4.2v25.6H657.3z"
  />
  <path
    class="st1"
    d="M681.9,102.1c-1.2-0.9-2.7-1.4-4.3-1.3c-1.3,0-2.6,0.2-3.8,0.8c-1,0.5-1.8,1.3-2.4,2.2c-0.6,1-1.1,2.1-1.3,3.2
	c-0.3,1.2-0.4,2.5-0.4,3.7c0,1.2,0.1,2.3,0.4,3.5c0.3,1.1,0.7,2.1,1.3,3c0.6,0.9,1.4,1.6,2.3,2.1c1.1,0.5,2.2,0.8,3.4,0.8
	c1.8,0.1,3.5-0.5,4.9-1.6c1.2-1.2,2-2.9,2.2-4.6h4.3c-0.3,2.8-1.5,5.4-3.5,7.3c-2.2,1.8-4.9,2.7-7.7,2.6c-1.8,0-3.5-0.3-5.2-0.9
	c-1.4-0.6-2.7-1.5-3.8-2.7c-1-1.2-1.8-2.6-2.3-4.1c-0.5-1.7-0.8-3.5-0.8-5.3c0-1.8,0.2-3.6,0.7-5.4c0.5-1.6,1.2-3.1,2.2-4.3
	c1-1.3,2.3-2.2,3.8-2.9c1.7-0.7,3.5-1.1,5.3-1.1c1.4,0,2.7,0.2,4.1,0.5c1.2,0.3,2.4,0.9,3.4,1.6c1,0.7,1.8,1.7,2.4,2.7
	c0.7,1.2,1.1,2.6,1.2,3.9H684C683.7,104.4,683,103.1,681.9,102.1z"
  />
  <path
    class="st1"
    d="M703.2,97.7v3.8h-5.1v15.9c0,0.4,0,0.8,0.1,1.2c0.1,0.3,0.2,0.5,0.5,0.7c0.3,0.2,0.6,0.3,1,0.3
	c0.5,0.1,1.1,0.1,1.6,0.1h1.9v3.7H700c-0.9,0-1.9-0.1-2.8-0.2c-0.7-0.1-1.3-0.4-1.9-0.8c-0.5-0.4-0.9-1-1.1-1.7
	c-0.3-0.9-0.4-1.9-0.3-2.9v-16.3h-4.4v-3.7h4.4V90h4.2v7.7L703.2,97.7z"
  />
  <path
    class="st1"
    d="M709.9,117.5c0.4,0.6,0.9,1.2,1.6,1.5c0.7,0.4,1.4,0.7,2.2,0.8c0.8,0.2,1.7,0.3,2.5,0.2c0.7,0,1.4-0.1,2.1-0.1
	c0.7-0.1,1.4-0.3,2-0.5c0.6-0.3,1.1-0.7,1.5-1.2c0.4-0.6,0.6-1.3,0.6-1.9c0-1-0.4-1.9-1.2-2.5c-1-0.6-2-1.1-3.1-1.4
	c-1.2-0.3-2.6-0.7-4-0.9c-1.4-0.3-2.7-0.7-4-1.2c-1.2-0.5-2.2-1.2-3.1-2.1c-0.9-1.1-1.3-2.5-1.2-3.9c0-1.2,0.3-2.3,0.9-3.3
	c0.6-0.9,1.3-1.7,2.2-2.2c0.9-0.6,2-1,3.1-1.3c1.1-0.3,2.2-0.4,3.4-0.4c1.3,0,2.7,0.1,4,0.4c1.2,0.2,2.3,0.7,3.2,1.3
	c0.9,0.6,1.7,1.5,2.2,2.5c0.6,1.2,0.9,2.5,1,3.9h-4.2c0-0.7-0.3-1.4-0.6-2c-0.4-0.5-0.8-1-1.4-1.3c-0.6-0.3-1.2-0.6-1.9-0.7
	c-0.7-0.2-1.4-0.2-2.1-0.2c-0.6,0-1.3,0.1-1.9,0.1c-0.6,0.1-1.2,0.3-1.8,0.5c-0.5,0.2-0.9,0.6-1.3,1c-0.4,0.5-0.5,1-0.5,1.6
	c0,0.7,0.3,1.3,0.8,1.8c0.6,0.5,1.2,0.9,1.9,1.2c0.9,0.3,1.8,0.6,2.7,0.8c1,0.2,2,0.4,3,0.7c1,0.2,2.1,0.5,3.1,0.8
	c1,0.3,1.9,0.7,2.7,1.3c0.8,0.5,1.4,1.2,1.9,2c0.5,0.9,0.8,2,0.7,3.1c0,1.4-0.3,2.7-1,3.9c-0.6,1-1.5,1.9-2.5,2.5
	c-1.1,0.6-2.3,1.1-3.5,1.3c-1.3,0.2-2.6,0.4-3.9,0.4c-1.4,0-2.7-0.1-4.1-0.4c-1.2-0.3-2.4-0.8-3.4-1.5c-1-0.7-1.8-1.6-2.4-2.7
	c-0.6-1.2-1-2.6-1-4h4.2C709.3,116.1,709.5,116.9,709.9,117.5z"
  />
  <path
    class="st1"
    d="M41.5,139.9c3.3,0,6,0.8,7.9,2.5c1.9,1.7,3,4.2,2.8,6.8c0,2-0.5,3.9-1.5,5.6c-1.1,1.7-2.7,2.9-4.7,3.3v0.1
	c0.9,0.2,1.7,0.5,2.5,1c0.6,0.4,1.1,1,1.5,1.7c0.4,0.7,0.7,1.4,0.8,2.1c0.2,0.8,0.3,1.6,0.4,2.5c0.1,0.9,0.1,1.7,0.1,2.6
	c0,0.9,0.1,1.8,0.2,2.6c0.1,0.8,0.3,1.7,0.6,2.4c0.2,0.8,0.6,1.5,1.1,2.1h-5.2c-0.4-0.4-0.6-0.9-0.7-1.5c-0.1-0.7-0.2-1.4-0.2-2.1
	c0-0.8-0.1-1.6-0.1-2.5c0-0.9-0.1-1.8-0.3-2.6c-0.1-0.9-0.3-1.7-0.5-2.4c-0.2-0.7-0.5-1.4-0.9-2c-0.4-0.6-1-1.1-1.7-1.4
	c-0.9-0.4-1.8-0.6-2.8-0.5H29.6v15.1h-4.7v-35.4H41.5z M42.5,155.9c0.9-0.1,1.8-0.5,2.6-1c0.8-0.5,1.4-1.1,1.8-1.9
	c0.5-1,0.7-2.1,0.7-3.1c0.1-1.6-0.5-3.1-1.5-4.3c-1-1.1-2.6-1.7-4.8-1.7H29.6v12.3h9.8C40.5,156.2,41.5,156.1,42.5,155.9L42.5,155.9
	z"
  />
  <path
    class="st1"
    d="M75,173.6c-2.1,1.5-4.6,2.3-7.2,2.2c-1.8,0-3.6-0.3-5.3-1c-1.5-0.6-2.8-1.6-3.8-2.8c-1.1-1.2-1.8-2.7-2.3-4.3
	c-0.5-1.8-0.8-3.6-0.9-5.4c0-1.8,0.3-3.6,0.9-5.3c0.5-1.6,1.4-3,2.5-4.2c1.1-1.2,2.4-2.1,3.8-2.8c1.5-0.7,3.2-1,4.8-1
	c2-0.1,4,0.4,5.7,1.4c1.5,0.9,2.7,2.1,3.6,3.6c0.9,1.5,1.6,3.1,1.9,4.7c0.3,1.6,0.5,3.3,0.4,4.9H59.9c0,1.1,0.1,2.2,0.4,3.2
	c0.3,1,0.8,1.9,1.4,2.7c0.7,0.8,1.6,1.4,2.5,1.9c1.1,0.5,2.4,0.7,3.6,0.7c1.6,0.1,3.1-0.4,4.4-1.2c1.2-0.9,2-2.3,2.2-3.8h4.2
	C78.3,169.7,77,172,75,173.6z M74,157.2c-0.4-0.9-0.9-1.6-1.5-2.3c-1.4-1.4-3.2-2.1-5.2-2.1c-1,0-2,0.2-2.9,0.6
	c-0.8,0.4-1.6,0.9-2.2,1.6c-0.6,0.7-1.1,1.4-1.5,2.3c-0.4,0.9-0.6,1.8-0.6,2.8h14.6C74.6,159,74.3,158.1,74,157.2L74,157.2z"
  />
  <path
    class="st1"
    d="M102,182.5c-1.9,2.1-4.9,3.1-9,3.1c-1.2,0-2.4-0.1-3.6-0.4c-1.2-0.2-2.3-0.7-3.4-1.3c-1-0.6-1.9-1.4-2.5-2.3
	c-0.7-1-1.1-2.3-1.1-3.5h4.2c0,0.7,0.3,1.4,0.7,1.9c0.5,0.5,1,1,1.6,1.3c0.7,0.3,1.4,0.6,2.1,0.7c0.7,0.1,1.4,0.2,2.2,0.2
	c1.2,0,2.4-0.2,3.5-0.7c0.9-0.5,1.8-1.2,2.4-2c0.7-0.9,1.1-2,1.4-3c0.3-1.3,0.4-2.6,0.4-3.9v-1.7h-0.1c-0.7,1.5-1.8,2.7-3.3,3.5
	c-1.5,0.7-3.1,1.1-4.7,1.1c-1.7,0.1-3.4-0.3-5-1c-1.4-0.7-2.6-1.6-3.6-2.8c-1-1.2-1.7-2.6-2.1-4.1c-0.5-1.6-0.7-3.3-0.7-5
	c0-1.6,0.2-3.1,0.6-4.7c0.4-1.6,1.1-3,2-4.4c0.9-1.3,2.2-2.4,3.6-3.2c1.7-0.9,3.6-1.3,5.6-1.3c1.6,0,3.1,0.4,4.5,1.1
	c1.4,0.7,2.5,1.8,3.2,3.2l0,0v-3.7h4v23.4C104.8,177.3,103.9,180.4,102,182.5z M96.6,171c1-0.6,1.8-1.3,2.4-2.3
	c0.6-1,1.1-2.1,1.3-3.2c0.3-1.2,0.4-2.4,0.4-3.6c0-1.1-0.1-2.2-0.4-3.3c-0.2-1-0.7-2-1.3-2.9c-0.6-0.9-1.3-1.6-2.2-2.1
	c-1-0.6-2.2-0.8-3.4-0.8c-1.2,0-2.4,0.2-3.5,0.8c-0.9,0.5-1.7,1.2-2.3,2.1c-0.6,0.9-1.1,1.9-1.3,3c-0.3,1.1-0.4,2.3-0.4,3.5
	c0,1.2,0.1,2.3,0.3,3.5c0.2,1.1,0.6,2.2,1.2,3.1c0.5,0.9,1.3,1.7,2.2,2.3c1.1,0.6,2.3,0.9,3.5,0.9C94.3,171.9,95.5,171.6,96.6,171z"
  />
  <path
    class="st1"
    d="M127.2,175.3v-4.1h-0.1c-0.8,1.5-2,2.7-3.4,3.5c-1.5,0.8-3.2,1.2-4.9,1.1c-1.4,0-2.9-0.2-4.2-0.7
	c-1.1-0.4-2-1-2.7-1.9c-0.7-0.9-1.2-1.9-1.5-3c-0.3-1.2-0.4-2.5-0.4-3.8v-16.8h4.2V167c-0.1,1.4,0.4,2.8,1.4,3.8
	c1,1,2.4,1.5,3.8,1.4c1.1,0,2.3-0.2,3.3-0.6c0.9-0.4,1.7-0.9,2.3-1.7c0.6-0.7,1.1-1.6,1.4-2.5c0.3-1,0.5-2.1,0.5-3.2v-14.5h4.2v25.6
	H127.2z"
  />
  <path class="st1" d="M140.7,139.9v35.3h-4.2v-35.3H140.7z" />
  <path
    class="st1"
    d="M165.7,175.8c-1,0.1-1.9-0.3-2.6-0.9c-0.7-0.8-1.1-1.9-1-3c-1.1,1.3-2.4,2.4-4,3c-1.6,0.6-3.3,0.9-5,0.9
	c-1.1,0-2.2-0.1-3.3-0.4c-1-0.2-1.9-0.6-2.7-1.2c-0.8-0.6-1.4-1.4-1.8-2.2c-0.5-1-0.7-2.2-0.7-3.3c0-1.2,0.2-2.5,0.7-3.6
	c0.5-0.9,1.2-1.7,2-2.2c0.8-0.6,1.8-1,2.8-1.3c1-0.3,2.1-0.5,3.2-0.7c1.1-0.2,2.3-0.4,3.3-0.5c0.9-0.1,1.8-0.3,2.7-0.5
	c0.7-0.2,1.3-0.5,1.9-0.9c0.5-0.5,0.7-1.1,0.7-1.8c0-0.8-0.1-1.5-0.5-2.2c-0.3-0.5-0.8-1-1.3-1.3c-0.6-0.3-1.2-0.5-1.8-0.6
	c-0.7-0.1-1.3-0.1-2-0.1c-1.5-0.1-3.1,0.3-4.5,1c-1.2,0.7-1.8,1.9-1.9,3.8h-4.2c0-1.4,0.4-2.8,1-4c0.6-1.1,1.4-2,2.4-2.6
	c1-0.7,2.2-1.2,3.4-1.5c1.3-0.3,2.7-0.5,4.1-0.4c1.2,0,2.3,0.1,3.4,0.2c1.1,0.1,2.1,0.5,3.1,1c0.9,0.5,1.7,1.3,2.2,2.2
	c0.6,1.1,0.9,2.4,0.8,3.6v13.2c0,0.7,0,1.5,0.2,2.2c0.1,0.5,0.5,0.7,1.2,0.7c0.4,0,0.9-0.1,1.3-0.2v3.3
	C167.9,175.6,166.8,175.9,165.7,175.8z M159.9,162.9c-0.9,0.2-1.8,0.3-2.7,0.4c-0.9,0.1-1.9,0.2-2.8,0.4c-0.9,0.1-1.7,0.4-2.6,0.7
	c-0.7,0.3-1.4,0.8-1.9,1.4c-0.5,0.7-0.8,1.6-0.7,2.5c0,0.6,0.1,1.2,0.4,1.7c0.3,0.5,0.6,0.9,1.1,1.2c0.5,0.3,1,0.5,1.6,0.6
	c0.6,0.1,1.2,0.2,1.9,0.2c1.2,0,2.4-0.2,3.6-0.6c0.9-0.3,1.7-0.8,2.4-1.4c0.6-0.5,1.1-1.2,1.4-1.9c0.3-0.6,0.4-1.2,0.4-1.9V162
	C161.3,162.5,160.6,162.8,159.9,162.9z"
  />
  <path
    class="st1"
    d="M182.3,149.7v3.8h-5.1v15.9c0,0.4,0,0.8,0.1,1.2c0.1,0.3,0.2,0.5,0.5,0.7c0.3,0.2,0.6,0.3,1,0.3
	c0.5,0.1,1.1,0.1,1.6,0.1h1.9v3.7h-3.2c-0.9,0-1.9-0.1-2.8-0.2c-0.7-0.1-1.3-0.4-1.9-0.8c-0.5-0.4-0.9-1-1.1-1.7
	c-0.3-0.9-0.4-1.9-0.4-2.9v-16.3h-4.4v-3.7h4.4V142h4.2v7.7L182.3,149.7z"
  />
  <path
    class="st1"
    d="M184.3,157.2c0.5-1.6,1.3-3,2.4-4.2c1.1-1.2,2.4-2.2,3.9-2.8c3.4-1.4,7.3-1.4,10.7,0c1.5,0.7,2.8,1.6,3.9,2.8
	c1.1,1.2,1.9,2.7,2.4,4.2c0.5,1.7,0.8,3.5,0.8,5.3c0,1.8-0.2,3.5-0.8,5.2c-0.5,1.6-1.3,3-2.4,4.2c-1.1,1.2-2.4,2.2-3.9,2.8
	c-3.4,1.3-7.3,1.3-10.7,0c-1.5-0.6-2.8-1.6-3.9-2.8c-1.1-1.2-1.9-2.7-2.4-4.2c-0.5-1.7-0.8-3.5-0.8-5.2
	C183.5,160.7,183.8,158.9,184.3,157.2z M188.6,166.6c0.4,1.1,0.9,2.1,1.7,3c0.7,0.8,1.6,1.4,2.5,1.8c1,0.4,2,0.7,3.1,0.6
	c1.1,0,2.1-0.2,3.1-0.6c1-0.4,1.8-1.1,2.5-1.8c0.8-0.9,1.3-1.9,1.7-3c0.8-2.7,0.8-5.6,0-8.3c-0.4-1.1-0.9-2.1-1.7-3
	c-0.7-0.8-1.6-1.5-2.5-1.9c-1-0.4-2-0.7-3.1-0.6c-1.1,0-2.1,0.2-3.1,0.6c-1,0.4-1.8,1.1-2.5,1.9c-0.8,0.9-1.3,1.9-1.7,3
	C187.8,161,187.8,163.9,188.6,166.6L188.6,166.6z"
  />
  <path
    class="st1"
    d="M216.1,149.7v5.4h0.1c0.8-1.8,2.1-3.4,3.8-4.6c1.7-1,3.7-1.5,5.6-1.4v4.5c-1.5,0-2.9,0.2-4.3,0.7
	c-1.1,0.4-2.1,1.1-2.9,2c-0.8,1-1.3,2.1-1.6,3.2c-0.3,1.4-0.5,2.9-0.5,4.4v11.4h-4.2v-25.6L216.1,149.7z"
  />
  <path
    class="st1"
    d="M238,181.8c-0.4,0.8-1,1.5-1.6,2.1c-0.5,0.5-1.2,0.9-1.9,1.2c-0.8,0.3-1.6,0.4-2.5,0.4c-0.5,0-1,0-1.5-0.1
	c-0.5-0.1-1-0.2-1.4-0.3v-3.9l1.2,0.4c0.4,0.1,0.8,0.2,1.3,0.2c0.7,0,1.5-0.2,2.1-0.6c0.6-0.5,1.1-1.1,1.4-1.7l1.7-4.3l-10.2-25.4
	h4.7l7.5,20.9h0.1l7.2-20.9h4.5l-11.1,29C239.1,179.7,238.6,180.8,238,181.8z"
  />
  <path
    class="st1"
    d="M282.4,139.9l13.8,35.3H291l-3.9-10.6h-14.9l-4,10.6h-4.8l13.8-35.3L282.4,139.9z M285.7,160.7l-5.9-16.5h-0.1
	l-6,16.5H285.7z"
  />
  <path
    class="st1"
    d="M316.8,182.5c-1.9,2.1-4.9,3.1-9,3.1c-1.2,0-2.4-0.1-3.6-0.4c-1.2-0.2-2.3-0.7-3.4-1.3c-1-0.6-1.8-1.4-2.5-2.3
	c-0.7-1-1.1-2.3-1.1-3.5h4.2c0,0.7,0.3,1.4,0.7,1.9c0.5,0.5,1,1,1.6,1.3c0.7,0.3,1.4,0.6,2.1,0.7c0.7,0.1,1.4,0.2,2.2,0.2
	c1.2,0,2.4-0.2,3.5-0.7c0.9-0.5,1.8-1.2,2.4-2c0.7-0.9,1.1-2,1.4-3c0.3-1.3,0.4-2.6,0.4-3.9v-1.7h-0.1c-0.7,1.5-1.8,2.7-3.3,3.5
	c-1.5,0.7-3.1,1.1-4.7,1.1c-1.7,0.1-3.4-0.3-5-1c-1.4-0.7-2.6-1.6-3.6-2.8c-1-1.2-1.7-2.6-2.2-4.1c-0.5-1.6-0.7-3.3-0.7-5
	c0-1.6,0.2-3.1,0.6-4.7c0.4-1.6,1.1-3,2-4.4c1-1.3,2.2-2.4,3.7-3.2c1.7-0.9,3.6-1.3,5.6-1.3c1.6,0,3.1,0.4,4.5,1.1
	c1.3,0.7,2.4,1.8,3.1,3.2h0v-3.7h4v23.4C319.6,177.3,318.7,180.4,316.8,182.5z M311.4,171c1-0.6,1.8-1.3,2.3-2.3
	c0.6-1,1.1-2.1,1.3-3.2c0.3-1.2,0.4-2.4,0.4-3.6c0-1.1-0.1-2.2-0.4-3.3c-0.2-1-0.7-2-1.3-2.9c-0.6-0.9-1.3-1.6-2.2-2.1
	c-1-0.6-2.2-0.8-3.4-0.8c-1.2,0-2.4,0.2-3.5,0.8c-0.9,0.5-1.7,1.2-2.4,2.1c-0.6,0.9-1.1,1.9-1.3,3c-0.3,1.1-0.4,2.3-0.4,3.5
	c0,1.2,0.1,2.3,0.4,3.5c0.2,1.1,0.6,2.2,1.2,3.1c0.5,0.9,1.3,1.7,2.2,2.3c1.1,0.6,2.3,0.9,3.5,0.9
	C309.1,171.9,310.3,171.6,311.4,171z"
  />
  <path
    class="st1"
    d="M343,173.6c-2.1,1.5-4.6,2.3-7.2,2.2c-1.8,0-3.6-0.3-5.3-1c-1.5-0.6-2.8-1.6-3.8-2.8c-1.1-1.2-1.8-2.7-2.3-4.3
	c-0.5-1.8-0.8-3.6-0.9-5.4c0-1.8,0.3-3.6,0.9-5.3c0.6-1.5,1.4-3,2.5-4.2c2.2-2.4,5.4-3.8,8.6-3.8c2-0.1,4,0.4,5.7,1.4
	c1.5,0.9,2.7,2.1,3.6,3.6c0.9,1.5,1.5,3.1,1.9,4.7c0.3,1.6,0.5,3.3,0.4,4.9H328c0,1.1,0.1,2.2,0.4,3.2c0.3,1,0.8,1.9,1.4,2.7
	c0.7,0.8,1.6,1.4,2.5,1.9c1.1,0.5,2.4,0.7,3.6,0.7c1.6,0.1,3.1-0.4,4.4-1.2c1.2-0.9,2-2.3,2.2-3.8h4.2
	C346.4,169.7,345,172,343,173.6z M342,157.2c-0.4-0.9-0.9-1.6-1.5-2.3c-0.7-0.7-1.4-1.2-2.3-1.5c-0.9-0.4-1.9-0.6-2.9-0.6
	c-1,0-2,0.2-2.9,0.6c-0.8,0.4-1.6,0.9-2.2,1.6c-0.6,0.7-1.1,1.4-1.5,2.3c-0.4,0.9-0.6,1.8-0.6,2.8h14.7
	C342.6,159,342.4,158.1,342,157.2L342,157.2z"
  />
  <path
    class="st1"
    d="M354.6,149.7v4.1h0.1c1.6-3,4.9-4.9,8.3-4.6c1.4,0,2.9,0.2,4.2,0.7c1,0.4,2,1.1,2.7,1.9
	c0.7,0.9,1.2,1.9,1.5,2.9c0.3,1.2,0.4,2.5,0.4,3.8v16.8h-4.2v-17.3c0.1-1.4-0.4-2.7-1.4-3.8c-1-1-2.4-1.5-3.8-1.4
	c-1.1,0-2.3,0.2-3.3,0.6c-0.9,0.4-1.7,0.9-2.4,1.7c-0.6,0.7-1.1,1.6-1.4,2.5c-0.3,1-0.5,2.1-0.5,3.2v14.5h-4.2v-25.6L354.6,149.7z"
  />
  <path
    class="st1"
    d="M392.4,154.1c-1.2-0.9-2.7-1.4-4.3-1.3c-1.3,0-2.6,0.2-3.8,0.8c-1,0.5-1.8,1.3-2.4,2.2c-0.6,1-1.1,2.1-1.3,3.2
	c-0.3,1.2-0.4,2.5-0.4,3.7c0,1.2,0.1,2.3,0.4,3.5c0.3,1.1,0.7,2.1,1.3,3c0.6,0.9,1.4,1.6,2.3,2.1c1.1,0.5,2.2,0.8,3.4,0.8
	c1.8,0.1,3.5-0.5,4.9-1.6c1.2-1.2,2-2.9,2.1-4.6h4.3c-0.3,2.8-1.5,5.4-3.5,7.3c-2.2,1.8-4.9,2.7-7.7,2.6c-1.8,0-3.5-0.3-5.2-0.9
	c-1.4-0.6-2.7-1.5-3.8-2.7c-1-1.2-1.8-2.6-2.3-4.1c-0.5-1.7-0.8-3.5-0.8-5.3c0-1.8,0.2-3.6,0.7-5.4c0.5-1.6,1.2-3.1,2.3-4.3
	c1-1.3,2.3-2.3,3.8-2.9c1.7-0.7,3.5-1.1,5.3-1.1c1.4,0,2.7,0.2,4.1,0.5c1.2,0.3,2.4,0.9,3.4,1.6c1,0.7,1.8,1.7,2.4,2.7
	c0.7,1.2,1.1,2.6,1.2,3.9h-4.4C394.3,156.4,393.5,155.1,392.4,154.1z"
  />
  <path
    class="st1"
    d="M410.7,181.8c-0.4,0.8-1,1.5-1.6,2.1c-0.5,0.5-1.2,0.9-1.9,1.2c-0.8,0.3-1.6,0.4-2.5,0.4c-0.5,0-1,0-1.5-0.1
	c-0.5-0.1-1-0.2-1.4-0.3v-3.9l1.2,0.4c0.4,0.1,0.8,0.2,1.3,0.2c0.7,0,1.5-0.2,2.1-0.6c0.6-0.5,1.1-1.1,1.4-1.7l1.7-4.3l-10.1-25.4
	h4.7l7.5,20.9h0.1l7.2-20.9h4.5l-11.1,29C411.8,179.7,411.3,180.8,410.7,181.8z"
  />
  <path
    class="st1"
    d="M58,11.6c-0.4,0.8-0.7,1.2-0.7,1.8c0.1,0.6,0.7,1,1,1.6c0.3-0.7,0.7-1.2,0.7-1.8C58.9,12.7,58.2,12,58,11.6"
  />
  <path
    class="st1"
    d="M68.4,11.6c0.4,0.8,0.7,1.2,0.7,1.8s-0.7,1-1,1.6c-0.3-0.7-0.7-1.2-0.7-1.8C67.4,12.7,68.2,12,68.4,11.6"
  />
  <path
    class="st1"
    d="M52,11.1c0.4,0,0.7-0.3,0.7-0.7c0-0.4-0.3-0.7-0.7-0.7c-0.4,0-0.7,0.3-0.7,0.7C51.3,10.8,51.6,11.1,52,11.1
	C52,11.1,52,11.1,52,11.1"
  />
  <path
    class="st1"
    d="M52.5,12.1c0-0.4-0.3-0.7-0.7-0.7s-0.7,0.3-0.7,0.7c0,0.4,0.3,0.7,0.7,0.7l0,0C52.2,12.8,52.5,12.5,52.5,12.1"
  />
  <path
    class="st1"
    d="M52.8,13.8c0-0.4-0.3-0.7-0.7-0.7c-0.4,0-0.7,0.3-0.7,0.7s0.3,0.7,0.7,0.7c0,0,0,0,0,0
	C52.5,14.5,52.8,14.2,52.8,13.8C52.8,13.8,52.8,13.8,52.8,13.8"
  />
  <path
    class="st1"
    d="M55.9,7.8c0.4,0,0.7-0.3,0.7-0.7c0-0.4-0.3-0.7-0.7-0.7c-0.4,0-0.7,0.3-0.7,0.7v0C55.2,7.5,55.5,7.8,55.9,7.8"
  />
  <path
    class="st1"
    d="M54.2,8.3c0.4,0,0.7-0.3,0.7-0.7s-0.3-0.7-0.7-0.7s-0.7,0.3-0.7,0.7c0,0,0,0,0,0C53.5,8,53.8,8.3,54.2,8.3"
  />
  <path
    class="st1"
    d="M52.8,9.5c0.4,0,0.7-0.3,0.7-0.7c0-0.4-0.3-0.7-0.7-0.7c-0.4,0-0.7,0.3-0.7,0.7v0C52.1,9.2,52.4,9.5,52.8,9.5"
  />
  <path
    class="st1"
    d="M57.7,7.9c0.4,0,0.7-0.3,0.7-0.7c0-0.4-0.3-0.7-0.7-0.7c-0.4,0-0.7,0.3-0.7,0.7v0C57,7.6,57.3,7.9,57.7,7.9"
  />
  <path
    class="st1"
    d="M59.5,8.4c0.4,0,0.7-0.3,0.7-0.7c0-0.4-0.3-0.7-0.7-0.7c-0.4,0-0.7,0.3-0.7,0.7v0C58.8,8.1,59.1,8.4,59.5,8.4"
  />
  <path
    class="st1"
    d="M61.1,9.2c0.4,0,0.7-0.3,0.7-0.7c0-0.4-0.3-0.7-0.7-0.7s-0.7,0.3-0.7,0.7c0,0,0,0,0,0
	C60.4,8.9,60.7,9.2,61.1,9.2"
  />
  <path
    class="st1"
    d="M73.6,10.4c0,0.4,0.3,0.7,0.7,0.7c0.4,0,0.7-0.3,0.7-0.7c0-0.4-0.3-0.7-0.7-0.7l0,0
	C73.9,9.7,73.6,10.1,73.6,10.4"
  />
  <path
    class="st1"
    d="M74.5,11.4c-0.4,0-0.7,0.3-0.7,0.7c0,0.4,0.3,0.7,0.7,0.7c0.4,0,0.7-0.3,0.7-0.7C75.2,11.8,74.9,11.4,74.5,11.4
	C74.5,11.4,74.5,11.4,74.5,11.4"
  />
  <path
    class="st1"
    d="M74.2,13.1c-0.4,0-0.7,0.3-0.7,0.7c0,0.4,0.3,0.7,0.7,0.7c0.4,0,0.7-0.3,0.7-0.7C74.9,13.4,74.6,13.1,74.2,13.1
	"
  />
  <path
    class="st1"
    d="M70.4,7.8c0.4,0,0.7-0.3,0.7-0.7c0-0.4-0.3-0.7-0.7-0.7c-0.4,0-0.7,0.3-0.7,0.7v0C69.7,7.5,70,7.8,70.4,7.8"
  />
  <path
    class="st1"
    d="M72.2,8.3c0.4,0,0.7-0.3,0.7-0.7s-0.3-0.7-0.7-0.7c-0.4,0-0.7,0.3-0.7,0.7c0,0,0,0,0,0
	C71.5,8,71.8,8.3,72.2,8.3"
  />
  <path
    class="st1"
    d="M73.5,9.5c0.4,0,0.7-0.3,0.7-0.7c0-0.4-0.3-0.7-0.7-0.7c-0.4,0-0.7,0.3-0.7,0.7C72.8,9.2,73.2,9.5,73.5,9.5"
  />
  <path
    class="st1"
    d="M68.6,7.9c0.4,0,0.7-0.3,0.7-0.7c0-0.4-0.3-0.7-0.7-0.7c-0.4,0-0.7,0.3-0.7,0.7v0C67.9,7.6,68.2,7.9,68.6,7.9"
  />
  <path
    class="st1"
    d="M66.9,8.4c0.4,0,0.7-0.3,0.7-0.7c0-0.4-0.3-0.7-0.7-0.7c-0.4,0-0.7,0.3-0.7,0.7C66.2,8.1,66.5,8.4,66.9,8.4"
  />
  <path
    class="st1"
    d="M64.5,8.5c0,0.4,0.3,0.7,0.7,0.7c0.4,0,0.7-0.3,0.7-0.7c0-0.4-0.3-0.7-0.7-0.7C64.8,7.8,64.5,8.1,64.5,8.5
	C64.5,8.5,64.5,8.5,64.5,8.5"
  />
  <path class="st1" d="M62,12.3h0.8v-3c-0.3,0-0.5-0.1-0.8-0.2V12.3z" />
  <path class="st1" d="M64.4,9c-0.3,0.1-0.5,0.2-0.8,0.2v3h0.8V9z" />
  <path class="st1" d="M62.7,5.7V4c-0.9,0.2-1.6,0.9-1.7,1.8L62.7,5.7z" />
  <path class="st1" d="M63.6,5.7h1.7c-0.2-0.9-0.8-1.6-1.7-1.8V5.7z" />
  <path
    class="st1"
    d="M61,6.6c0.3,1.2,1.4,1.9,2.6,1.7c0.8-0.2,1.5-0.8,1.7-1.7H61z"
  />
  <path
    class="st1"
    d="M64.4,3.7c-0.5-0.4-0.8-0.9-0.9-1.5c0.6,0.1,1.2,0.5,1.6,1V0.7c-0.4,0.5-1,0.9-1.6,1c0.1-0.7,0.5-1.3,0.9-1.7
	H62c0.5,0.5,0.8,1.1,0.9,1.7c-0.6-0.1-1.2-0.5-1.6-1v2.4c0.4-0.5,1-0.9,1.6-1c-0.1,0.6-0.5,1.2-1,1.5L64.4,3.7z"
  />
  <path
    class="st1"
    d="M64.4,54c-0.5,0-0.9-0.4-0.9-0.9s0.4-0.9,0.9-0.9c0.5,0,0.9,0.4,0.9,0.9c0,0,0,0,0,0C65.3,53.6,64.9,54,64.4,54
	C64.4,54,64.4,54,64.4,54 M60.3,52.7c-0.5-0.1-0.9-0.5-0.8-1c0-0.4,0.4-0.8,0.8-0.8c0.5-0.1,1,0.3,1,0.8c0.1,0.5-0.3,1-0.8,1
	C60.4,52.7,60.4,52.7,60.3,52.7 M58.9,48.5l-0.2-0.2c-0.3-0.3-0.8-0.3-1.2,0c0,0,0,0,0,0c-0.2,0.2-0.4,0.3-0.5,0.5l-0.2,0.3l0.2,0.1
	c0.4,0.4,0.5,0.8,0.4,1c-0.1,0.1-0.1,0.2-0.2,0.2c-0.3,0-0.6,0-0.9-0.2L56,50.1l-0.1,0.2l-0.1,0.1l-0.1,0.2
	c-0.2,0.2-0.3,0.5-0.3,0.8c0,0.1,0,0.1,0,0.2c0.1,0.2,0.2,0.4,0.4,0.5l0.1,0.1l0.7,0.4c-0.4,0.2-0.8,0.2-1.2,0
	c-0.5-0.3-0.9-0.7-1-1.3c0-0.7,0.3-1.3,0.7-1.9l0.1-0.1l-0.1-0.1c-0.1-0.2-0.2-0.4-0.3-0.6c0.2,0,0.5,0.1,0.7,0.1h0.1l0.1-0.1
	c0.5-0.6,1.2-1.1,2-1.2c0.4,0,0.8,0.2,1.1,0.5c0.2,0.2,0.3,0.5,0.4,0.8C59,48.6,58.9,48.5,58.9,48.5 M66.9,51.7
	c-2.5-0.7-4.9-1.5-7.3-2.6l0,0c0.1-0.5-0.1-1.1-0.5-1.5c-0.3-0.4-0.8-0.7-1.4-0.7c-0.2,0-0.5,0-0.7,0.1c-0.4-0.3-0.7-0.6-1-1
	c-0.9-1.1-1.7-2.4-2.2-3.8c-0.3-0.8-0.5-1.6-0.6-2.5c-0.3,1-1.2,1.7-2.3,1.7c0-0.1,0-0.5-0.1-0.5c-0.5,0.6-1.4,0.8-2.2,0.4
	c0.2,1,0.5,1.9,0.8,2.9c0.7,2,1.8,3.8,3.2,5.3c0.4,0.5,0.9,1,1.4,1.4c0,0.1,0,0.2,0,0.3c0.1,0.7,0.6,1.4,1.2,1.7
	c0.6,0.3,1.3,0.2,1.8-0.2c1.2,0.6,2.6,1.1,3.9,1.5c1.5,0.4,3,0.7,4.5,0.7c1.4-0.1,2.7-0.6,3.9-1.4c0.5-0.3,1-0.7,1.5-1.1l0.1-0.1
	C69.6,52.4,68.2,52.2,66.9,51.7"
  />
  <path
    class="st1"
    d="M66.3,60.8c-0.1-0.2-0.3-0.4-0.6-0.5c-0.9,0-0.5,2.4-1.6,2.4c-0.4,0-0.7-0.2-0.7-0.6c0,0,0,0,0-0.1
	c0-0.3,0.2-0.4,0.2-0.7S63.4,61,63.2,61s-0.4,0.1-0.4,0.4S63,61.7,63,62c0,0.4-0.3,0.6-0.6,0.6c0,0-0.1,0-0.1,0
	c-1.1,0-0.7-2.4-1.6-2.4c-0.3,0-0.5,0.2-0.6,0.5c-0.2-0.3-0.3-0.6-0.3-0.9c0-0.6,0.4-1,1-1c1.2,0,0.9,1.6,1.5,1.6
	c0.2,0,0.4-0.1,0.4-0.4c0,0,0,0,0,0c0-0.5-0.8-0.9-0.8-1.6s0.6-1.2,1.3-1.8c0.7,0.5,1.3,1.1,1.3,1.8s-0.8,1.1-0.8,1.6
	c0,0.2,0.2,0.4,0.4,0.4c0,0,0,0,0,0c0.6,0,0.3-1.6,1.5-1.6c0.6,0,1,0.4,1,1C66.5,60.2,66.4,60.5,66.3,60.8 M63.1,64.1
	c-0.3,0-0.6-0.3-0.5-0.7c0-0.3,0.2-0.5,0.5-0.5c0.3,0,0.6,0.2,0.7,0.5c0,0.3-0.2,0.6-0.5,0.7C63.2,64.1,63.2,64.1,63.1,64.1
	 M65.5,58.3c-0.2,0-0.3,0-0.4,0.1v-2.6c-1.3,0-2.6-0.2-3.9-0.6v3.3c-0.1,0-0.3-0.1-0.5-0.1c-0.8,0-1.5,0.7-1.5,1.5
	c0,0.6,0.3,1.2,0.7,1.7c0.2-0.4,0.3-0.7,0.6-0.7c0.5,0,0.2,2.3,1.6,2.3c0,0.1-0.1,0.2-0.1,0.4c0,0.6,0.5,1,1,1c0.6,0,1-0.5,1-1
	c0-0.1,0-0.3-0.1-0.4c1.3-0.1,1.1-2.3,1.6-2.3c0.2,0,0.4,0.3,0.6,0.7c0.4-0.5,0.7-1.1,0.7-1.7C67,59,66.3,58.4,65.5,58.3"
  />
  <path
    class="st1"
    d="M96.6,61.5c-0.1-0.1-0.2-0.2-0.4-0.2c-3.1,0.9-6.9-1.7-10.6-4.1c-3.1-2.1-6.1-4-8.6-4c-0.9,0-1.7,0.2-2.5,0.6
	c-0.9,0.5-1.6,1.3-2,2.3c-0.3,0.8-0.8,1.6-1.2,2.3c-0.4,0.5-0.7,1.1-0.7,1.8c0,0.5,0.3,1,0.6,1.4c0.5,0.4,1,0.8,1.6,1.1l0.5,0.2
	c0.6,0.3,1,0.5,1.1,0.8c-1.5,0.6-3,1.1-4.6,1.3c-4.4,0.7-8.8,0.7-13.2,0c-1.6-0.2-3.1-0.7-4.6-1.3c0-0.5,0.4-0.7,1.1-1l0.5-0.2
	c0.6-0.3,1.1-0.6,1.6-1c0.4-0.3,0.6-0.8,0.6-1.3c-0.1-0.7-0.3-1.3-0.7-1.8c-0.5-0.7-0.9-1.5-1.2-2.3c-0.4-1-1.1-1.8-2-2.3
	c-0.8-0.4-1.6-0.6-2.5-0.6c-2.5,0-5.5,2-8.6,4c-3.7,2.5-7.5,5-10.6,4.1c-0.1,0-0.3,0-0.3,0.2c-0.1,0.1,0,0.3,0.1,0.4
	c0.9,0.5,1.8,1,2.6,1.7c1.1,0.9,2.2,1.7,3.3,1.7c1.3-0.1,2.6-0.4,3.7-1.1c1.3-0.7,2.6-1.5,3.8-2.4c2.4-1.7,5-3.4,7.4-3.6
	c-0.2,0.3-0.5,0.5-0.7,0.7c-0.8,0.5-1.3,1.4-1.3,2.3c0,0.8,0.3,1.6,0.7,2.4c0.1,0.2,0.3,0.5,0.4,0.8c0.2,0.6,0.4,1.1,0.5,1.7
	c0.1,0.3,0.1,0.6,0.2,1c0.3,1.1,1.1,2.1,2.2,2.5c2,1,5.5,1.6,10.4,1.6s8.4-0.5,10.4-1.6c1.1-0.4,1.9-1.4,2.2-2.5
	c0.1-0.4,0.2-0.7,0.2-1c0.1-0.6,0.3-1.2,0.5-1.7c0.2-0.4,0.4-0.8,0.5-1.1c0.4-0.6,0.6-1.3,0.6-2c-0.1-1-0.6-1.8-1.4-2.3
	c-0.2-0.2-0.5-0.4-0.7-0.7c2.4,0.2,4.9,1.9,7.4,3.6c1.2,0.9,2.5,1.7,3.8,2.4c1.1,0.7,2.4,1,3.7,1.1c1.2,0,2.2-0.8,3.3-1.7
	c0.8-0.7,1.6-1.2,2.6-1.7C96.5,61.8,96.6,61.7,96.6,61.5C96.5,61.5,96.5,61.5,96.6,61.5"
  />
  <path
    class="st1"
    d="M63.6,37.5V25.9c1.2,0.1,2.4,0.4,3.5,0.9c1.2,0.6,2.3,1.5,3.2,2.5c0.9,1.1,1.7,2.4,2.2,3.8
	c0.5,1.4,0.8,2.9,0.8,4.4L63.6,37.5z M63.2,21.1c-2.4-0.1-4.8,0.6-6.9,1.8c-0.8-0.4-1.1-0.9-1.1-1.4c0-1.9,5.3-2,8-2l0,0
	c2.7,0,8,0.2,8,2c0,0.5-0.3,1-1.1,1.4C68.1,21.6,65.7,21,63.2,21.1 M63.1,37.5h-9.9c0-1.5,0.3-3,0.8-4.4c0.5-1.4,1.2-2.6,2.2-3.8
	c0.9-1.1,2-1.9,3.2-2.5c1.2-0.6,2.4-0.9,3.7-0.9L63.1,37.5z M78.1,36.8c-0.5-0.4-0.9-0.8-1.2-1.4c-0.4-0.8-1.9-3.8-2.1-4.2
	c-0.2-0.3-0.3-0.6-0.3-0.9c0-0.3,0.1-0.6,0.3-0.8c0.1-0.2,0.4-0.5,0.6-0.7c0.1-0.1,0.2-0.2,0.3-0.4c-1.2-2-2.9-3.8-4.9-5.1
	c0.7-0.4,1.1-1.1,1.2-1.8c0-0.5-0.2-1-0.6-1.3c0.6-2,1.5-3.8,2.7-5.4l-2-0.8c0.4,0.7,0.6,1.5,0.4,2.2c-0.5-0.3-0.9-0.9-1.1-1.5
	c-0.1,0.7-0.4,1.5-0.7,2.2c0.5-0.3,1.1-0.4,1.6-0.1c-0.6,0.8-1.6,1.1-2.5,0.8c-0.7-0.2-1.4-0.5-1.4-1.1c0-0.4,0.3-0.7,0.7-0.7
	c0,0,0,0,0,0c0.4,0.1,0.5,0.7,0.3,1c0.6-0.3,1.2-2,0.3-2.2c-0.7-0.2-1.3,0.8-1.6,1.5c-0.1-0.9-0.5-1.7-1.2-1.7
	c-0.9,0.1-0.6,1.7-0.3,2.2c0.1-0.6,0.4-0.9,0.6-0.9c0.3,0,0.6,0.2,0.5,0.7c-0.1,0.5-0.8,0.9-1.7,0.9c-1.2,0.2-2.3-0.7-2.4-1.8
	c0,0,0,0,0,0c0.7,0.1,1.3,0.5,1.8,1c-0.1-0.9-0.1-1.8,0-2.7c-0.4,0.6-1,0.9-1.7,1.1c0.2-0.8,0.7-1.4,1.4-1.9h-3.6
	c0.7,0.4,1.2,1.1,1.4,1.8c-0.7-0.1-1.3-0.5-1.7-1c0.1,0.9,0.1,1.8,0,2.7c0.5-0.5,1.1-0.9,1.7-1c-0.1,1.2-1.2,2-2.4,1.9c0,0,0,0,0,0
	c-0.9,0-1.6-0.3-1.7-0.9c-0.1-0.5,0.3-0.7,0.5-0.7c0.2,0,0.6,0.3,0.6,0.9c0.3-0.4,0.6-2.1-0.3-2.2c-0.7-0.1-1.1,0.8-1.2,1.7
	c-0.2-0.7-0.9-1.7-1.6-1.5c-0.9,0.2-0.3,1.9,0.3,2.2c-0.1-0.3-0.1-0.9,0.3-1c0.4,0,0.7,0.3,0.7,0.6c0,0,0,0,0,0.1
	c0,0.5-0.7,0.9-1.4,1.1c-0.9,0.2-1.9-0.1-2.5-0.8c0.5-0.2,1.1-0.2,1.6,0.1c-0.3-0.7-0.6-1.4-0.7-2.2c-0.2,0.6-0.6,1.2-1.1,1.5
	c-0.1-0.8,0-1.6,0.4-2.2l-2,0.8c1.2,1.6,2.1,3.5,2.7,5.4c-0.4,0.3-0.6,0.8-0.6,1.3c0,0.8,0.5,1.5,1.2,1.8c-1.1,0.7-2.1,1.6-3,2.6
	c-1.4,1.6-2.4,3.3-3.2,5.3c0.3,0.3,1.5,1.6,1.7,1.9c0.4,0.5,0.7,1.1,0.8,1.7c0,0.7,0.2,1.4,0.7,1.9c0.2,0.4,0.4,0.9,0.4,1.3h9.9
	v10.7c-0.4,0-0.9,0.2-1.1,0.5c1.1,0.5,2.2,0.9,3.3,1.2c0-0.6,0.2-1.1,0.6-1.6c0,0-1.4-0.1-2.2-0.2V38.1h9.6c0,1.4-0.3,2.9-0.8,4.2
	c-0.5,1.4-1.2,2.6-2.2,3.8c-0.9,1-2,1.9-3.2,2.5c-0.2,0.1-0.2,0.2-0.4,0.3c-0.2,0.3-0.4,0.6-0.5,0.9c-0.1,0.3-0.2,0.7-0.2,1
	c0.4,0.1,0.7,0.2,1.1,0.3c3.4,0.8,4.2,0.6,4.4,0.4l0,0c0.8-0.6,1.5-1.3,2.1-2c1.4-1.6,2.5-3.4,3.2-5.3c0.8-2.1,1.2-4.3,1.2-6.5
	C78.1,37.3,78.1,37.2,78.1,36.8"
  />
  <path
    class="st1"
    d="M69,30.6c-0.1,0.1-0.1,0.2-0.1,0.3c0,0.1,0.2,0.2,0.3,0.2c-0.1,0.1-0.2,0.3-0.2,0.4c0.2,0,0.3,0,0.4-0.1
	c0,0.1,0,0.3,0.1,0.3c0.1,0,0.2,0,0.3,0c0.7,1.2,1.2,2.5,1.4,3.9c-0.1-0.1-0.2-0.2-0.3-0.1s-0.2,0.2-0.1,0.3
	c0.1,0.1,0.2,0.2,0.3,0.1h-2.4c0-0.1-0.1-0.3-0.2-0.3c-0.1,0-0.2,0-0.3,0.1c0-0.2-0.1-0.3-0.2-0.4c-0.1,0.1-0.2,0.3-0.2,0.4
	c-0.1-0.1-0.2-0.2-0.4-0.1c-0.1,0.1-0.1,0.2-0.1,0.3h-2.1c0.1-0.1,0.2-0.3,0.1-0.4c-0.2,0-0.3,0-0.4,0.2v-3.3c0.1,0,0.3,0,0.3-0.2
	c0-0.1,0-0.3-0.1-0.3c0.2,0,0.3-0.1,0.4-0.2c-0.1-0.1-0.3-0.2-0.4-0.2c0.1-0.1,0.2-0.2,0.1-0.3c-0.1-0.1-0.2-0.2-0.3-0.2v-2.8
	c0,0.1,0.1,0.2,0.3,0.2c0.1,0,0.2-0.1,0.2-0.3c0-0.1-0.1-0.2-0.2-0.2c0.7,0.2,1.3,0.5,1.9,0.9C67.8,29.3,68.4,29.9,69,30.6
	 M71.7,35.6c0.1,0.1,0.1,0.2,0.1,0.3c0,0.1-0.1,0.1-0.2,0.1c-0.2-1.8-0.8-3.4-1.8-4.9l0,0c0.2-0.1,0.4-0.3,0.4-0.5
	c-0.2,0-0.5,0.1-0.6,0.3l-0.2-0.3c-0.6-0.8-1.3-1.4-2.1-1.9c-0.7-0.5-1.5-0.8-2.3-1.1c0-0.2,0.3-0.2,0.4,0c0-0.3-0.2-0.5-0.4-0.4
	c-0.1,0-0.2,0.1-0.2,0.2c-0.1-0.1-0.3-0.2-0.4-0.2c0,0.2,0,0.3,0.1,0.5c-0.1,0-0.2,0-0.2,0.1c-0.1,0.2,0,0.4,0.2,0.4
	c0,0,0.1,0,0.1,0c-0.1-0.1-0.1-0.2,0-0.3c0,0,0.1-0.1,0.1-0.1v3.8c-0.2-0.1-0.5,0-0.6,0.2c0.2,0.2,0.4,0.2,0.6,0.2V36
	c-0.1,0-0.2-0.1-0.2-0.2c0-0.1,0-0.1,0.1-0.1c-0.3,0-0.4,0.3-0.4,0.4c0.1,0.1,0.2,0.2,0.3,0.1c-0.1,0.1-0.2,0.3-0.2,0.4
	c0.2,0,0.3-0.1,0.4-0.2c0,0.1,0,0.3,0.1,0.3c0.2,0,0.4-0.1,0.4-0.3c0,0,0-0.1,0-0.1c-0.1,0.1-0.2,0.1-0.3,0.1c0,0-0.1-0.1-0.1-0.1
	h2.8c-0.1,0.2,0,0.5,0.2,0.6c0.2-0.2,0.2-0.4,0.2-0.6h3.2c0,0.1-0.1,0.2-0.2,0.2c-0.1,0-0.1,0-0.2-0.1c0,0.3,0.3,0.4,0.4,0.3
	c0.1-0.1,0.2-0.2,0.1-0.3c0.1,0.1,0.3,0.2,0.4,0.1c0-0.2-0.1-0.3-0.2-0.4c0.1,0,0.3,0,0.3-0.1c0-0.2-0.1-0.4-0.3-0.4
	C71.8,35.7,71.7,35.7,71.7,35.6"
  />
  <path
    class="st1"
    d="M70,34.6c0.1,0,0.2-0.1,0.3-0.2c-0.1,0-0.2,0-0.3,0c0.1-0.1,0.2,0,0.1-0.2C70,34,69.9,34,69.8,34.1
	c-0.4,0.1-0.7-0.1-0.9-0.5c0,0,0-0.1,0-0.1c0.1,0.1,0.2,0.2,0.3,0.2l0.1,0h0.1c0.1,0,0.1,0,0.2,0l0,0l0,0c0.2,0,0.3-0.1,0.3-0.3
	c0-0.3-0.3-0.5-0.6-0.7L69,32.4c-0.1-0.2,0-0.4-0.3-0.8c0-0.1,0-0.2-0.1-0.4c-0.2,0.4-0.1,0.9,0.2,1.2c0.3,0.3,1,0.7,1,1
	c0,0.1-0.1,0.1-0.2,0.2h-0.1h-0.1c-0.1,0-0.1,0-0.1-0.1c-0.1,0-0.2-0.1-0.2-0.2c-0.3-0.3-0.5-0.6-0.7-0.9c-0.2-0.3-0.3-0.8-0.1-1.1
	c0.2-0.3-0.1-0.9-0.3-1.1c0-0.1,0-0.2,0-0.3c-0.1,0-0.1,0-0.2,0c-0.1-0.1-0.1-0.1-0.2-0.1s-0.1-0.1-0.1-0.2c0-0.1-0.1,0.1-0.2,0.2
	c-0.1,0-0.2,0-0.2,0c-0.1,0.1-0.2,0.1-0.2,0.1c-0.1,0-0.1,0.1-0.1,0.2c0,0.1,0,0.2,0.1,0.2l0,0l0.1,0.1l0.1-0.1
	c0.1,0,0.2-0.1,0.2,0.1c0,0.1,0,0.1-0.1,0.1h-0.3c-0.1,0-0.1,0.1-0.1,0.1s0.1,0.1,0.2,0.1c0.2,0,0.4-0.1,0.4,0.1
	c0,0.3-0.4,0.3-0.5,0.7c-0.1-0.1-0.2-0.1-0.2-0.2c-0.1-0.1-0.2-0.2-0.3-0.3c-0.1-0.1-0.2-0.2-0.3-0.2c-0.1-0.1-0.2-0.2-0.1-0.3
	c0-0.1,0.1-0.2,0.1-0.3v-0.1c0-0.1-0.1-0.1-0.2-0.1c0,0,0.1,0.1,0.1,0.1l-0.1,0.1c0,0,0,0.1,0,0.1c0,0,0,0,0,0l0,0c0,0,0,0,0,0.1
	l0,0c0,0-0.1-0.2-0.1-0.2l0,0l0,0c0-0.1-0.1-0.2-0.2,0s0.1,0,0.1,0c0,0,0,0.1,0,0.1c0,0.1,0.1,0.1,0.2,0.1c0.1,0,0,0,0,0l0,0l0,0
	c0,0-0.2,0-0.2,0.1c0,0,0,0,0,0.1c-0.1,0-0.1,0.1,0,0.2c0.1,0.1,0-0.1,0-0.1l0,0l0,0c0,0,0,0,0.1,0l0,0h0.1l0,0
	c-0.1,0.1-0.1,0.2,0,0.2c-0.1,0.1-0.2,0.1-0.2-0.1c-0.1,0.2,0.1,0.4,0.3,0.3c0,0.1,0,0.2,0,0.2l0,0l0,0c0,0,0,0.1,0.1,0.1 M65.7,31
	c0,0,0.1,0.1,0.1,0.2c0.1,0.3,0.4,0.6,0.7,0.7c-0.2,0.1-0.4,0.3-0.5,0.5c-0.1,0.1-0.3,0.2-0.4,0.2c-0.1-0.1-0.1-0.1-0.1-0.1
	c0,0-0.1,0-0.1,0h-0.1c-0.1,0-0.2,0-0.2,0.1c0,0,0.1,0,0.1,0v0.1c0,0,0,0.1,0.2,0.1l0,0c0,0-0.1,0-0.1,0c-0.1,0-0.1-0.1-0.2,0v0.1
	l0,0c-0.1,0-0.2,0.2-0.1,0.2c0-0.1,0-0.1,0.1-0.1l0.1,0.1c0.1,0.1,0.1,0.1,0.3-0.1l0,0c0,0-0.1,0.2,0,0.3h0.1l0,0
	c0,0.1,0.1,0.2,0.2,0.1c-0.1,0-0.1-0.1-0.1-0.1h0.1c0.1-0.1,0-0.2,0-0.2s0,0,0,0s0.1,0.1,0.2,0.1c0,0,0.1-0.1,0.1-0.1
	c0.1-0.1,0.2-0.1,0.4-0.1c0-0.1,0.1-0.2,0.2-0.2c0.1,0,0.2,0,0.3,0.1c0-0.1,0.1-0.2,0.1-0.3c0,0.6,0.8,0.6,1,1
	c-0.2-0.1-0.4-0.1-0.7-0.1c-0.2,0-0.5,0.2-0.6,0.4c0,0.3,0.1,0.5,0.4,0.6c-0.2,0-0.3,0-0.5,0l0,0c-0.2,0-0.2-0.3-0.4-0.2
	c0,0-0.1,0-0.1,0.1l0,0c-0.1,0-0.2,0.1-0.2,0.2c0,0,0.1-0.1,0.1-0.1l0,0c0,0,0,0.1,0.1,0.1s0.1,0,0.1,0s0,0,0,0s-0.3,0-0.2,0.2v0.1
	c0,0.1,0.1,0.1,0.2,0.1c0.1,0-0.1,0-0.1-0.1h0.1l0,0l0,0l0,0l0,0c0,0,0,0,0,0.1c0,0.1,0.1,0.2,0.2,0.1c0.1-0.1-0.1,0-0.1-0.1h0.1
	c0,0,0-0.1,0-0.1l0,0h0.1l0,0c0,0.1,0.1,0.1,0.2,0.1c0.1,0,0.1,0,0.1-0.1c0,0,0.1,0,0.1,0.1c0-0.1,0-0.2,0.2,0l0.1-0.1
	c0,0,0.2,0.1,0.2,0s0.1-0.1,0.1-0.2s-0.1-0.2-0.2-0.3c0-0.2,0.4-0.5,0.6-0.4c0.1,0.4,0.4,0.7,0.8,0.8c0.3,0.1,0.4-0.2,0.5-0.2
	c0,0,0,0.1,0,0.1c0,0.1,0,0.2,0,0.3c0,0.1-0.2,0-0.3,0c0,0-0.1,0-0.1,0c-0.1,0-0.2,0.1-0.2,0.2c0,0,0.1-0.1,0.2-0.1l0,0
	c0,0.1,0.1,0.1,0.1,0.1c0,0,0.1,0,0.1,0l0,0c0,0-0.2,0.2-0.1,0.2h0.1c0,0.1,0,0.1,0.1,0.2c0,0,0-0.1,0-0.2h0.6c0.1,0,0-0.1,0.1-0.2
	l0,0c0,0.1,0,0.2,0,0.2h0.1c0,0.1,0.1,0.1,0.2,0.1c0,0-0.1,0-0.1-0.1l0.1-0.1c0.1-0.2-0.1-0.2-0.1-0.3s0.2,0,0.2-0.2l0,0
	c0.1,0,0.2-0.1,0.2-0.2c-0.1,0-0.2,0-0.2,0L65.7,31z"
  />
  <path
    class="st1"
    d="M61,39.9h-0.1c-0.2,0-0.3,0.1-0.4,0.3c0,0,0,0,0,0c0,0.2,0.1,0.3,0.3,0.3c0,0,0,0,0.1,0H61c0,0,0,0.1,0,0.1
	c-0.1,0.3-0.1,0.8-0.2,1.3l-1.5-2.1c0.5-0.3,1-0.5,1.5-0.6C61.1,39.3,61.1,39.5,61,39.9 M60.5,43.6l-2.3-3.3
	c0.3-0.1,0.5-0.1,0.7-0.2l1.7,2.5C60.6,42.9,60.6,43.3,60.5,43.6 M60.3,45.1L57,40.4h0.3c0.2,0,0.3,0,0.5,0l2.6,3.8
	C60.4,44.5,60.3,44.9,60.3,45.1 M56.5,40.4l3.6,5.2C58.2,44.9,56.3,43.1,56.5,40.4 M61.9,40h-0.2v-0.2c0.1-0.5-0.3-0.9-0.8-1
	c-0.1,0-0.1,0-0.2,0c-0.5,0-1.6,0.7-3.1,0.7c-0.7,0-1.3-0.2-1.9-0.6l-0.2,0.4l0,0c0-0.2-0.2-0.4-0.4-0.4c-0.2,0-0.4,0.2-0.4,0.4
	c0,0.2,0.2,0.4,0.4,0.4c0,0,0,0,0,0c0.1,0,0.2-0.1,0.3-0.1l-0.2,0.4l0.2,0.1c0,2.8,1.8,5.2,4.4,6c0.4-0.1,0.9,0,0.9,0.4
	c0,0.2-0.1,0.4-0.3,0.4c0,0-0.1,0-0.1,0c-0.2,0-0.3-0.1-0.3-0.2s0.4-0.1,0.4-0.2c0-0.1-0.1-0.3-0.3-0.3c-0.3,0-0.5,0.2-0.5,0.5
	c0,0,0,0,0,0c0,0.4,0.3,0.6,0.6,0.7c0,0,0,0,0.1,0c0.5,0,0.9-0.3,0.9-0.8c0-0.1,0-0.1,0-0.2c0.2,0,0.3,0,0.4-0.2v-0.5h-0.2l0.1-5.2
	h0.1c0.2,0,0.3-0.1,0.4-0.2c0,0,0,0,0-0.1C62.2,40.2,62.1,40,61.9,40"
  />
  <path
    class="st1"
    d="M59.3,29C59.3,29,59.3,28.9,59.3,29c0.1-0.1,0.1-0.1,0.1-0.1s0-0.1-0.1-0.1c-0.1,0,0.1,0,0-0.1
	c-0.1-0.1-0.1,0-0.1,0s0,0,0,0 M59.3,28.8l0.2,0.1l0,0c0,0,0,0.1,0,0.1s0-0.1,0-0.1s0,0,0,0.1c0,0.1-0.1,0-0.1,0c0,0,0,0.1,0,0.1
	c0,0,0,0.1,0,0.1c0,0-0.1,0.1-0.1,0.1c0,0,0,0,0,0c0,0,0-0.1,0-0.2 M59.5,28.5c0,0-0.1,0.1-0.1,0c-0.1-0.1,0-0.1-0.1-0.2L59.5,28.5
	 M59.6,28.6c0.1,0,0.1,0.1,0.2,0.1c-0.1,0-0.1,0.1-0.1,0.1C59.6,28.7,59.6,28.6,59.6,28.6 M59.1,28.7L59.1,28.7 M61.3,29.5
	c0.7,0,1-0.2,1-0.4c0-0.8-1.9-0.3-1.9-0.8c0-0.1,0.1-0.2,0.1-0.2l0,0c1-0.1,1-0.8,1.7-0.9c-0.8-0.1-1,0.5-1.3,0.6
	c0.1-0.1,0.2-0.2,0.2-0.4c-0.2,0.2-0.5,0.2-0.8,0.5c0,0,0,0.1,0,0.1c-0.1,0.1-0.2,0.2-0.2,0.3c0,0.7,2,0.2,2,0.8
	c0,0.2-0.3,0.3-0.9,0.3c-0.5,0-0.7-0.3-1.4-0.1c0-0.1,0.3-0.4,0.2-0.5c0.1,0,0.1-0.1,0.1-0.2c0,0-0.1-0.1-0.1-0.1c0,0,0-0.1,0-0.1
	c0,0,0-0.1,0-0.1c-0.1,0-0.1-0.1-0.2-0.1c-0.1,0-0.1,0-0.2,0c0,0-0.1,0-0.1,0c-0.1,0-0.1,0-0.1,0c0,0-0.1-0.1-0.1-0.1
	c0,0.1,0,0.1,0,0.2c-0.1,0-0.1,0.2-0.2,0.2s0,0.1,0.1,0.1S59,28.9,59,28.9c-0.1,0,0,0,0,0c0,0.1-0.1,0.3-0.1,0.4l0,0
	c0,0-0.1-0.1-0.1-0.1c-0.1-0.1-0.1-0.1-0.1-0.2c0-0.1,0.1-0.2,0.1-0.3s0-0.1,0-0.1c0-0.1-0.1-0.1-0.1-0.1c0,0,0,0.1,0,0.1h-0.1
	c0,0,0,0.1,0,0.1s0,0,0,0l0,0l0,0c0,0,0-0.2-0.1-0.2h-0.1l0,0c0-0.1-0.1-0.1-0.2,0c-0.1,0.1,0.1,0,0.1,0c0,0,0,0.1,0,0.1
	c0,0.1,0,0.1,0.1,0.1l0,0l0,0l0,0c0,0-0.2,0-0.2,0l0,0c0,0-0.1,0.1,0,0.2c0.1,0.1,0-0.1,0-0.1l0,0l0,0c0,0,0,0,0.1,0l0,0l0,0l0,0
	c0,0-0.1,0.2,0,0.2c0.1,0,0,0,0,0c0,0.1,0,0.1-0.1,0.1c-0.1,0-0.1,0-0.1-0.1c0,0,0,0,0-0.1c-0.1,0.2,0,0.3,0.2,0.2l0,0
	c0,0,0,0.1,0.1,0.1l0,0l0,0c0,0,0,0.1,0.1,0.1s0-0.1,0-0.1s0.1,0.1,0.2,0.2c-0.1,0.1-0.3,0.1-0.4,0.1c-0.1,0-0.2,0-0.3,0
	c-0.1,0.1-0.4,0.2-0.5,0c-0.1-0.2,0-0.1,0-0.1c0,0-0.1-0.1-0.1-0.1h-0.1c0,0-0.1-0.1-0.2,0c0,0,0.1,0,0.1,0.1l0,0c0,0,0,0.1,0.2,0.1
	l0,0c0,0-0.1,0-0.1,0c-0.1,0-0.1-0.1-0.2-0.1H57l0,0c-0.1,0-0.2,0.1-0.1,0.2c0,0,0.1-0.1,0.1-0.1l0,0c0,0,0,0.2,0.2,0l0,0
	c0,0-0.2,0.1-0.1,0.2l0,0l0,0c0,0,0.1,0.2,0.1,0.2c0,0-0.1-0.1-0.1-0.1h0.1c0.1,0,0-0.1,0.1-0.2c0.1,0,0,0,0,0s0,0.1,0.1,0.1
	c0.1,0,0.1-0.1,0.1-0.1l0,0c0,0,0.1,0.1,0.1,0.1c0,0,0.1,0,0.1-0.1c0,0.1,0,0.1,0,0.2c0.1,0,0.1-0.1,0.2-0.2l0,0l0,0
	c0.1,0,0.1,0,0.2,0l0,0c0,0,0,0.1,0,0.1l0,0c0,0,0,0.1,0.1,0.2c0-0.3,0.2-0.2,0.3-0.3c0.2-0.1,0,0,0,0c0,0,0,0.1-0.1,0.1
	c0.1,0,0.2-0.1,0.2-0.2c0-0.1,0.1,0,0.1-0.1c0.1,0,0.2,0,0.2-0.1c0,0,0,0.1,0,0.1c0.2,0,0.4-0.2,0.4-0.2c0.4-0.1-0.2-0.3,0.5-0.3
	c0.1,0,0.2,0,0.2-0.1c-0.1,0.1-0.1,0.3,0.1,0.4c0.1,0,0.1,0,0.2,0.1l0,0c-0.1,0-0.1,0-0.2,0c-0.2,0.1-0.2-0.3-0.4-0.2l0,0
	c0,0-0.2,0.1-0.2,0.2c0,0,0.1-0.1,0.1-0.1l0,0c0,0,0,0.1,0.1,0.1h0.1l0,0c0,0.1-0.2,0-0.2,0.1c0,0,0,0,0,0.1c0,0,0.1,0.1,0.1,0.1
	c0.1,0-0.1,0,0-0.1h0l0,0l0,0l0,0l0,0v0.1c0,0,0.1,0.1,0.2,0.1s-0.1,0-0.1-0.1l0,0c0,0,0,0,0-0.1l0,0l0,0l0,0c0,0.1,0.1,0.1,0.1,0.1
	c0.1,0,0-0.1,0.1-0.2c0.1,0,0.1,0,0.1,0s0.2,0,0.3,0c0-0.1,0-0.2-0.1-0.3c-0.1,0,0-0.1-0.1-0.2c0.1,0.1,0.2,0.1,0.4,0.1
	c0.3,0,0,0,0.1-0.1c0.1,0,0.2,0,0.3,0c0,0,0.1,0,0.1,0.1C61.3,29.2,61.3,29.3,61.3,29.5c0,0-0.1-0.1-0.2-0.1c0,0-0.1,0-0.1,0
	c-0.1,0-0.1,0.1-0.1,0.2c0,0,0.1-0.1,0.1-0.1l0,0c0,0.1,0.1,0.1,0.1,0.1c0,0,0,0,0.1,0l0,0c0,0-0.1,0.1-0.1,0.2l0,0
	c0,0.1,0,0.1,0.1,0.1c0,0,0,0,0-0.1h0.1c0.1,0,0-0.1,0.1-0.2c0.1,0,0,0,0,0s0,0.2,0,0.2h0.1c0,0,0.1,0,0.2,0c0,0,0,0,0,0
	c0,0-0.1,0-0.1-0.1v-0.1C61.4,29.5,61.3,29.5,61.3,29.5c0.1-0.1,0.2,0,0.2-0.2c0,0,0-0.1-0.1-0.1l0,0c0,0,0.1,0,0.1,0
	s-0.1-0.1-0.1-0.1l0,0c0-0.1,0-0.1,0-0.2c0,0-0.2,0.1-0.2,0s0-0.1-0.1-0.1s-0.3-0.1-0.6-0.1l0,0"
  />
  <path
    class="st1"
    d="M58.1,33.2L58.1,33.2L58.1,33.2 M57.5,32C57.5,32,57.5,32,57.5,32c0.2-0.1,0.2-0.1,0.2-0.1s0-0.1-0.1-0.1
	c-0.1,0,0.1,0,0.1-0.1c0-0.1-0.1,0-0.1,0s0,0,0.1-0.1c0,0,0,0,0.1,0l0.2,0.1l0,0c0,0,0,0.1,0,0.1s0-0.1-0.1-0.1s0,0,0,0.1
	s-0.1,0-0.1,0c0,0,0,0.1,0,0.1c0,0,0,0.1,0,0.1c0,0.1-0.1,0.1-0.2,0.1C57.5,32.2,57.5,32.1,57.5,32 M57.8,31.5c0,0.1-0.1,0.1-0.2,0
	c-0.1-0.1,0-0.1-0.1-0.2C57.6,31.3,57.7,31.4,57.8,31.5 M58,31.5c0.1,0,0.2,0.1,0.3,0.1c-0.1,0-0.1,0.1-0.2,0.1S58,31.6,58,31.5
	 M56.9,32.5L56.9,32.5L56.9,32.5 M62.3,32.1c0-0.2-0.2-0.3-0.9-0.3c-0.7,0-2.2,0.3-2.2-0.1c0-0.2,0.3-0.2,0.7-0.1
	c0,0,0.1,0.1,0.1,0.1c0.9,0.3,1.9-0.2,2.5-0.1c-0.6-0.5-1.2,0-1.8-0.1c0.4,0,0.5-0.1,0.5-0.2c-0.3,0.2-0.9-0.1-1.3,0.1l0,0
	c-0.5,0-0.9,0-0.9,0.3c0,0.7,1.8,0.3,2.4,0.3c0.6,0,0.7,0.1,0.7,0.2c0,0.1-0.6,0.2-0.9,0.2c-1-0.1-2-0.2-2.9-0.1
	c0.1-0.1,0.2-0.3,0.1-0.4c0.1,0,0.1-0.1,0.1-0.2c0,0-0.1-0.1-0.2-0.1c0,0,0-0.1,0-0.1s0-0.1,0-0.1c-0.1-0.1-0.1-0.1-0.2-0.1
	C58.1,31.1,58,31,58,31c0,0-0.1,0-0.1,0s-0.1,0-0.1,0.1c0,0-0.1-0.1-0.1-0.1c0,0.1,0,0.2,0,0.2c-0.1,0-0.2,0.2-0.2,0.2
	c-0.1,0,0,0.1,0.1,0.1c0.1,0-0.1,0.3-0.2,0.3s0.1,0.1,0.1,0.1c0,0,0,0.2,0,0.3h-0.1l0,0h-0.1h0.1h-0.1c-0.1-0.1-0.2-0.2-0.3-0.3
	c-0.1-0.1-0.1-0.1-0.1-0.3c0-0.1,0.1-0.2,0.1-0.3c0,0,0-0.1,0-0.1c0-0.1-0.1-0.1-0.2-0.1c0,0,0.1,0.1,0.1,0.1c0,0-0.1,0-0.1,0.1
	c0,0,0,0.1,0,0.1c0,0,0,0,0,0l0,0l0,0l0,0c0,0-0.1-0.2-0.1-0.2h-0.1c0-0.1-0.1-0.2-0.2,0c-0.1,0.2,0.1,0,0.1,0c0,0,0,0.1,0,0.1
	c0,0.1,0,0.1,0.1,0.1l0,0l0,0l0,0c-0.1-0.1-0.2,0-0.2,0.1c0,0,0,0,0,0.1c-0.1,0-0.1,0.1,0,0.2c0.1,0.1,0-0.1,0-0.1l0,0l0,0
	c0,0,0.1,0,0.1,0l0,0c0,0,0,0,0.1,0s0,0,0,0s-0.1,0.2,0,0.2l0,0c0,0.1-0.1,0.1-0.1,0.1c-0.1,0-0.1-0.1-0.1-0.1c0,0,0,0,0,0
	c-0.1,0.2,0.1,0.4,0.3,0.3l0,0c0,0,0,0.1,0.1,0.1l0,0l0,0c0,0,0,0.1,0.1,0.1c0.1,0,0-0.1,0-0.1s0.1,0.2,0.3,0.2
	c0.2,0.1,0.2,0.2,0.3,0.1c0,0.1,0.1,0.3,0.1,0.3c-0.2,0-0.3,0-0.5,0c-0.1,0.1-0.5,0.2-0.5,0.1c-0.1-0.1,0-0.1-0.1-0.2
	c0,0-0.1-0.1-0.1-0.1h-0.1c-0.1,0-0.1,0-0.2,0c0.1,0,0.1,0,0.1,0.1v0.1c0,0,0,0.1,0.2,0.2l0,0c0,0-0.1,0-0.1,0
	c-0.1-0.1-0.1-0.1-0.2-0.1h-0.1l0,0c0,0-0.2,0.1-0.2,0.2c0,0,0.1-0.1,0.1-0.1c0,0,0,0,0,0.1c0,0.1,0.1,0.2,0.3,0l0,0
	c0,0-0.2,0.2-0.1,0.2l0,0l0,0c0,0.1,0.1,0.2,0.2,0.2c0,0-0.1-0.1-0.1-0.2H56c0.1,0,0.1-0.2,0.1-0.2s0,0,0,0s0,0.2,0.1,0.2
	c0.1,0,0.2-0.1,0.2-0.2l0,0c0,0,0.1,0.1,0.1,0.1c0,0,0.1,0,0.1-0.1c0,0.1,0,0.1,0,0.2c0.1,0,0.2-0.1,0.2-0.2c0,0,0,0,0,0.1l0,0
	c0.1,0,0.2,0,0.2,0l0,0c0,0,0,0.1,0,0.1c0,0,0,0,0-0.1c0,0,0,0.1,0.1,0.2c0-0.3,0.2-0.2,0.4-0.3l0,0c0,0,0,0.1-0.1,0.1
	c0.2,0,0.5-0.3,0.6-0.4c0.1,0,0.1,0,0.2,0c0.6,0,0.2-0.5,1.1-0.4c0.1,0,0.2,0,0.2-0.1c-0.1,0.1-0.1,0.4,0,0.4c0.1,0,0.2,0,0.2,0.1
	l0,0h-0.2c-0.2,0.1-0.2-0.3-0.4-0.2h-0.1c-0.1,0-0.2,0.1-0.2,0.2c0,0,0.1-0.1,0.1-0.1l0,0c0,0,0,0.1,0.1,0.1s0.1,0,0.1,0l0,0
	c0,0.1-0.3,0-0.2,0.2v0.1c0,0.1,0,0.1,0.2,0.1s-0.1-0.1,0-0.1l0,0l0,0l0,0l0,0l0,0v0.1c0,0.1,0.1,0.1,0.1,0.1c0,0,0.1,0,0.1,0
	c0,0-0.1,0-0.1-0.1h0.1c0,0,0-0.1,0-0.1l0,0l0,0l0,0c0,0.1,0.1,0.1,0.2,0.1c0.1-0.1,0-0.2,0.1-0.2h0.1c0.1,0,0.3,0,0.3,0
	c0-0.1,0-0.3-0.1-0.3c-0.1,0,0-0.1-0.1-0.2c0.1,0.1,0.3,0.1,0.4,0.1c0.2,0,0.4,0,0.5-0.1c0.1-0.1,0.3-0.1,0.4,0c0,0,0.1,0,0.1,0.1
	c0,0.1,0,0.2,0,0.2s-0.2,0-0.3,0c0,0-0.1,0-0.1,0c-0.1,0-0.2,0.1-0.2,0.2c0,0,0.1-0.1,0.1-0.1l0,0c0,0.1,0.1,0.1,0.1,0.1
	c0,0,0.1,0,0.1,0l0,0c0,0-0.2,0.2-0.1,0.2c0.1,0,0,0,0.1,0c0,0.1,0,0.1,0.1,0.2c0,0,0-0.1,0-0.1h0.1c0.1,0,0-0.1,0.1-0.2
	c0.1,0,0,0,0,0s0,0.2,0,0.2h0.1c0,0.1,0.1,0.1,0.2,0.1c0,0,0,0,0,0c0,0-0.1,0-0.1-0.1c0,0,0-0.1,0-0.1c0.1-0.2-0.1-0.2-0.1-0.2
	c0-0.1,0.2,0,0.2-0.2c0-0.1,0-0.1-0.1-0.1l0,0c0.1,0,0.1,0,0.1-0.1c0-0.1-0.1-0.1-0.1-0.2s0,0,0,0s0.1-0.1,0.1-0.2
	c0,0.1-0.2,0.1-0.2,0c0-0.1,0-0.1-0.1-0.1c-0.3,0-0.5,0-0.7-0.1c0.4,0,1.1-0.1,1.1-0.4"
  />
  <path
    class="st1"
    d="M56.7,35.1C56.7,35.1,56.7,35,56.7,35.1c0.1-0.1,0.1-0.1,0.1-0.1s0-0.1-0.1-0.1c-0.1,0,0.1,0,0.1-0.1
	s-0.1,0-0.1,0s0,0,0,0s0,0,0.1,0l0.2,0.1c0,0,0,0,0,0.1v0.1c0,0,0-0.1-0.1-0.1c-0.1,0,0,0,0,0.1s-0.1,0-0.1,0c0,0,0,0.1,0,0.1
	c0,0,0,0.1,0,0.1s-0.1,0.1-0.1,0.1c0,0-0.1-0.1,0-0.2C56.7,35.2,56.7,35.2,56.7,35.1 M56.9,34.7c0,0.1-0.1,0.1-0.2,0.1
	s0-0.1-0.1-0.2C56.8,34.6,56.9,34.6,56.9,34.7 M57.1,34.7c0.1,0,0.2,0.1,0.2,0.1c-0.1,0-0.1,0.1-0.2,0.1S57.1,34.8,57.1,34.7
	 M61.9,35.3c0-0.2-0.2-0.3-0.9-0.3c-0.7,0-2.7,0.2-2.7-0.1s0.7-0.1,1.2-0.1c0,0,0.1,0.1,0.1,0.1c0.8,0.2,1.7-0.3,2.3-0.1
	c-0.5-0.4-1.1,0.1-1.7-0.1c0.4,0,0.8-0.1,0.8-0.2c-0.3,0.2-1.1-0.1-1.5,0.1c0,0,0,0-0.1,0c-0.6,0-1.4-0.1-1.4,0.3
	c0,0.6,2.3,0.3,2.8,0.3c0.5,0,0.7,0.1,0.7,0.2s-0.5,0.2-0.9,0.2c-1.2-0.1-2.3-0.1-3.5,0c0-0.1,0.2-0.4,0.1-0.5
	c0.1,0,0.1-0.1,0.1-0.2c0,0-0.1-0.1-0.2-0.1c0,0,0-0.1,0-0.1s0-0.1-0.1-0.1c-0.1-0.1-0.2-0.2-0.4-0.2c0,0-0.1,0-0.1,0s-0.1,0-0.1,0
	c0,0-0.1-0.1-0.1-0.1c0,0.1,0,0.2,0,0.2c-0.1,0-0.2,0.2-0.2,0.2c0,0,0,0.1,0.1,0.1c-0.1,0.1-0.1,0.3-0.2,0.3c0,0,0,0.1,0.1,0.1
	c0,0.1,0,0.1,0,0.2h-0.1h-0.1h-0.1c-0.1,0-0.2-0.2-0.4-0.3c-0.1,0-0.2-0.2-0.1-0.3c0-0.1,0.1-0.2,0.1-0.3s0-0.1,0-0.1
	c0-0.1-0.1-0.1-0.2-0.1c0,0,0.1,0.1,0.1,0.1c0,0,0,0,0,0.1c0,0,0,0.1,0,0.1c0,0,0,0,0,0v0l0,0c0,0-0.1-0.2-0.1-0.2h-0.1l0,0
	c0-0.1-0.1-0.1-0.2,0c-0.1,0.2,0.1,0,0.1,0c0,0,0,0.1,0,0.1c0,0.1,0.1,0.1,0.1,0.1c0.1,0,0,0,0,0l0,0l0,0c0,0-0.2,0-0.2,0.1
	c0,0.1,0,0,0,0c0,0.1-0.1,0.1,0,0.2s0-0.1,0-0.1l0,0l0,0c0,0,0,0,0.1,0l0,0h0.1l0,0c0,0-0.1,0.2,0,0.2c0.1,0,0,0,0,0
	c0,0.2-0.3,0.1-0.2,0c-0.1,0.2,0.1,0.4,0.3,0.3l0,0c0,0,0,0.1,0.1,0.1l0,0l0,0c0,0.1,0,0.1,0.1,0.1v-0.1c0.1,0.2,0.3,0.3,0.4,0.4
	c0.1,0,0.1,0,0.1-0.1c0-0.1,0,0,0.1,0.1c0.1,0.1,0.1,0.3,0.1,0.3c-0.2,0-0.4,0-0.5,0c-0.1,0.1-0.4,0.2-0.5,0s0-0.1-0.1-0.2
	c0,0-0.1-0.1-0.1-0.1H55c-0.1,0-0.1,0-0.2,0c0,0,0.1,0,0.1,0.1v0.1c0,0,0,0.1,0.2,0.2l0,0c0,0-0.1,0-0.1,0c-0.1,0-0.1-0.1-0.2-0.1
	s0,0-0.1,0l0,0c-0.1,0-0.2,0.1-0.2,0.2c0,0,0.1-0.1,0.1-0.1v0.1c0,0.1,0.1,0.2,0.3,0l0,0c0,0-0.2,0.2-0.1,0.2l0,0l0,0
	c0,0.1,0.1,0.2,0.2,0.2c0,0-0.1-0.1-0.1-0.2h0c0.1,0,0.1-0.2,0.1-0.2c0.1,0,0,0,0,0s0,0.2,0.1,0.1c0,0.1,0,0.2,0.1,0.3
	c0.1,0,0.2,0,0.3-0.1l0,0l0,0c0,0,0.1,0.1,0.1,0.1c0,0,0.1,0,0.1-0.1c0,0.1,0,0.1,0,0.2c0.1,0,0.2-0.1,0.2-0.2c0,0,0,0,0,0.1l0,0
	c0.1,0,0.2,0,0.2,0l0,0c0,0,0,0.1,0,0.1v-0.1c0,0,0,0.1,0.1,0.2c0-0.3,0.4-0.2,0.5-0.3l0,0c0,0,0,0.1-0.1,0.1c0.1,0,0.2,0,0.2-0.1
	l0,0l0.3-0.1c0,0,0-0.1,0-0.1h0.1l0,0c0.2,0,0.2-0.2,0.2-0.1c1.1,0.1,0.4-0.5,1.7-0.3c0.1,0,0.1,0,0.1-0.1c-0.1,0.1-0.1,0.3,0.1,0.3
	c0.1,0,0.1,0,0.2,0.1l0,0c-0.1,0-0.1,0-0.2,0c-0.2,0.1-0.2-0.3-0.4-0.2h-0.1c-0.1,0-0.2,0.1-0.2,0.2c0,0,0.1-0.1,0.1-0.1l0,0
	c0,0,0,0.1,0.1,0.1h0.1l0,0c0,0.1-0.3,0-0.2,0.2c0,0,0,0,0,0.1c0,0.1,0,0.1,0.2,0.1c0.2,0-0.1,0-0.1-0.1h0.1l0,0l0,0l0,0l0,0
	c0,0,0,0,0,0.1c0,0.1,0.1,0.2,0.2,0.1c0.1-0.1-0.1,0-0.1,0l0,0c0,0,0,0,0-0.1l0,0l0,0l0,0c0,0.1,0.1,0.1,0.2,0.1c0,0,0,0,0,0
	c0.1,0,0-0.2,0.1-0.2c0,0,0.1,0,0.1,0c0.1,0,0.3,0,0.3,0c0-0.1,0-0.2-0.1-0.3c-0.1,0,0-0.1-0.1-0.2c0.1,0.1,0.3,0.1,0.4,0.1
	c0.2,0,0.4,0,0.5-0.1c0.1,0,0.2,0,0.4,0c0,0,0.1,0,0.1,0.1s0,0.2,0,0.2c0,0.1-0.2,0-0.2,0c0,0-0.1,0-0.1,0c-0.1,0-0.2,0.1-0.2,0.2
	c0,0,0.1-0.1,0.1-0.1l0,0c0,0.1,0.1,0.1,0.1,0.1c0,0,0.1,0,0.1,0l0,0c0,0-0.2,0.2-0.1,0.2h0.1c0,0.1,0.1,0.1,0.1,0.1
	c0.1,0,0,0,0-0.1l0,0c0.1,0,0-0.1,0.1-0.2l0,0c0,0.1,0,0.2,0,0.2h0.1c0,0.1,0.1,0.1,0.2,0.1c0,0,0,0,0,0c0,0-0.1,0-0.1-0.1
	c0,0,0,0,0-0.1c0.1-0.2-0.1-0.2-0.1-0.2s0.2,0,0.2-0.2c0,0,0-0.1-0.1-0.1l0,0c0.1,0,0.1,0,0.1-0.1c-0.1,0-0.1-0.1-0.1-0.2
	c0-0.1,0,0,0,0c0,0,0.1-0.1,0.1-0.2c0,0.1-0.2,0.1-0.2,0s0-0.1-0.1-0.1c-0.2,0-0.5,0-0.7-0.1c0.4,0,1.1-0.1,1.1-0.4"
  />
  <path
    class="st1"
    d="M67,40.4L67,40.4 M66,38.9L66,38.9L66,38.9 M65.9,39.1L65.9,39.1z M66.1,39.4C66.1,39.4,66.1,39.3,66.1,39.4
	c0.1-0.1,0.1-0.1,0.2-0.1c0,0,0-0.1-0.1-0.1s0.1,0,0-0.1s-0.1,0-0.1,0s0,0,0-0.1c0,0,0,0,0.1,0l0.2,0.1c0,0,0,0,0,0.1s0,0.1,0,0.1
	s0-0.1-0.1-0.1s0,0,0,0.1C66.3,39.4,66.2,39.4,66.1,39.4C66.2,39.4,66.2,39.4,66.1,39.4C66.2,39.5,66.2,39.5,66.1,39.4
	c0.1,0.1,0.1,0.1,0.1,0.1c0,0-0.1,0.1-0.1,0.1C66,39.6,66,39.5,66.1,39.4C66.1,39.5,66.1,39.5,66.1,39.4 M66.3,38.9
	c0,0.1-0.1,0.1-0.2,0c-0.1-0.1,0-0.1-0.1-0.2C66.2,38.8,66.2,38.9,66.3,38.9 M66.5,39c0.1,0,0.2,0.1,0.3,0.1c-0.1,0-0.1,0.1-0.2,0.1
	S66.5,39,66.5,39 M71.2,40.2L71.2,40.2c0.1,0,0.1-0.1,0.1-0.2c0,0.1-0.2,0.1-0.2,0s0-0.1-0.1-0.1c-0.3,0-0.5,0-0.8-0.1l0,0
	c0.4,0,1.1-0.1,1.1-0.3s-0.2-0.3-0.9-0.3c-0.7,0-2.7,0.2-2.7-0.1s0.7-0.1,1.2-0.1c0,0,0.1,0.1,0.1,0.1c0.8,0.2,1.8-0.4,2.3-0.2
	c-0.7-0.2-1.1,0.2-1.7,0c0.4,0,0.8-0.1,0.8-0.2c-0.3,0.2-1.1-0.1-1.5,0.1l-0.1,0.1c-0.6,0-1.4-0.1-1.4,0.3c0,0.7,2.3,0.3,2.8,0.3
	c0.5,0,0.7,0,0.7,0.1s-0.6,0.2-0.9,0.2c-1.2-0.1-2.3-0.1-3.5,0c0-0.2,0.2-0.4,0.2-0.5c0.1,0,0.1-0.1,0.1-0.2c0,0-0.1-0.1-0.2-0.1
	c0,0,0-0.1,0-0.1c0,0,0-0.1,0-0.1c-0.1-0.1-0.1-0.1-0.2-0.1c-0.1,0-0.1,0-0.2,0c0,0-0.1,0-0.1,0s-0.1,0-0.1,0c0,0-0.1-0.1-0.1-0.1
	c0,0.1,0,0.2,0,0.2c-0.1,0-0.2,0.2-0.2,0.2s0.1,0.1,0.1,0.1s-0.1,0.3-0.2,0.3s0.1,0.1,0.1,0.1s0,0.1,0,0.2h-0.1h-0.1h-0.1
	c-0.1,0-0.2-0.2-0.4-0.3C65,39.2,65,39.2,65,39.1c0-0.1,0.1-0.2,0.1-0.3c0,0,0-0.1,0-0.1c0-0.1-0.1-0.1-0.2-0.1c0,0,0.1,0.1,0.1,0.1
	c0,0,0,0.1-0.1,0.1c0,0,0,0.1,0,0.1l0,0l0,0l0,0c0,0-0.1-0.2-0.1-0.2h-0.2c0-0.1-0.1-0.1-0.2,0c0,0,0.1,0,0.1,0c0,0,0,0.1,0,0.1
	c0,0.1,0.1,0.1,0.1,0.1s0,0,0,0l0,0l0,0c0,0-0.2,0-0.2,0.1v0.1c-0.1,0-0.1,0.1,0,0.2s0-0.1,0-0.1l0,0l0,0c0,0,0,0,0.1,0l0,0l0,0l0,0
	c0,0-0.1,0.2,0.1,0.2l0,0c0,0.2-0.3,0.1-0.2,0c-0.1,0.2,0.1,0.4,0.3,0.3l0,0c0,0,0,0.1,0.1,0.1l0,0l0,0c0,0,0,0.1,0.1,0.1
	c0.1,0,0-0.1,0-0.1s0.2,0.3,0.4,0.4c0,0,0.1-0.1,0.2-0.1c0,0.1,0,0.1,0.1,0.1l0,0c0,0.1,0.1,0.2,0.1,0.2c-0.1,0-0.3,0-0.4,0
	c-0.1,0.1-0.4,0.2-0.5,0c-0.1-0.2,0-0.1-0.1-0.2c0,0-0.1-0.1-0.1-0.1h-0.1c-0.1,0-0.1,0-0.2,0c0,0,0.1,0,0.1,0.1v0.1
	c0,0,0,0.1,0.2,0.2l0,0c0,0-0.1,0-0.1,0c-0.1-0.1-0.1-0.1-0.2-0.1h-0.1l0,0c-0.1,0-0.2,0.1-0.2,0.2c0,0,0.1-0.1,0.1-0.1l0,0
	c0,0.1,0.1,0.2,0.3,0l0,0c0,0-0.2,0.2-0.1,0.2l0,0l0,0c0,0.1,0.1,0.2,0.2,0.2c0,0-0.1-0.1-0.1-0.2c0,0,0.1,0,0.1,0s0.1-0.1,0.1-0.2
	s0,0,0,0s0,0.2,0.1,0.1c0.1,0,0.2-0.1,0.1-0.2l0,0c0,0,0.1,0.1,0.1,0.1c0,0,0.1,0,0.1-0.1c0,0.1,0,0.1-0.1,0.2
	c0.1,0,0.2-0.1,0.2-0.2c0,0,0,0,0,0.1l0,0c0.1,0,0.2,0,0.2,0l0,0c0,0,0,0.1,0,0.1c0,0,0-0.1,0.1-0.1s0,0.1,0.1,0.2
	c0-0.3,0.2-0.2,0.4-0.3l0,0c0,0,0,0.1-0.1,0.1c0.1,0,0.3-0.1,0.3-0.2s0.1,0,0.2,0s0.2-0.1,0.2-0.1c1.1,0.1,0.5-0.5,1.7-0.3
	c0,0,0.1-0.1,0.1-0.1c-0.1,0.1-0.1,0.4,0.1,0.4c0.1,0,0.1,0,0.2,0.1l0,0h-0.2c-0.2,0.1-0.2-0.3-0.4-0.2c0,0-0.1,0-0.1,0
	c-0.1,0-0.2,0.1-0.2,0.2c0,0,0.1-0.1,0.1-0.1l0,0c0,0,0,0.1,0.1,0.1c0.1,0,0.1,0,0.1,0s0,0,0,0s-0.3,0-0.2,0.2c0,0,0,0,0,0.1
	c0,0.1,0,0.1,0.2,0.1c0.2,0-0.1,0-0.1-0.1h0.1l0,0l0,0l0,0l0,0v0.1c0,0,0.1,0.2,0.2,0.1c0,0-0.1,0-0.1-0.1h0.1c0,0,0,0,0-0.1l0,0
	h0.1l0,0c0,0.1,0.1,0.1,0.2,0.1c0.1,0,0-0.2,0.1-0.2c0,0,0.1,0,0.1,0c0.1,0,0.3,0,0.3,0c0-0.1,0-0.2-0.1-0.3c-0.1,0,0-0.1-0.1-0.2
	c0.1,0.1,0.3,0.1,0.4,0.1c0.2,0,0.4,0,0.5-0.1c0.1,0,0.3,0,0.4,0c0,0,0.1,0,0.1,0.1s0,0.2,0,0.2c0,0.1-0.2,0-0.2,0c0,0-0.1,0-0.1,0
	c-0.1,0-0.2,0.1-0.2,0.2c0,0,0.1-0.1,0.1-0.1l0,0c0,0.1,0.1,0.1,0.1,0.1c0,0,0.1,0,0.1,0l0,0c0,0-0.2,0.2-0.1,0.2l0,0
	c0,0.1,0,0.1,0.1,0.1c0,0,0-0.1,0-0.1H70c0.1,0,0.1-0.1,0.1-0.2l0,0c0,0.1-0.1,0.2,0,0.2c0.1,0,0,0,0,0c0,0,0.1,0.1,0.2,0
	c0,0,0,0,0,0c0,0-0.1,0-0.1-0.1l0.1-0.1c0.1-0.2-0.1-0.2-0.1-0.2c0-0.1,0.2,0,0.2-0.2c0,0,0-0.1-0.1-0.1c0,0,0,0,0,0l0,0
	c0,0,0.1,0,0.1-0.1c-0.1,0-0.1-0.1-0.1-0.2"
  />
  <path
    class="st1"
    d="M66.5,42.1c-0.1,0-0.1-0.1-0.1-0.2c0.1,0,0.2,0.1,0.2,0.1C66.6,42,66.6,42.1,66.5,42.1 M66.4,42.2
	C66.4,42.2,66.4,42.2,66.4,42.2C66.3,42.1,66.4,42.2,66.4,42.2c0,0.1-0.1,0-0.2,0s0,0.1,0,0.1s0,0,0,0.1c0,0.1-0.1,0.1-0.1,0.1
	c0,0,0,0,0,0c0,0,0-0.1,0-0.2c0,0,0-0.1,0.1-0.1s0.1,0,0.1,0s0-0.1-0.1-0.1c-0.1,0,0.1,0,0.1-0.1c0-0.1-0.1,0-0.1,0l0,0
	c0,0,0,0,0.1,0L66.4,42.2L66.4,42.2C66.4,42.2,66.4,42.3,66.4,42.2 M66.3,41.9c0,0.1-0.1,0.1-0.1,0s0-0.1-0.1-0.2L66.3,41.9
	 M68.3,41.8c0,0,0.1,0.1,0.1,0.1c0.8,0.2,1.7-0.4,2.2-0.2c-0.6-0.2-1,0.2-1.6,0c0.4,0,0.7-0.1,0.8-0.2c-0.3,0.2-1.1-0.1-1.4,0.1l0,0
	c-0.4,0-0.8,0-0.8,0.3c0,0.6,1.7,0.3,2.2,0.3c0.5,0,0.5,0,0.5,0.1s-0.6,0.2-0.9,0.2c-0.9-0.1-1.8-0.1-2.6-0.1
	c0.1-0.1,0.2-0.3,0.1-0.4c0.1,0,0.1-0.1,0.1-0.2c0,0-0.1-0.1-0.1-0.1c0,0,0-0.1,0-0.1c0,0,0-0.1,0-0.1c-0.1,0-0.1-0.1-0.2-0.1
	c-0.1,0-0.1,0-0.2,0c0,0-0.1,0-0.1,0c0,0-0.1,0-0.1,0.1c0,0-0.1-0.1-0.1-0.1c0,0.1,0,0.1,0,0.2c-0.1,0-0.1,0.2-0.2,0.2
	s0,0.1,0.1,0.1s-0.1,0.2-0.1,0.2c0,0,0,0.1,0.1,0.1c0,0.1,0,0.2,0,0.2h-0.1l0,0c-0.1,0-0.2,0-0.3-0.1c-0.1-0.1-0.1-0.1-0.1-0.3
	c0-0.1,0.1-0.2,0.1-0.3c0,0,0-0.1,0-0.1c0-0.1-0.1-0.1-0.2-0.1c0,0,0.1,0.1,0.1,0.1c0,0-0.1,0-0.1,0.1c0,0,0,0.1,0,0.1c0,0,0,0,0,0
	l0,0l0,0l0,0c0,0-0.1-0.2-0.1-0.2l0,0l0,0c0-0.1-0.1-0.1-0.2,0c-0.1,0.1,0.1,0,0.1,0c0,0,0,0.1,0,0.1c0,0.1,0.1,0.1,0.1,0.1s0,0,0,0
	l0,0l0,0c0,0-0.2,0-0.2,0.1V42c-0.1,0-0.1,0.1,0,0.2c0.1,0.1,0-0.1,0-0.1l0,0l0,0c0,0,0,0,0.1,0s0,0,0,0l0,0l0,0c0,0-0.1,0.2,0,0.2
	s0,0,0,0c0,0.2-0.2,0.1-0.2,0c-0.1,0.2,0.1,0.3,0.3,0.2l0,0c0,0,0,0.1,0.1,0.1l0,0l0,0c0,0,0,0.1,0.1,0.1s0-0.1,0-0.1s0-0.1,0.2,0
	c0,0,0,0.1,0.1,0.1h0.2c0,0.1,0,0.3,0,0.3c-0.1,0-0.2,0-0.4,0c-0.1,0.1-0.4,0.2-0.5,0.1c-0.1-0.1,0-0.1,0-0.1c0,0-0.1-0.1-0.1-0.1
	h-0.1c-0.1,0-0.1,0-0.2,0c0,0,0.1,0,0.1,0.1c0,0,0,0,0,0.1c0,0,0,0.1,0.2,0.2l0,0c0,0-0.1,0-0.1,0c-0.1-0.1-0.1-0.1-0.2-0.1
	s0,0-0.1,0l0,0c-0.1,0-0.2,0.1-0.1,0.2s0-0.1,0.1-0.1l0,0c0,0.1,0.1,0.2,0.2,0l0,0c0,0-0.2,0.2-0.1,0.2h0.1l0,0c0,0,0.1,0.2,0.2,0.2
	c0,0-0.1-0.1-0.1-0.2h0.1c0.1,0,0-0.1,0.1-0.2c0.1,0,0,0,0,0s0,0.1,0.1,0.1c0.1,0,0.1-0.1,0.1-0.2c0,0,0,0,0,0l0,0
	c0,0,0.1,0.1,0.1,0.1c0,0,0.1-0.1,0.1-0.1c0,0.1,0,0.1,0,0.2c0.1,0,0.1-0.1,0.2-0.2c0,0,0,0,0,0.1l0,0c0.1,0,0.1,0,0.2,0l0,0
	c0,0,0,0.1,0,0.1v-0.1c0,0,0,0.1,0.1,0.2c0-0.3,0.2-0.2,0.4-0.3l0,0c0,0,0,0.1-0.1,0.1c0.2,0.1,0.4-0.1,0.4-0.3l0,0c0,0,0,0,0,0.1
	c0.2,0,0.2-0.1,0.2-0.1c0.5,0,0.1-0.4,1-0.3c0.1,0,0.2,0,0.2-0.1c-0.1,0.1-0.1,0.4,0,0.4c0.1,0,0.1,0,0.2,0.1l0,0
	c-0.1,0-0.1,0-0.2,0c-0.2,0.1-0.2-0.3-0.4-0.2h-0.1c-0.1,0-0.2,0.1-0.2,0.2c0.1-0.1,0.3-0.1,0.3,0.1c0.1,0.1,0.1,0.3-0.1,0.3l0,0
	c0,0,0,0.1,0.1,0.1s0.1,0,0.1,0s0,0,0,0s-0.2,0-0.2,0.2c0,0,0,0,0,0.1c0,0.1,0,0.1,0.1,0.1s-0.1,0-0.1-0.1h0.1l0,0l0,0l0,0l0,0
	c0,0,0,0,0,0.1c0,0.1,0.1,0.2,0.2,0.1c0.1-0.1-0.1,0-0.1-0.1h0.1c0,0,0,0,0-0.1l0,0h0.1l0,0c0,0.1,0.1,0.1,0.1,0.1c0,0,0,0,0,0
	c0.1,0,0-0.2,0.1-0.2c0,0,0.1,0,0.1,0c0.1,0,0.3,0,0.3,0c0-0.1,0-0.2-0.1-0.3c-0.1,0,0-0.1-0.1-0.2c0.1,0.1,0.3,0.1,0.4,0.1
	c0.2,0,0.4,0,0.6-0.1c0.1,0,0.2,0,0.4,0c0,0,0.1,0,0,0.1s0,0.2-0.1,0.2c-0.1,0.1-0.2,0-0.2,0c0,0-0.1,0-0.1,0
	c-0.1,0-0.2,0.1-0.2,0.2c0,0,0.1-0.1,0.1-0.1l0,0c0,0.1,0.1,0.1,0.2,0.1s0,0,0,0s-0.2,0.1-0.1,0.2h0.1c0,0.1,0,0.1,0.1,0.1
	c0,0,0-0.1,0-0.1l0,0c0.1,0,0.1-0.1,0.1-0.2l0,0c-0.1,0.1-0.1,0.2,0,0.2l0,0c0,0.1,0.1,0.1,0.2,0c0.1-0.1-0.1,0-0.1,0
	s0.1-0.1,0.1-0.1c0.1-0.2-0.1-0.2,0-0.2s0.1,0,0.2-0.2c0,0,0-0.1-0.1-0.1l0,0c0.1,0,0.1,0,0.1-0.1c-0.1,0-0.1-0.1-0.1-0.1l0,0
	c0.1,0,0.1-0.1,0.1-0.2c0,0-0.2,0.1-0.2,0s0-0.1-0.1,0c-0.3,0-0.5,0-0.8-0.1l0,0c0.4,0,1.1-0.1,1.1-0.3c0-0.2,0-0.3-0.7-0.3
	s-2,0.2-2-0.1c0-0.2,0.3-0.2,0.6-0.1"
  />
  <path
    class="st1"
    d="M65.8,45.3C65.8,45.3,65.8,45.2,65.8,45.3c0.1-0.1,0.1-0.1,0.1-0.1c0,0,0-0.1-0.1-0.1s0.1,0,0,0s-0.1,0-0.1,0
	s0,0,0-0.1c0-0.1,0,0,0.1,0l0.2,0.1c0,0,0,0,0,0.1s0,0,0,0.1s0-0.1-0.1-0.1s0,0,0,0.1S65.9,45.2,65.8,45.3
	C65.8,45.3,65.8,45.3,65.8,45.3C65.9,45.3,65.9,45.3,65.8,45.3c0.1,0.1,0.1,0.1,0.1,0.2c0,0.1-0.1,0.1-0.1,0.1
	C65.7,45.5,65.7,45.4,65.8,45.3C65.7,45.3,65.7,45.3,65.8,45.3 M66,44.9c0,0.1-0.1,0.1-0.1,0s0-0.1-0.1-0.2L66,44.9 M66.1,44.9
	c0.1,0,0.1,0.1,0.2,0.1c-0.1,0-0.1,0.1-0.1,0.1S66.1,45,66.1,44.9 M67.6,44.8c0,0,0.1,0.1,0.1,0.1c0.8,0.2,1.7-0.4,2.2-0.2
	c-0.6-0.2-1,0.2-1.6,0c0.4,0,0.7-0.1,0.8-0.2c-0.3,0.2-1.1-0.1-1.4,0.1c0,0-0.1,0-0.1,0.1c-0.2,0-0.4,0.2-0.4,0.4
	c0,0.5,2.1,0.1,2.1,0.3c0,0.2-0.4,0.3-0.9,0.3c-0.7-0.1-1.3-0.1-2,0l0,0c0.1-0.2,0.2-0.4,0.2-0.5c0.1,0,0.1-0.1,0.1-0.1
	c0,0-0.1-0.1-0.1-0.1c0,0,0-0.1,0-0.1s0-0.1,0-0.1c-0.1,0-0.1-0.1-0.2-0.1c-0.1,0-0.1,0-0.2-0.1H66c0,0-0.1,0-0.1,0
	c0,0-0.1-0.1-0.1-0.1c0,0.1,0,0.1,0,0.2c-0.1,0-0.1,0.2-0.2,0.2c0,0,0,0.1,0.1,0.1c-0.1,0.1-0.1,0.2-0.2,0.2l0.1,0.1
	c0,0.2,0,0.3,0,0.5c-0.1-0.2-0.3-0.3-0.4-0.5C65,45.2,65,45.1,65,45c0-0.1,0-0.2,0-0.3c0,0,0-0.1,0-0.1c0-0.1-0.1-0.1-0.2-0.1
	c0,0,0.1,0.1,0.1,0.1c0,0,0,0,0,0.1c0,0,0,0.1,0,0.1c0,0,0,0,0,0l0,0c0,0,0,0,0,0.1l0,0c0,0-0.1-0.2-0.1-0.2l0,0
	c0-0.1-0.1-0.1-0.2,0c-0.1,0.1,0.1,0,0.1,0v0.1c0,0.1,0.1,0.1,0.1,0.1l0,0l0,0l0,0c0,0-0.2,0-0.2,0.1s0,0,0,0.1s-0.1,0.1,0,0.2
	s0-0.1,0-0.1l0,0l0,0c0,0,0.1,0,0.1,0l0,0l0,0l0,0c0,0-0.1,0.2,0,0.2l0,0c0,0.2-0.2,0.1-0.2,0c-0.1,0.2,0.1,0.3,0.2,0.2l0,0
	c0,0,0,0.1,0.1,0.1s0,0,0,0l0,0c0,0,0,0.1,0.1,0.1c0.1,0,0-0.1,0-0.1s0,0.2,0.2,0.4c0,0.1,0.2,0.2,0.3,0.2c0,0.1,0.1,0.2,0.1,0.2
	c-0.1,0-0.3,0-0.4,0c-0.1,0-0.2,0.1-0.3,0.1l0,0l0,0c-0.1,0-0.2,0-0.2,0s0-0.1-0.1-0.1c0,0-0.1-0.1-0.1-0.1h-0.1c-0.1,0-0.1,0-0.2,0
	c0,0,0.1,0,0.1,0.1c0,0,0,0,0,0.1c0,0,0,0.1,0.2,0.2l0,0c0,0-0.1,0-0.1,0c-0.1-0.1-0.1-0.1-0.2-0.1h-0.1l0,0c-0.1,0-0.2,0.1-0.1,0.2
	c0,0,0-0.1,0.1-0.1c0,0,0,0,0,0.1c0,0.1,0.1,0.2,0.2,0c0.2-0.2,0,0,0,0s-0.2,0.1-0.1,0.2l0,0l0,0c0,0.1,0.1,0.2,0.1,0.2
	c0,0,0-0.1,0-0.2l0,0c0.1,0,0.1-0.1,0.1-0.2s0,0,0,0c0,0.1,0,0.1,0.1,0.1c0,0,0,0,0,0c0.1,0,0.1-0.1,0.1-0.1c0,0,0,0,0,0l0,0
	c0,0,0,0.1,0,0.1c0,0,0.1,0,0.1-0.1c0,0.1,0,0.1,0,0.2c0.1,0,0.1-0.1,0.2-0.2c0,0,0,0,0,0.1l0,0c0.1,0,0.1,0,0.2,0l0,0
	c0,0,0,0.1,0,0.1v-0.1c0,0,0,0.1,0.1,0.2c0-0.3,0.2-0.2,0.3-0.3l0,0c0,0,0,0.1-0.1,0.1c0.1,0,0.2-0.1,0.2-0.2
	c0.1-0.1,0.1-0.3,0.2-0.4H66c0.2,0,0.3-0.2,0.5-0.2c-0.1,0.1-0.1,0.2-0.1,0.3c0,0.1,0.1,0.2,0.2,0.3l0,0c-0.1,0-0.1,0-0.2,0
	c-0.2,0.1-0.2-0.3-0.4-0.2H66c-0.1,0-0.2,0.1-0.2,0.2c0,0,0.1-0.1,0.1-0.1l0,0c0,0,0,0.1,0.1,0.1h0.1l0,0c0,0-0.2,0-0.2,0.2v0.1
	c0,0.1,0,0.1,0.1,0.1s-0.1,0-0.1-0.1l0,0l0,0l0,0l0,0l0,0c0,0,0,0,0,0.1c0,0.1,0.1,0.2,0.2,0.1s-0.1,0-0.1,0s0,0,0,0s0,0,0-0.1
	s0,0,0,0l0,0l0,0c0,0,0.1,0.1,0.1,0.1c0.1,0,0-0.2,0.1-0.2h0.1c0.1,0,0.2,0,0.2,0c0-0.1,0-0.2-0.1-0.3c-0.1,0,0.1-0.4-0.2-0.6
	c0.1,0,0.6,0.1,0.7,0c0.1,0,0.2,0.1,0.3,0.1c0,0,0,0.1,0,0.1s-0.1,0.1-0.2,0.1l0,0c0,0-0.1-0.1-0.1-0.1c0,0-0.1,0-0.1,0
	c-0.1,0-0.2,0-0.2,0.1c0,0,0.1,0,0.1,0l0,0c0,0,0,0,0,0.1l0,0l0,0c-0.1,0-0.2,0-0.2,0.1c0,0,0,0,0,0.1c0,0,0,0.1,0,0.2
	c0,0,0,0,0.1-0.1l0,0c0,0,0.1-0.1,0.2,0s0,0,0,0s-0.1,0.1-0.1,0.1l0,0c0,0.1,0,0.1,0.1,0.1c0,0,0,0,0,0c0,0,0-0.1,0-0.1h0.1
	c0.1-0.1,0.1-0.2,0.1-0.2c0,0,0.1,0.1,0.2,0c0,0,0-0.1,0-0.1l0,0l0,0c0,0,0.1,0.1,0.1,0s0-0.1,0-0.2s0,0,0,0s0.1,0,0.1-0.1
	s-0.2-0.1-0.1-0.1s0.2-0.1,0.1-0.2s-0.3-0.2-0.3-0.3h0.2c0.7,0,1.1-0.2,1.1-0.4c0-0.5-2.1,0-2.1-0.3c0-0.1,0.1-0.2,0.3-0.2"
  />
  <path
    class="st1"
    d="M34,8.5C34,8.3,33.8,8,33.5,8C33.2,8,33,8.3,33,8.5c0,0.3,0.2,0.5,0.5,0.5C33.8,9.1,34,8.8,34,8.5
	C34,8.5,34,8.5,34,8.5"
  />
  <path
    class="st1"
    d="M33.8,7.2c0-0.3-0.2-0.5-0.5-0.5c-0.3,0-0.5,0.2-0.5,0.5c0,0.3,0.2,0.5,0.5,0.5C33.6,7.7,33.8,7.5,33.8,7.2"
  />
  <path
    class="st1"
    d="M34.1,6.6c0.3,0,0.5-0.2,0.5-0.5c0-0.3-0.2-0.5-0.5-0.5c0,0,0,0,0,0c-0.3,0-0.5,0.2-0.5,0.5
	C33.6,6.4,33.8,6.6,34.1,6.6C34.1,6.6,34.1,6.6,34.1,6.6"
  />
  <path
    class="st1"
    d="M35.4,6.5C35.7,6.5,36,6.3,36,6c0-0.3-0.2-0.5-0.5-0.5c-0.3,0-0.5,0.2-0.5,0.5c0,0,0,0,0,0
	C34.9,6.3,35.2,6.5,35.4,6.5"
  />
  <path
    class="st1"
    d="M41.2,5.6c0.2,0.2,0.5,0.2,0.7,0c0,0,0,0,0,0c0.2-0.2,0.2-0.5,0-0.7c-0.2-0.2-0.5-0.2-0.7,0
	C41,5.1,41,5.4,41.2,5.6C41.2,5.6,41.2,5.6,41.2,5.6"
  />
  <path
    class="st1"
    d="M41,4.5c0.2-0.2,0.2-0.5,0-0.7c-0.2-0.2-0.5-0.2-0.7,0l0,0c-0.2,0.2-0.2,0.5,0,0.7c0,0,0,0,0,0
	C40.5,4.7,40.9,4.7,41,4.5C41,4.5,41,4.5,41,4.5"
  />
  <path
    class="st1"
    d="M39.7,4.3c0.2-0.2,0.2-0.5,0-0.7c-0.2-0.2-0.5-0.2-0.7,0c-0.2,0.2-0.2,0.5,0,0.7C39.2,4.5,39.5,4.5,39.7,4.3
	C39.7,4.3,39.7,4.3,39.7,4.3"
  />
  <path
    class="st1"
    d="M38.6,5.1c0.2-0.2,0.2-0.5,0-0.7c-0.2-0.2-0.5-0.2-0.7,0c-0.2,0.2-0.2,0.5,0,0.7C38.1,5.3,38.4,5.3,38.6,5.1
	C38.6,5.1,38.6,5.1,38.6,5.1"
  />
  <path
    class="st1"
    d="M35.4,4.4l0.4,0.9l0.5-0.6h0.1c0,0.4,0.1,0.7,0.1,1.1c0,0.4,0.2,0.7,0.6,0.7c0.4,0,0.7-0.2,0.7-0.6
	c0-0.1,0-0.1,0-0.2c0-0.2-0.1-0.5-0.3-0.6c-0.3-0.2-0.5-0.4-0.7-0.7V4.5l0.8,0.1l-0.3-0.9l-0.6,0.5l0,0V3.3l-0.9,0.3l0.6,0.7
	c0,0,0,0,0,0.1L35.4,4.4z"
  />
  <path
    class="st1"
    d="M41.2,6c0.2,0.2,0.3,0.4,0.3,0.7c-0.2-0.1-0.4-0.3-0.5-0.5l0.1,1.2c0.1-0.2,0.2-0.3,0.4-0.4
	c0,0.8-0.4,1.1-0.6,1.1c-0.3,0.1-0.5-0.1-0.6-0.4c0,0,0,0,0,0c-0.1-0.3,0.2-0.5,0.5-0.2c0.1-0.7-0.5-0.7-0.8-0.4
	c0.3-0.5,0.2-1.1-0.2-1.4c-0.1,0-0.1-0.1-0.2-0.1c-0.4,0.5-0.2,1.2,0.3,1.5c0,0,0,0,0,0c-0.5-0.2-0.9,0.2-0.5,0.7
	c0.1-0.4,0.5-0.3,0.6,0c0.1,0.3-0.2,0.7-0.7,0.9c-0.7,0.2-1-0.2-1.1-0.6c0.3-0.1,0.7,0,0.9,0.2l-0.4-1.1c-0.1,0.3-0.4,0.6-0.7,0.7
	c0-0.3,0.1-0.7,0.2-1l-1.4,0.6c0.3,0.1,0.6,0.3,0.9,0.6c-0.3,0.2-0.7,0.2-1,0L37.3,9c0.1-0.5,0.4-0.8,0.5-0.8
	c0.1,0.4,0.3,0.9-0.4,1.2c-0.3,0.2-0.8,0.2-1.1-0.1c-0.2-0.3,0-0.7,0.4-0.4c-0.1-0.7-0.6-0.6-0.8-0.2c0-0.7-0.2-1.1-0.9-1.3
	c-0.2,0.5,0,1.1,0.5,1.3c0.1,0,0.1,0,0.2,0.1c-0.4,0-0.8,0.3-0.3,0.8c0-0.4,0.4-0.5,0.6-0.2c0.2,0.2,0.1,0.5-0.1,0.7c0,0,0,0,0,0
	c-0.2,0.1-0.7,0.1-1.2-0.4c0.2-0.1,0.4-0.1,0.6,0l-0.7-0.9c0.1,0.2,0.1,0.5,0,0.7c-0.2-0.2-0.3-0.4-0.3-0.7l-0.6,0.5
	c0.8,0.5,1.4,1.1,1.9,1.9c1-0.6,2-1.1,3-1.5c1.1-0.4,2.2-0.7,3.3-1c-0.2-0.9-0.1-1.8,0.1-2.7L41.2,6z"
  />
  <path
    class="st1"
    d="M42.8,12.7c-0.7,0.6-1.6,0-2.1-0.7c1-0.4,2-0.8,2.9-1.3C42.9,11.8,43.4,12.2,42.8,12.7 M42.7,20
	c-0.7,0.2-1.5-0.2-1.8-0.9c0,0,0-0.1,0-0.1c-0.2-0.5-0.3-1-0.1-1.2c0.4-0.4,0.5-0.7,0.3-1.2c-0.2-0.5-0.9-0.3-1.5-0.1
	c0.3-0.5,0.3-0.9-0.1-0.9c-0.4,0.1-0.5,0.8-0.8,0.7c-0.3-0.1-0.1-0.5-0.1-0.8c0-0.2,0.2-0.4,0.5-0.6l2.6-1c0.3-0.1,0.6-0.2,0.8,0.1
	c0.2,0.2,0.6,0.4,0.4,0.6c-0.1,0.3-0.7-0.3-1.1,0s0,0.5,0.5,0.7c-0.6,0.3-1.2,0.5-1,1.1c0.2,0.6,0.5,0.6,1,0.6
	c0.3,0,0.5,0.4,0.7,0.9c0.4,0.6,0.2,1.4-0.5,1.8C42.7,19.9,42.7,20,42.7,20 M37.6,14.7c-0.7,0.1-0.7-0.6-1.9-0.9c1-0.3,2-0.6,3-1
	C38.9,13.6,38.6,14.6,37.6,14.7 M52.3,38.1c0.2-0.5-0.8-1.1-0.9-1.9c0-0.9-0.3-1.8-0.9-2.5c-0.9-1-3.9-4.2-4.8-5.3
	c0.5-0.1,1,0,1.3,0.4c0.3,0.3,1,0.9,1.6,1.5c0.7-1.9,1.8-3.6,3.2-5.1c0.2-0.2,0.4-0.4,0.5-0.6c-0.6,0.1-1.2,0.3-1.8,0.6
	c0-0.9,0-1.6-0.6-2.2c0.2-1.2,0-2.7-2.7-4.6c1.4,0.3,2.3,1.6,3.3,0.6c-1,0-1-2.1-4.5-3.9c1.3,0,2.4,2.1,3.9,0.9
	c-1.5-0.2-1.9-2.8-4.6-3.6c0.9,0.1,1.9,0.5,2.6-0.5c-0.9,0.2-1.4-0.6-2.4-0.7c0.4-0.9,0.3-1.9-0.1-2.7c-0.7,0-1.4,0.3-1.9,0.7
	c-0.1-0.6-0.7-0.7-1.3-0.6c0,0.3,0.2,0.7-0.1,0.7c-1.1,0.3-2.2,0.6-3.3,1c-1.1,0.4-2.1,1-3,1.6c-0.2,0.2-0.4-0.2-0.6-0.4
	c-0.4,0.4-0.8,0.8-0.5,1.3c-0.7,0-1.5,0.3-2,0.7c0.1,0.9,0.7,1.7,1.6,2c-1.6,1.6-0.2,3.1-1.6,4.5c2,0.1,1.7-2.7,2.7-3.1
	c-0.1,2-1.2,2.3-1.2,4.5c0,1.1,0.7,2.4,0.1,3.1c1.7-0.5,1.2-4.2,2.3-5.3c0.1,0.6,0.1,1.3-0.1,1.9c-0.6,1.7,0.1,4.1-0.9,4.9
	c1.7-0.2,1.9-2.9,3.3-4c-1.2,2.5-2.5,7.8-4.3,10.5c-2.9,4-4.7,8.8-7.4,8.8c-1.1,0.1-2-0.8-2.1-1.9c0-0.1,0-0.2,0-0.3
	c0-4.5,7.7-7.6,7.7-12.4c0.1-1.6-1.1-2.9-2.7-3c0,0-0.1,0-0.1,0c-0.9,0.1-1.7,0.4-2.4,1c-0.3-0.1-0.6-0.2-0.9-0.2
	c-2.7,0-2,4.9-4.4,4.9c0.9,0.5,2.6-0.5,3.5-1.9c-0.4,3.2-5,2.3-4.6,6.2c0.6-3,8-2.6,8-7.1c0-0.5-0.2-1-0.6-1.3
	c0.5-0.3,1-0.5,1.5-0.5c1,0,1.7,0.8,1.7,1.8c0,0.1,0,0.2,0,0.2c0,4-7.7,7.4-7.7,12.4c0,0.7,0.2,1.5,0.6,2.1
	c-0.6,0.2-1.2,0.1-1.6-0.4c0,1.3,1.8,2.1,2.9,1.4c0.3,0.1,0.5,0.2,0.8,0.2c-0.4,0.8-1.3,1.3-2.1,1.2c1.9,1.5,5.2-0.5,5-2.1
	c1.5-1.2,2.4-3.3,3.5-4.6c-0.1,0.3-0.1,0.6-0.2,0.9c-1.3,2-2.1,4.2-2.4,6.4c-0.2,2.2-1.4,4.2-2.9,4.2c-0.3,0-0.9-0.4-1.2-0.2
	c-0.5,0.4,0,0.8,0,1.3c0,0.6-1.2,1.3-1.2,3.2c0,0.9,0.5,1.9,0.3,2.5c0.7-0.5,1.2-1.3,1.4-2.1c0.5,2.6-1.1,2.4,0.1,4.7
	c0-0.5,0.5-0.9,1-0.8c0.1,0,0.2,0,0.3,0.1c0.5,0.3,0.2,0.5-0.1,0.9c-0.3,0.3-0.6,2,0.9,1.9c-0.3-0.2-0.3-0.6,0.5-0.8
	c1.1-0.2,1.4,0.3,2.5,0.3c0.7,0,0.9-0.9,1.4-0.9c0.6,0,0.6,0.4,0.4,0.7c0.9-0.2,1.1-0.7,1.1-1.2s-0.4-0.8-0.1-1
	c0.3-0.2,1.3,0,0.9,0.9c0.5-0.1,0.9-0.6,0.8-1.1c0-0.7-0.7-1-1.5-0.9c-0.1-0.4-0.7-0.6-1.3-0.6c-1.3,0-1.1,1-1.9,1
	c-1.4,0-2.7-1.8-2.7-4.8c0-1.6,1.7-2,3-2.6c1.9-0.8,3.6-2.2,4.7-4c1-1.7,1-3.6,0.9-5.8c1.3,0.7,2,2,1.9,3.5c0.1,0.9-0.4,1.8-1.2,2.2
	c-0.5,0.2-0.6,0.1-0.7,0.4c0,0.3,0.1,0.6,0.4,0.6c0.6,0.3,0.5,0.9,0.7,1.6c0.3,1,0.9,1.8,1.7,2.4c0.1-0.6,0.1-1.3,0-1.9
	c1.3,0.7,0.3,3.3,2.9,3.3c-0.3-0.2-0.4-0.6-0.2-0.9c0-0.1,0.1-0.1,0.2-0.2c0.3-0.1,0.6,0.2,1.1,0.9c0.5,0.7,0.4,0.6,1.6,0.6
	s0.7-0.4,1.3-0.4s0.6,0.7,0.2,1.3c0.8-0.1,1.3-0.9,1.2-1.6c0-0.1-0.1-0.3-0.1-0.4c0.5-0.3,1.1-0.2,1.5,0.3c0.1,0.1,0.1,0.3,0.2,0.5
	c0.5-0.5,0.5-1.3,0-1.8c-0.2-0.2-0.5-0.3-0.7-0.4c0-0.4-0.3-0.7-0.7-0.7c-0.4,0-0.8,0-1.2,0c-0.4,0-0.7,0.7-1.2,0.7
	c-1.6,0-4.9-3-4.9-4.2s3.1-2.1,3.1-4c0-2.6-2.5-3.5-4.7-5.1c0.8-0.8,3-1.1,4.3-0.4c0.1-0.7,0.6-0.5,0.8-1.8c0.4,1.1,0,2,0.4,2.5
	c0.4-0.5,1.3-0.4,1.2-1.8c0.3,0.8-0.4,2.1,0.3,2.7c0.1-0.7,0.5-0.8,0.8-0.8s0.5,0.2,0.5,0.6c0,1-1.3,0.5-1.3,1.7
	c0,0.5,0.6,0.7,0.6,1c-0.1,0.4-0.4,0.6-0.8,0.6c-0.1,0-0.3-0.1-0.3-0.2c0.2,0.5,0.6,0.8,1.1,0.8c0.6,0,1.2-0.4,1.4-1
	c0.3,0.7,0.1,1.6-0.5,1.7c0.6,0.3,1.9,0,1.7-1.7c0.7,0.1,1.1,0.6,0.7,1.5c0.6-0.2,1.2-0.4,1.2-1.1c0-0.7-0.6-0.7-0.3-1.3"
  />
  <path
    class="st1"
    d="M102.1,50.5c0-0.9,0.7-1.6,1.6-1.6s1.6,0.7,1.6,1.6c0,0.9-0.7,1.6-1.6,1.6C102.9,52.2,102.1,51.4,102.1,50.5
	C102.1,50.5,102.1,50.5,102.1,50.5 M101.6,50.5c0,1.2,1,2.2,2.2,2.2c1.2,0,2.2-1,2.2-2.2s-1-2.2-2.2-2.2h0
	C102.5,48.3,101.6,49.3,101.6,50.5"
  />
  <path
    class="st1"
    d="M94.4,54.4c-0.6-0.1-1.1-0.6-1-1c0-0.2,0.1-0.3,0.3-0.4c0.3-0.2,0.7-0.3,1-0.2c0.5,0,0.9,0.4,1,0.9
	c0,0,0,0.1,0,0.1C95.6,54.4,95,54.6,94.4,54.4C94.5,54.5,94.5,54.5,94.4,54.4 M93.5,52.5c-0.6,0.4-0.7,1.1-0.4,1.7
	c0,0.1,0.1,0.1,0.2,0.2c0.6,0.6,1.5,0.8,2.3,0.4c0.4-0.2,0.6-0.5,0.7-0.9c0.1-0.9-0.6-1.6-1.4-1.7C94.4,52.2,93.9,52.3,93.5,52.5"
  />
  <path
    class="st1"
    d="M81.3,23.3c0-0.3,0.2-0.6,0.5-0.8c0.2-0.2,0.5-0.3,0.8-0.3c0.2,0,0.3,0.1,0.4,0.2c0.1,0.1,0.1,0.3,0.1,0.4
	c0,0.3-0.2,0.6-0.4,0.7c-0.3,0.3-0.9,0.3-1.2,0C81.4,23.5,81.3,23.4,81.3,23.3 M81.5,22c-0.7,0.4-0.9,1.3-0.4,2c0,0,0,0,0,0l0,0
	c0.6,0.5,1.4,0.5,2,0c0.4-0.3,0.6-0.7,0.7-1.1c0-0.3,0-0.6-0.2-0.9c-0.2-0.2-0.5-0.4-0.8-0.4C82.3,21.6,81.8,21.7,81.5,22"
  />
  <path
    class="st1"
    d="M91.7,51.4L91.7,51.4c-0.2,0-0.4-0.1-0.5-0.2c-0.2-0.3-0.3-0.6-0.3-0.9c0-0.3,0.1-0.7,0.4-0.9
	c0.1-0.1,0.3-0.2,0.5-0.2c0.5,0,0.8,0.5,0.8,1.2c0,0.3-0.1,0.7-0.4,0.9C92.1,51.3,91.9,51.4,91.7,51.4 M90.9,48.9
	c-0.3,0.3-0.5,0.8-0.5,1.3l0,0c0,0.5,0.2,0.9,0.5,1.3c0.2,0.2,0.5,0.4,0.9,0.4c0.3,0,0.7-0.1,0.9-0.4c0.6-0.7,0.7-1.7,0.2-2.5
	c-0.2-0.3-0.6-0.5-1-0.5C91.4,48.5,91.1,48.6,90.9,48.9"
  />
  <path
    class="st1"
    d="M80.7,33.4c-0.5-0.2-0.8-0.7-0.7-1.2c0.1-0.2,0.2-0.3,0.4-0.3c0.3-0.1,0.7-0.1,1,0.1c0.3,0.1,0.5,0.4,0.7,0.7
	c0.1,0.2,0.1,0.4,0,0.5c-0.1,0.2-0.2,0.3-0.4,0.3C81.4,33.6,81,33.6,80.7,33.4 M80.3,31.3c-0.3,0.1-0.6,0.3-0.7,0.6
	c-0.3,0.8,0.1,1.7,0.9,2c0.4,0.2,0.9,0.3,1.4,0.1c0.6-0.2,1-0.9,0.8-1.5c0,0,0-0.1,0-0.1c-0.2-0.5-0.5-0.8-1-1
	C81.2,31.2,80.7,31.2,80.3,31.3"
  />
  <path
    class="st1"
    d="M96,41.2c-0.4,0.3-0.9,0.3-1.3-0.1c-0.3-0.4-0.3-0.9,0.1-1.3c0.3-0.3,0.8-0.3,1.1-0.1
	C96.4,40.2,96.4,40.8,96,41.2C96,41.2,96,41.2,96,41.2 M93.5,45.2c-0.4,0.3-0.9,0.3-1.3-0.1c-0.3-0.4-0.3-0.9,0.1-1.3
	c0.3-0.3,0.8-0.3,1.1-0.1C93.8,44.2,93.8,44.8,93.5,45.2 M84.7,23.1c0.3-0.9,0.9-2.8,0.9-2.8l1,0.4c-0.4,0.2-0.7,0.4-0.9,0.7
	c0.3,0.1,0.6,0.1,0.9-0.1l-0.4,1c-0.1-0.3-0.4-0.5-0.6-0.6c-0.2,0.5,0.1,1.1,0.6,1.3c0,0,0,0,0,0c0.6,0.3,1,0.4,1.2,0.1
	c0.2-0.3-0.2-0.8-0.7-0.6c-0.1-0.5,0.2-0.8,0.6-0.8c0.3,0,0.5,0.2,0.6,0.6c-0.1-0.8,0.4-1.5,1.1-1.7c0.3,0.7,0.1,1.5-0.6,2
	c0.3-0.2,0.6-0.1,0.8,0.1c0.2,0.3,0.1,0.7-0.3,0.9c0-0.3-0.3-0.5-0.5-0.5c-0.1,0-0.3,0.1-0.4,0.2c-0.2,0.3,0.1,0.7,0.6,1
	c0.4,0.3,1.1,0.2,1.4-0.2c0-0.1,0.1-0.1,0.1-0.2c-0.3-0.1-0.7,0-0.9,0.2l0.6-1.2c0.1,0.3,0.2,0.5,0.4,0.7c0.2-0.4,0.2-0.8,0-1.2
	l1.4,0.8c-0.4,0.1-0.8,0.3-1,0.6c0.3,0.1,0.6,0.1,0.8,0L90.7,25c0-0.3-0.1-0.6-0.3-0.9c-0.3,0.4-0.2,1.1,0.2,1.4
	c0.1,0,0.1,0.1,0.2,0.1c0.6,0.3,1,0.4,1.2,0.1c0.1-0.3,0-0.6-0.3-0.7c-0.1-0.1-0.3-0.1-0.4,0c0-0.5,0.3-0.8,0.6-0.7
	c0.3,0,0.5,0.3,0.5,0.7c0.1-0.8,0.7-1.4,1.4-1.5c0.2,0.8-0.3,1.6-1,1.8c0.3-0.1,0.6,0,0.8,0.2c0.2,0.3,0.1,0.7-0.4,0.9
	c0-0.3-0.2-0.5-0.5-0.5c-0.1,0-0.3,0.1-0.4,0.2c-0.2,0.3,0.1,0.6,0.6,1c0.4,0.4,1,0.4,1.4,0c0,0,0,0,0,0c-0.2-0.2-0.5-0.3-0.8-0.3
	l0.7-0.8c0,0.3,0.1,0.6,0.4,0.8c0.1-0.4,0.1-0.8,0.1-1.2l0.8,0.7c0,0-1.3,1.4-2,2.2L84.7,23.1z M95.3,35.2c0-0.2,0.1-0.4,0.2-0.5
	c0.1-0.1,0.3-0.2,0.5-0.2c0.3,0,0.7,0.2,0.9,0.4c0.2,0.2,0.4,0.6,0.4,0.9c0,0.2-0.1,0.4-0.2,0.5l0,0c-0.1,0.1-0.3,0.2-0.5,0.2
	c-0.3,0-0.7-0.2-0.9-0.4C95.5,35.8,95.3,35.5,95.3,35.2 M99.2,53.1c0.1-0.3,0.3-0.6,0.6-0.8c0.3-0.2,0.7-0.3,1-0.2
	c0.2,0,0.3,0.1,0.4,0.3l0,0c0.1,0.2,0.1,0.3,0.1,0.5c-0.1,0.3-0.3,0.6-0.6,0.8c-0.4,0.4-1,0.3-1.4-0.1
	C99.2,53.5,99.2,53.3,99.2,53.1 M80.7,26.1c0,0.3-0.1,0.6-0.3,0.8C80.3,26.9,80.1,27,80,27c-0.4-0.1-0.7-0.5-0.6-0.9
	c0,0,0-0.1,0-0.1c0-0.3,0.1-0.6,0.3-0.8c0.1-0.1,0.3-0.2,0.4-0.2c0.2,0,0.3,0.1,0.4,0.2C80.7,25.5,80.7,25.8,80.7,26.1 M86.4,14.3
	c0.3-0.6,0-1.5,1.1-1.5c0.5,0,1,0.5,1.6,0.7C88.2,13.6,87.3,13.9,86.4,14.3 M103.1,29c0.7,1.9,2.1,2.6,3.2,2.1
	c-2.4-0.3-0.5-4.4-3.5-4.4c-0.2,0-0.3,0-0.5,0c-0.5-0.5-1.3-0.8-2-0.8c-2,0.1-3.6,1.8-3.6,3.9c0,5.6,6.5,6.1,6.5,11.1
	c0,1.3-0.9,2.3-2.2,2.3c0,0-0.1,0-0.1,0c-1.1,0-2-1.2-2.9-3.2c-0.7-1.2-1.5-2.4-2.4-3.5c0.3,0.2,0.6,0.3,1,0.3
	c0.7,0,1.3-0.5,1.3-1.2c0,0,0,0,0-0.1l0,0c0-1-0.8-1.8-1.8-1.9c-0.3,0-0.7,0.1-0.9,0.3c-0.2,0.2-0.4,0.5-0.4,0.9l0,0
	c0,0.2,0,0.4,0.1,0.6c-1.4-1.8-2.7-3.6-2.7-4.6c0.2-1,0.6-1.9,1.3-2.5l0.3,0.1l0.2-0.2c0.3-0.3,0.8-0.9,1.9-2.1l0.1-0.1l0,0l0.3-0.3
	l-0.7-0.6c0.2-0.4,0.4-0.9,0.5-1.4c0.2,0.9,0.7,1.5,1.3,1.3c-0.4-0.9,0.4-2.2-0.1-4.5c0.5,0.9,1.3,1.3,1.8,1.2
	c-1.4-1.3,0.4-3.1-1.4-5.8c0.4,0.2,1,0.1,1.3-0.2c-1.7-0.2-0.9-2.4-3.9-3.2c0.7-0.1,1.2-0.6,1.1-1c-0.8,0.6-1.5-1.1-4.1-1
	c-0.3-1.1-1.1-2-2.2-2.4c0.1,0.7,0.1,1.4-0.2,2l-8.5-8.3c-0.2-0.2-0.4-0.3-0.4-0.2s-0.1,0.2,0.1,0.4l7.3,9.1
	c-0.6,0.2-1.1,0.4-1.6,0.6c-0.4,0.2-0.7,0.6-0.6,1c-1.1,0.5-2.2,1.2-3.1,2c-0.4,0.4-0.8,0.5-0.4,1.4c0.1,0.3-0.3,1.2,0.7,0.6
	c0.7-0.4,2.3-1.3,2.5-0.7c0.1,0.3-0.7,0.7-1.2,0.9c-0.5,0.2-1.1,0.6-1,0.8c0.1,0.2,0.5,0,0.5,0.2c0,0.2,0.2,0.4,0.4,0.5
	c0.2,0,0.5-0.4,0.7-0.3c0.2,0.1-0.1,1.1-0.3,1.4c0.8-0.1,1.3-0.7,1.4-1.5c0-0.6,0.2-0.8,0.3-0.8c0.1-0.1,0.3,0.7,0.1,1.1
	c0.4-0.1,0.9-0.7,0.8-1.7c0.2-0.2,0.4-0.3,0.6-0.3c0.3,0,0.8,0.8,1.6,0.8c1.1,0,2-0.7,2.3-1.7c0.1-0.4,0-0.8-0.2-1.2
	c0.4,0.4,0.7,1,0.7,1.5c0,2-3.6,3-5.1,4.4L87,20.5l-1.7-0.6l-0.1,0.4c0,0.1-0.1,0.2-0.1,0.3c-0.2,0.6-0.5,1.8-0.8,2.5l-0.1,0.3
	l0.1,0.1c-1,1.3-1.7,2.8-2,4.4c-0.4-0.4-0.8-0.8-1.2-1.1c0.1-0.2,0.1-0.3,0.1-0.5c0-0.4-0.1-0.9-0.4-1.2c-0.2-0.2-0.5-0.4-0.8-0.4
	c-0.3,0-0.6,0.1-0.8,0.3c-0.1,0-0.1,0.1-0.1,0.2l-0.2-0.1c-0.6-0.4-1.2-0.9-1.7-1.4c-0.2-0.2-0.5-0.3-0.7-0.3h-0.7
	c-0.2,0-0.4,0.2-0.7,0.4c-0.1,0.1-0.5,0.4-1,0.8c0.2,0.2,0.4,0.4,0.6,0.7l0.3,0.4l0.3-0.2c0.2-0.1,0.4-0.2,0.6-0.2
	c0.3,0,0.6,0.2,0.7,0.5c0.1,0.2,1.5,2,2.7,3.3c-0.1,0-0.2,0.1-0.4,0.1c-0.7,0.2-1.4,0.2-2.1,0.1c-0.5,0-0.6-0.2-0.9,0.4
	c-0.1,0.2-0.3,0.4-0.4,0.6s-0.3,0.4,0.1,1c0.8,1.3,1.5,2.7,2.2,4.1c0.3,0.8,0.9,1.3,1.7,1.5c0.8,0.3,1.6,0.8,2.3,1.3v-0.8
	c-0.4-0.3-0.8-0.5-1.3-0.6c-0.3-0.1-0.4-0.2,0-0.2c0.7,0.1,1.4,0.3,2,0.6c-0.3-0.8-0.8-1.4-1.3-2c-0.4-0.2-0.9-0.2-1.4,0
	c0,0.2-0.1,0.3-0.3,0.4c0,0,0,0-0.1,0c-0.2,0-0.3-0.1-0.3-0.3c0,0,0-0.1,0-0.1c0.1-0.2,0.4-0.3,0.3-0.7c-0.1-0.4-0.6-0.5-1-0.5
	c-0.5-0.7-1-1.7-1.3-2.1c-0.3-0.4-0.1-0.6,0.1-0.8c0.4-0.3,1.3,0.2,3,0.3l2.1,0.1c0.2,2,1,3.9,3.8,4.6c1.4,0.3,2.6,1.3,3.2,2.6
	c-5.6-0.1-6.4,2.1-6.4,4.1c0,2.3,2,2.2,2,4c0,1.5-4.7,2.1-6.1,2.4c-0.9,0-1.8,0.4-2.5,1c-0.6,0.6-1.2,1.1-2.2,2.2
	c0.3,0.1,0.6,0.1,0.9,0.1l0.8-1c0.2-0.3,0.4-0.6,0.5-0.6s0,0.3-0.1,0.6l-0.7,1.1c2.8,0.2,2.9-0.8,2.9-1.2s-0.7-0.7-0.3-1
	c0.4-0.3,0.7-0.1,1,0.3c0.3,0.4,0.4,0.7,1.2,0.4c0,0,6-2.5,6.8-2.8c0.8-0.3,0.5-0.6,0.1-0.9c-0.4-0.4-0.6-1-0.5-1.6
	c0-1.8,1.1-2.4,3-2.3c0,0.3-0.1,0.6-0.1,0.9c0,2.8,4.3,5.6,5.4,5.6c0.5,0,1.2-0.4,1.3,1.3c0.1,1.2,0.2,2.4,0.1,3.6
	c0,1-0.6,1.9-1.5,2.3c-0.9,0.6-1.7,2.5-2.1,2.9c0.4,0.3,0.8,0.3,1.1-0.6c0.1-0.6,0.4-1.1,0.9-1.5c-0.3,0.8-0.6,2.1-0.7,2.5
	c1.1,0.2,2.9-0.8,2.9-1.6c0-0.8-0.6-0.7-0.6-1.2c0.1-0.3,0.3-0.5,0.6-0.5c0.3,0,0.7,0.2,0.8,0.5c0.5-0.3,0.8-0.7,0.8-1.9
	c0-0.4,0-0.9,0-1.4c0,0.1,0.1,0.1,0.1,0.2c0.2,0.3,0.6,0.5,1,0.6c0.4,0,0.8-0.1,1.2-0.3c0.4-0.3,0.7-0.7,0.8-1.2c0-0.1,0-0.2,0-0.3
	c0-0.2-0.1-0.5-0.2-0.7c-0.2-0.3-0.5-0.5-0.8-0.5c-0.5-0.1-1,0-1.4,0.3c-0.4,0.2-0.7,0.6-0.8,1.1c-0.1-1.5-0.2-3-0.2-3.6
	c0.1-0.9,0.1-1.3-0.2-1.4c-0.3-0.1-0.6,0.4-1,0.4c-1-0.4-1.7-1.4-1.7-2.4c0-1.2,1.3-2.8,1.3-4.5c0-0.5,0.3-0.8,0.5-0.3
	c0.3,0.7,0.7,1.4,1.2,2c-0.4,2.1,2,4.2,3.9,2.6c-1,0.1-1.6-0.7-2-1.5c0.2,0,0.3,0,0.5,0h0.3c0.9,0.7,2.2,0.6,2.9-0.3
	c0.2-0.3,0.4-0.7,0.5-1c-0.4,0.5-1.1,0.7-1.7,0.7c0.8-0.7,1.3-1.7,1.2-2.7c0-5.3-6.5-6-6.5-10.8c0-1.5,1.1-2.8,2.7-3
	c0.4,0,0.7,0.1,1,0.3c-0.5,0.5-0.7,1.2-0.6,1.9c0.2,3.8,6.4,3.6,6.5,5.5C108,31.9,103.2,32.8,103.1,29"
  />
</svg>
