<?xml version="1.0" encoding="utf-8"?>
<!-- Generator: Adobe Illustrator 23.1.1, SVG Export Plug-In . SVG Version: 6.00 Build 0)  -->
<svg version="1.1" id="Layer_1" xmlns="http://www.w3.org/2000/svg" xmlns:xlink="http://www.w3.org/1999/xlink" x="0px" y="0px"
	 viewBox="0 0 300 300" style="enable-background:new 0 0 300 300;" xml:space="preserve">
<style type="text/css">
	.st0{fill:#70777A;}
</style>
<path class="st0" d="M18.1,143.3C18.1,143.3,18,143.3,18.1,143.3C18.1,143.3,18.1,143.3,18.1,143.3"/>
<path class="st0" d="M174.2,152.2c-0.8-5.6-2.9-11.1-6.1-15.8c0.4-0.3,0.8-0.8,0.9-1.5c-0.7-0.1-1.2,0.1-1.6,0.4
	c-0.2-0.3-0.4-0.6-0.7-0.9c-4-5-9-8.5-14.4-10.1c-0.1-0.9-0.9-1.3-1.3-1.1c-0.3,0.1-0.5,0.3-0.6,0.6c-0.1,0-0.2-0.1-0.3-0.1
	c-0.3-0.3-0.7-0.5-1.2-0.5c0,0.6,0.1,1.1,0.4,1.4v0.1c-0.4,0-0.6,0.2-0.8,0.4c-0.2,0.4,0,1.2,0.8,1.5v11.6c-0.5,0-1,0.2-1.4,0.6
	c0.4,0.4,0.9,0.6,1.4,0.6v12.5c-0.7,0.2-1,0.9-0.8,1.4c0.1,0.3,0.4,0.5,0.8,0.5v0.3c-0.2,0.3-0.3,0.7-0.4,1.2c0.5,0,0.8-0.1,1.1-0.3
	h0.3c0,0.4,0.2,0.7,0.5,0.8c0.4,0.2,1.1-0.1,1.4-0.8h8.4c0,0.5,0.2,1,0.6,1.5c0.4-0.5,0.6-1,0.6-1.5h9.5c0.2,0.8,1,1.1,1.4,0.9
	c0.3-0.1,0.5-0.4,0.5-0.9h0.2c0.3,0.2,0.8,0.4,1.3,0.4c0-0.5-0.2-0.8-0.3-1.1c0-0.1,0-0.2,0-0.3c0.4,0,0.7-0.2,0.8-0.5
	C175.4,153.1,175,152.3,174.2,152.2 M166.1,135c4.4,5.5,7,12.4,7.6,19.4H150v-29.7C156,125.9,161.7,129.5,166.1,135"/>
<path class="st0" d="M173.1,153.5c-0.7-6.6-3.3-13.1-7.4-18.2c-2-2.5-4.3-4.7-6.8-6.4c-2.5-1.7-5.2-2.9-7.9-3.5l-0.5-0.1v28.7h22.6
	L173.1,153.5z M164.8,135.4c-0.2,0.2-0.2,0.5-0.2,0.7c0.1,0.3,0.4,0.6,1,0.6c-0.4,0.3-0.7,0.7-0.8,1.4c0.6,0.1,1.1-0.1,1.5-0.3
	c-0.1,0.6,0.1,0.9,0.4,1.1c0.2,0.1,0.4,0.1,0.6,0.1c2.4,4,4.1,8.5,4.8,13.2c-0.3-0.2-0.7-0.2-1.1-0.2c0,0.5,0.2,0.9,0.4,1.2h-8
	c0-0.4-0.3-0.8-0.5-0.9c-0.3-0.1-0.7-0.1-1.1,0.4c0-0.5-0.2-1-0.6-1.4c-0.4,0.5-0.6,1-0.6,1.4c-0.4-0.5-0.8-0.5-1.1-0.4
	c-0.3,0.1-0.5,0.4-0.6,0.9h-6.8c0.2-0.3,0.4-0.7,0.4-1.2c-0.5,0-0.9,0.2-1.2,0.4v-11c0.5,0,0.9-0.2,1-0.5c0.1-0.3,0.1-0.7-0.4-1.1
	c0.5,0,1-0.2,1.4-0.6c-0.5-0.4-1-0.6-1.4-0.6c0.5-0.4,0.5-0.8,0.4-1.1c-0.1-0.3-0.5-0.6-1-0.6v-9.4c0.3,0.2,0.6,0.3,1,0.4
	c0-0.5-0.1-0.9-0.2-1.2C156.8,128,161.2,131.1,164.8,135.4"/>
<path class="st0" d="M168.6,149L168.6,149c0.4-0.2,0.8-0.6,0.9-0.9c-0.5,0.2-0.9,0-1-0.1c0.3-0.2,0.8,0,0.4-0.6
	c-0.4-0.6-0.7-0.7-1.1-0.2c-0.4,0.4-3.1-0.1-3.1-2.2c0,0,0,0,0,0c0.2,0.3,0.5,0.6,0.9,0.7c1.3,0.8,2.6,0.3,2.7-0.8
	c0.1-1.1-1-1.7-2.1-2.6c-0.5-0.4-0.9-0.8-1.2-1.1c-0.4-0.8,0-1.5-1.1-2.9c-0.1-0.4-0.1-0.8-0.3-1.3c-0.5,0.9-0.8,2.8,0.6,4.3
	c1.1,1.2,3.6,2.4,3.5,3.5c0,0.3-0.3,0.5-0.7,0.6c-0.5,0-1.1-0.4-1.6-0.8c-0.1-0.1-0.2-0.1-0.2-0.2l0,0c-1-0.9-1.9-2.3-2.5-3.1
	c-1.1-1.4-0.6-2.8-0.4-4c0.8-1.1-0.5-3.3-1.2-3.9c0,0,0.2-0.5-0.1-1.2c-0.2,0.1-0.5,0.1-0.7,0.1c-0.2-0.4-0.3-0.5-0.6-0.6
	c-0.5-0.1-0.5-0.4-0.5-0.5c-0.3,0.2-0.4,0.5-0.7,0.5c-0.4,0-0.6,0-0.7,0.1c-0.3,0.2-0.4,0.3-0.8,0.3c-0.4,0-0.4,0.3-0.4,0.6
	c0,0.2,0,0.5,0.3,0.7c0,0,0.1,0,0.1,0.1l0.4,0.4l0.3-0.5c0,0,0,0,0,0c0.2-0.2,0.8-0.2,0.9,0.2c0.1,0.3,0.1,0.4-0.3,0.4
	c-0.4,0.1-0.6,0.1-1,0.1c-0.3,0-0.2,0.3-0.2,0.6c0,0.3,0.3,0.4,0.9,0.3c0.5-0.1,1.5-0.2,1.5,0.2c0,1.2-1.5,1.1-1.7,2.6
	c-0.3-0.2-0.6-0.5-0.8-0.8c-0.2-0.4-0.5-0.8-1-1.3c-0.3-0.3-0.7-0.6-1-0.8c-0.5-0.3-0.5-0.5-0.5-1c0-0.4,0.2-0.8,0.2-1.2
	c0,0-0.1-0.3-0.1-0.4c-0.1-0.3-0.4-0.5-0.6-0.4c0.1,0.1,0.2,0.2,0.3,0.4c-0.1,0.1-0.2,0.2-0.2,0.2c-0.1,0.1-0.1,0.3,0,0.4
	c0,0,0,0.1,0,0.1c0,0.1,0,0.1,0,0.2c0,0.1,0,0-0.1,0c-0.1-0.3-0.3-0.7-0.5-0.8c0,0-0.2,0-0.2,0c0,0,0,0,0-0.1c0-0.3-0.4-0.6-0.7-0.2
	c0.1,0,0.2,0,0.3,0.1c0,0.1-0.1,0.3-0.1,0.3c0,0.3,0.2,0.4,0.6,0.5c0.1,0,0.1,0,0.1,0.1c0,0,0,0.1,0,0.1c0,0.1,0,0.1-0.1,0
	c-0.6-0.2-0.8,0-0.8,0.3c0,0,0,0.2,0,0.2c-0.2,0.1-0.2,0.4,0.1,0.7c0-0.1,0-0.3,0.1-0.4c0,0,0.1,0,0.1,0c0,0.1,0.1,0.1,0.1,0.1
	c0,0,0.1,0,0.3-0.1c0,0,0.1,0,0.1,0c0.1,0,0.1,0.1,0.2,0.1c0,0,0,0.1,0,0.1c-0.4,0.4-0.3,0.7,0.2,0.8c-0.2,0.4-0.9,0.2-0.8-0.4
	c-0.5,0.7,0.3,1.3,1,1c0,0.3,0,0.8,0.1,0.8c0,0,0-0.2,0.1-0.2c0,0,0.1,0,0.1,0.1c0,0.2,0.1,0.4,0.3,0.4c0-0.1,0-0.2,0.1-0.3
	c0.1,0.2,0.2,0.4,0.3,0.6c0.3,0.5,0.9,2,2.4,2.6c-0.7,0.4-1.3,1.1-1.7,1.6c-0.4,0.4-1,0.8-1.4,0.6c-0.2-0.1-0.2-0.2-0.4-0.4
	c-0.2-0.1-0.3-0.2-0.5-0.1c0,0-0.1,0-0.2,0.1c-0.2-0.1-0.6,0-0.7,0.2c0.1,0,0.3-0.1,0.5,0.1c0,0.1,0,0.2,0,0.3
	c0,0.2,0.1,0.4,0.9,0.3c0,0,0.1,0,0.1,0.1c-0.1,0.1-0.2,0.2-0.4,0.1c-0.3-0.1-0.5-0.4-0.7-0.1c0,0-0.1,0.1-0.2,0.2c0,0-0.1,0-0.1,0
	c-0.3,0.1-0.6,0.7-0.2,0.9c0-0.1,0-0.3,0.2-0.5c0.1,0.1,0.1,0.2,0.1,0.2c0.2,0.3,0.5,0.5,1-0.2c0.1-0.1,0.1,0,0.1,0
	c0,0.3-0.4,0.8,0.1,0.9c0,0,0.1,0,0.2,0.1c0,0,0,0.1,0,0.1c0.1,0.4,0.6,0.5,0.9,0.4c-0.1-0.1-0.4-0.2-0.5-0.5c0.1,0,0.2,0,0.2,0
	c0.3-0.3-0.1-0.6,0.1-0.8c0-0.1,0.1-0.1,0.1,0c0.1,0.1,0.3,0.5,0.7,0.3c0.2-0.1,0.3-0.3,0.3-0.5c0.5-0.2,0.9-0.4,1.3-0.2
	c-0.1-0.3,0.2-0.6,0.8-0.8c0.5-0.1,0.8,0,0.9,0.2c0-0.2,0.3-0.6,0.5-0.9c-0.1,2.1,2.8,2.1,3.5,3.3c-0.9-0.3-1.8-0.5-2.4-0.4
	c-0.7,0.1-1.9,0.8-2.1,1.6c-0.1,0.6,0.5,1.8,1.2,2.3c-0.8,0.2-1.1-0.1-1.9,0.1c0,0-0.1,0-0.1,0c-0.7,0.1-0.8-1.1-1.5-0.8
	c0,0-0.2,0.1-0.2,0.2c-0.3,0-0.7,0.4-0.6,0.7c0.1-0.1,0.2-0.2,0.5-0.3c0,0.1,0,0.2,0,0.2c0,0.1,0,0.2,0.3,0.2c0.2,0,0.2-0.1,0.3-0.1
	c0.1,0,0.1,0,0.1,0.1c0,0.3-1-0.2-0.8,0.6c0,0,0.1,0.2,0.2,0.2c0,0.2,0.2,0.5,0.6,0.4c-0.1-0.1-0.2-0.2-0.2-0.3c0.1,0,0.2,0,0.2,0
	c0,0,0.1,0,0.1-0.1c0,0,0,0,0,0c0,0,0.1,0,0.1,0.1c0,0-0.1,0.1-0.1,0.2c0,0,0,0.2,0.1,0.3c0,0.3,0.4,0.6,0.8,0.3
	c-0.1,0-0.4-0.1-0.4-0.2c0.1,0,0.2-0.1,0.2-0.1c0.1-0.1,0.1-0.2,0.1-0.3c0-0.1,0-0.1,0.1-0.1c0.1,0,0.1,0,0.2,0c0.1,0,0.1,0,0.1,0.1
	c0.1,0.2,0.3,0.3,0.6,0.3c0.2-0.1,0.2-0.1,0.3-0.2c0.1,0.1,0.2,0.1,0.3,0.2c-0.1-0.3,0.1-0.6,0.8-0.1l0.5-0.4c0,0,0.6,0.3,0.9,0
	c0.4-0.4,0.2-0.4,0.2-0.7c-0.3-0.6-0.4-0.6-0.6-1.2c-0.2-1.1,1.3-1.7,2.1-1.5c0.2,0.7,1.1,2.5,2.7,3c1,0.3,1.4-0.7,1.7-0.6
	c0.1,0,0.1,0.1,0.2,0.2c-0.1,0.5,0,1-0.1,1.2c-0.1,0.2-0.6,0-1,0c-0.2,0-0.4,0.1-0.4,0.2c-0.3,0.1-0.6,0.3-0.6,0.7
	c0.1-0.1,0.3-0.2,0.5-0.3c0,0.1,0,0.1,0,0.1c0,0.4,0.5,0.6,0.8,0.3c0,0,0.2,0,0.1,0.1c-0.2,0.2-0.7,0.6-0.3,0.7c0,0,0.1,0.1,0.2,0.1
	c0,0.3,0.2,0.5,0.4,0.5c-0.1-0.1-0.1-0.2,0-0.5c0.1,0,0.2,0,0.2,0c0.3,0,0.1-0.5,0.4-0.7c0,0,0.1,0,0.1,0c-0.1,0.3-0.1,0.7,0.1,0.8
	c0,0,0.1,0,0.2,0c0.1,0.2,0.4,0.4,0.7,0.2c-0.1,0-0.3-0.1-0.3-0.2c0.1-0.1,0.2-0.2,0.2-0.3c0.2-0.6-0.4-0.7-0.4-0.9
	c0-0.3,0.6-0.1,0.6-0.7c0,0,0-0.1,0-0.1c0.3-0.2,0.6-0.4,0.6-0.6C169.1,149.2,168.7,149,168.6,149"/>
<path class="st0" d="M157.6,133.5L157.6,133.5C157.6,133.5,157.6,133.5,157.6,133.5"/>
<path class="st0" d="M141.8,165.4l-0.6,0l0-0.5c0.1-2-1.1-3.4-3.2-3.4c-1.9,0-5.6,2.5-10.7,2.5c-2.2,0-4.8-1.1-6.4-2l-0.6,1.5
	c0-0.1,0-0.1,0-0.2c0-0.7-0.6-1.3-1.3-1.3c-0.7,0-1.3,0.6-1.3,1.3c0,0.7,0.6,1.3,1.3,1.3c0.4,0,0.8-0.2,1-0.5l-0.6,1.5
	c0.2,0.1,0.4,0.2,0.7,0.3c-0.7,7.8,4.8,17.6,15,20.6c1.5-0.4,3.2-0.1,3.2,1.5c0,1-0.5,1.5-1.4,1.5c-0.6,0-1-0.4-1-0.8
	c0-0.7,1.2-0.3,1.3-0.7c0.1-0.6-0.2-0.9-1-0.9c-0.7,0-1.8,0.5-1.8,1.6c0,1.4,1.1,2.2,2.3,2.2c1.1,0,3.5-0.6,3.2-3.4
	c0.5,0,1.2-0.1,1.3-0.6l0.1-1.6l-0.5-0.1l0.4-17.8l0.4,0c0.7,0.1,1.2-0.3,1.3-1C142.9,165.8,142.4,165.5,141.8,165.4 M123.5,166.8
	l12.3,17.7C129.2,182.2,122.6,176.1,123.5,166.8 M136.2,182.9l-11.2-16.2c0.4,0,0.7,0,1,0c0.6,0,1.2,0,1.7-0.1l9,12.9
	C136.5,180.8,136.3,182,136.2,182.9 M129.1,166.4c0.9-0.2,1.7-0.5,2.5-0.8l6,8.6c-0.2,1.2-0.4,2.4-0.6,3.6L129.1,166.4z
	 M138.9,165.2l-0.4,0c-0.5,0-1.2,0.2-1.3,0.9c-0.1,0.7,0.4,1.1,1.1,1.1l0.3,0l-0.8,5.1l-5-7.2c2.3-0.9,4.3-1.9,5.3-1.9
	C138.9,163.2,139.1,163.6,138.9,165.2"/>
<path class="st0" d="M137.8,127.5L137.8,127.5C137.8,127.5,137.8,127.5,137.8,127.5"/>
<path class="st0" d="M140.4,132.6c2.5,0,3.7-0.8,3.7-1.6c0-2.8-6.9-1.1-6.9-2.7c0-0.3,0.2-0.5,0.5-0.7c0,0,0,0,0,0
	c3.5-0.2,3.6-2.7,6.1-3.2c-3-0.4-3.4,1.9-4.7,2c0.7-0.3,0.9-1.1,0.9-1.4c-0.6,0.8-2,0.9-2.7,1.8c-0.1,0.1-0.2,0.3-0.1,0.5
	c-0.4,0.3-0.7,0.6-0.7,1c0,2.6,7,0.8,7,2.7c0,0.7-1.2,1.1-3.1,1.1c-1.4,0-2.5-1-5.1-0.3c0-0.4,0.9-1.3,0.6-1.7
	c0.3-0.1,0.4-0.3,0.4-0.5c-0.2-0.1-0.3-0.2-0.5-0.2c0.1-0.1,0-0.3-0.1-0.4c0,0-0.1-0.3-0.1-0.4c-0.1-0.1-0.3-0.3-0.6-0.4
	c-0.3-0.2-0.5-0.2-0.6-0.2c-0.1,0-0.4,0.1-0.4,0.1c-0.1,0-0.3,0-0.3,0.2c-0.1-0.1-0.3-0.2-0.5-0.2c-0.1,0.2-0.1,0.4-0.1,0.8
	c-0.2,0-0.5,0.7-0.7,0.6c0.1,0.2,0.2,0.2,0.2,0.3c-0.2,0.4-0.3,0.8-0.5,0.8c0,0.1,0.1,0.2,0.2,0.2c-0.2,0.6-0.3,1.2-0.4,1.6h0
	c-0.1-0.1-0.3-0.3-0.5-0.4c-0.4-0.2-0.4-0.4-0.3-0.8c0.1-0.4,0.3-0.7,0.3-1c0,0,0-0.2-0.1-0.3c0-0.2-0.3-0.4-0.5-0.4
	c0.1,0.1,0.2,0.1,0.2,0.4c-0.1,0.1-0.2,0.2-0.2,0.2c-0.1,0.1-0.2,0.2,0,0.3c0,0,0,0,0,0.1c0,0,0,0.1-0.1,0.2c0,0.1,0,0-0.1,0
	c-0.1-0.3-0.1-0.6-0.4-0.6c0,0-0.1,0-0.2,0c0,0,0,0,0-0.1c0-0.3-0.2-0.5-0.6-0.2c0.1,0,0.2,0,0.2,0.1c0,0.1-0.1,0.2-0.1,0.3
	c-0.1,0.3,0.1,0.4,0.4,0.4c0.1,0,0.1,0,0.1,0.1c0,0,0,0.1,0,0.1c0,0,0,0-0.1,0c-0.5-0.2-0.7,0-0.8,0.2c0,0,0,0.1,0,0.2
	c-0.2,0.1-0.3,0.3,0,0.5c0-0.1,0-0.3,0.2-0.3c0,0,0,0,0.1,0c0,0.1,0.1,0.1,0.1,0.1c0,0,0.1,0,0.3-0.1c0,0,0.1,0,0.1,0
	c0,0,0.1,0.1,0.1,0.1c0,0,0,0,0,0.1c-0.4,0.3-0.4,0.6,0.1,0.7c0.1,0,0.1,0,0.1,0.1c-0.1,0.6-0.9,0.4-0.8-0.1
	c-0.5,0.6,0.2,1.1,0.8,0.8c0,0,0.1,0,0.1,0c0,0.1,0.1,0.2,0.2,0.2c0,0,0.1-0.1,0.1-0.1c0,0,0,0,0,0.1c0,0.2,0,0.3,0.2,0.4
	c0-0.1,0-0.2,0.1-0.2c0.1,0,0.3,0.5,0.6,0.9c-0.6,0.2-1.5,0.5-1.5,0.5c-0.1,0-0.9-0.1-1.2,0.1c-0.4,0.2-1.4,0.6-1.6,0.2
	c-0.1-0.1-0.1-0.3-0.2-0.5c-0.1-0.1-0.2-0.2-0.3-0.3c0,0-0.1,0-0.2,0c-0.2-0.2-0.5-0.2-0.7-0.1c0.1,0,0.2,0,0.4,0.2
	c-0.1,0.1-0.1,0.2-0.1,0.2c-0.1,0.1,0,0.3,0.6,0.5c0,0,0.1,0.1,0,0.1c-0.1,0-0.2,0.1-0.3,0c-0.2-0.2-0.3-0.5-0.6-0.3
	c0,0-0.1,0-0.2,0.1c0,0,0,0-0.1,0c-0.3,0-0.7,0.3-0.5,0.6c0-0.1,0.1-0.2,0.3-0.3c0,0.1,0.1,0.2,0.1,0.2c0.1,0.3,0.2,0.5,0.8,0.1
	c0.1,0,0.1,0,0,0c-0.1,0.3-0.6,0.5-0.2,0.7c0,0,0.1,0.1,0.2,0.1c0,0,0,0,0,0.1c-0.1,0.4,0.3,0.6,0.5,0.6c-0.1-0.1-0.2-0.3-0.2-0.5
	c0.1,0,0.2,0.1,0.2,0.1c0.3-0.1,0.2-0.5,0.3-0.6c0.1,0,0.1,0,0.1,0c0,0.1,0.1,0.5,0.5,0.5c0.3,0,0.5-0.3,0.5-0.5c0,0,0,0,0,0
	c0.1,0.1,0.2,0.2,0.2,0.4c0.1,0,0.2-0.1,0.3-0.3c0.1,0.2,0.1,0.4-0.1,0.6c0.1,0,0.5-0.2,0.6-0.6c0.1,0.1,0.1,0.1,0.1,0.2
	c0,0,0,0,0,0c0.1,0,0.4,0.1,0.7,0c0,0,0.1,0,0,0c0,0.2,0,0.3,0,0.4c0-0.1,0.1-0.2,0.1-0.2c0.1,0,0,0.4,0.2,0.6
	c0.1-0.9,0.6-0.6,1.2-0.9c0.1-0.1,0.1,0,0.1,0c0,0.1-0.1,0.2-0.2,0.3c0.2,0,0.7-0.2,0.7-0.5c0-0.1,0.2-0.2,0.4-0.3
	c0.2,0.1,0.5-0.1,0.7-0.3c0,0.1,0.1,0.4,0,0.4c0.6,0,1.2-0.7,1.5-0.7c1.3-0.3-0.8-1.2,1.9-1.1c0.2,0,0.6-0.1,0.8-0.3
	c-0.2,0.4-0.2,1.2,0.2,1.3c0.2,0,0.6,0.2,0.7,0.3c0,0,0,0.1,0,0.1c-0.2,0-0.5,0.1-0.6,0.1c-0.6,0.4-0.6-0.9-1.3-0.7
	c0,0-0.1,0.1-0.2,0.1c-0.3,0-0.6,0.3-0.6,0.6c0.1-0.1,0.2-0.2,0.4-0.2c0,0.1,0,0.1,0,0.1c0,0.1,0,0.2,0.2,0.2c0.1,0,0.2-0.1,0.3-0.1
	c0,0,0.1,0,0.1,0.1c0,0.3-0.8-0.1-0.7,0.6c0,0,0.1,0.2,0.1,0.2c0,0.2,0.1,0.4,0.5,0.3c-0.1-0.1-0.2-0.1-0.2-0.2c0.1,0,0.1,0,0.2,0
	c0,0,0.1,0,0.1-0.1c0,0,0,0,0,0c0,0,0.1,0,0.1,0.1c0,0-0.1,0.1-0.1,0.1c0,0,0,0.2,0.1,0.2c0,0.3,0.3,0.5,0.7,0.3
	c-0.1,0-0.3-0.1-0.4-0.2c0.1,0,0.2-0.1,0.2-0.1c0.1,0,0.1-0.1,0.1-0.2c0-0.1,0-0.1,0.1-0.1c0.1,0,0.1,0,0.2,0c0.1,0,0.1,0,0.1,0.1
	c0.1,0.1,0.3,0.3,0.5,0.2c0.4-0.2,0.1-0.5,0.4-0.6c0.1,0,0.2,0,0.3,0c0.3,0.1,0.9,0.1,1-0.1c0.1-0.2,0.1-0.8-0.3-1
	c-0.2-0.1,0-0.4-0.2-0.7c0.4,0.2,0.8,0.3,1.3,0.3c1,0,0-0.2,0.5-0.4c0.5-0.3,1-0.2,1.2-0.1c0.1,0,0.2,0.1,0.2,0.2
	c-0.1,0.5,0.1,0.5-0.1,0.8c-0.1,0.2-0.5,0-0.8,0c-0.2,0-0.3,0.1-0.3,0.1c-0.2,0.1-0.5,0.3-0.5,0.6c0.1-0.1,0.2-0.2,0.4-0.2
	c0,0,0,0.1,0,0.1c0,0.3,0.4,0.5,0.6,0.2c0,0,0.1,0,0.1,0c-0.2,0.1-0.5,0.5-0.2,0.6c0,0,0.1,0.1,0.2,0.1c0,0.2,0.1,0.4,0.3,0.4
	c-0.1-0.1-0.1-0.2,0-0.4c0.1,0,0.1,0,0.2,0c0.2,0,0.1-0.4,0.3-0.6c0,0,0.1,0,0,0c-0.1,0.2-0.1,0.5,0.1,0.6c0,0,0.1,0,0.2,0
	c0.1,0.2,0.3,0.3,0.6,0.2c-0.1,0-0.2-0.1-0.3-0.2c0.1-0.1,0.1-0.2,0.2-0.2c0.1-0.5-0.3-0.5-0.3-0.7c0-0.3,0.5-0.1,0.5-0.6
	c0-0.1,0-0.3-0.2-0.3c0,0,0,0,0,0h0c0.1,0,0.3,0,0.4-0.2c-0.4,0-0.3-0.3-0.3-0.5c0,0,0-0.1,0-0.1c0.1-0.1,0.2-0.2,0.2-0.6
	c-0.1,0.2-0.5,0.4-0.6,0c0,0,0-0.3-0.4-0.2C141.9,133.1,141.6,132.8,140.4,132.6C140.3,132.7,140.2,132.6,140.4,132.6 M134,129.1
	c-0.1,0.2-0.3,0.3-0.5,0.2c-0.2-0.2,0-0.2-0.2-0.6C133.5,128.8,133.9,129.1,134,129.1 M134.5,130.4c-0.1,0-0.1-0.2-0.2-0.2
	c-0.1,0-0.1,0.1,0,0.2c-0.2-0.1-0.3-0.1-0.4,0c-0.1,0.1,0,0.2,0.1,0.3c0,0.1,0,0.2,0,0.3c-0.1,0.1-0.2,0.4-0.5,0.2
	c-0.2-0.1-0.2-0.4-0.1-0.5c0.1-0.1,0.1-0.3,0.2-0.3c0.1,0,0.2,0,0.3-0.2c0-0.2-0.1-0.2-0.2-0.3c0.1,0,0.2-0.1,0.1-0.2
	c-0.1-0.1-0.2,0.1-0.3,0c0-0.1,0.1-0.1,0.1-0.2c0.1-0.1,0.1,0,0.2,0l0.7,0.3c0.1,0,0.1,0.1,0.1,0.2
	C134.5,130.2,134.5,130.3,134.5,130.4 M134.8,129.9c-0.2,0-0.3-0.3-0.3-0.5c0.1,0.1,0.6,0.3,0.8,0.3
	C135,129.7,135.1,129.9,134.8,129.9"/>
<path class="st0" d="M125.3,140.9c-0.3-0.2-0.6-0.6-1-0.9c-0.5-0.3-0.5-0.5-0.4-1c0-0.4,0.2-0.8,0.2-1.2c0,0-0.1-0.2-0.1-0.3
	c-0.1-0.3-0.4-0.5-0.6-0.4c0.1,0.1,0.2,0.2,0.2,0.4c-0.1,0.1-0.2,0.2-0.2,0.2c-0.1,0.1-0.1,0.3,0,0.4c0,0,0,0.1,0,0.1
	c0,0.1,0,0.1,0,0.2c0,0.1,0,0-0.1,0c-0.1-0.3-0.2-0.7-0.5-0.7c0,0-0.1,0-0.2,0c0,0,0,0,0-0.1c0-0.3-0.3-0.5-0.7-0.2
	c0.1,0,0.2,0,0.3,0.1c0,0.1-0.1,0.3-0.1,0.3c0,0.3,0.2,0.4,0.5,0.4c0.1,0,0.1,0,0.1,0.1c0,0,0,0.1,0,0.1c0,0.1,0,0.1,0,0
	c-0.5-0.2-0.8,0-0.8,0.2c0,0,0,0.2,0,0.2c-0.2,0.1-0.3,0.4,0.1,0.6c0-0.1,0-0.3,0.1-0.3c0,0,0,0,0.1,0c0,0.1,0.1,0.1,0.1,0.1
	c0,0,0.1,0,0.3-0.1c0,0,0.1,0,0.1,0c0,0,0.1,0.1,0.1,0.1c0,0,0,0.1,0,0.1c-0.4,0.3-0.3,0.7,0.1,0.8c0.1,0,0.1,0.1,0.1,0.1
	c-0.1,0.6-0.9,0.5-0.9-0.1c-0.5,0.7,0.3,1.3,1,1c0,0,0.1,0,0.1,0c0,0.1,0.1,0.2,0.2,0.2c0,0,0-0.1,0.1-0.1c0,0,0,0,0,0.1
	c0,0.2,0.1,0.4,0.3,0.4c0-0.1,0-0.3,0.1-0.3c0.1,0,0.4,0.5,0.9,0.8c0.4,0.2,0.7,0.7,1,0.4c-0.1,0.4,0.4,1,0.3,1
	c-0.1,0-1.3-0.1-1.6,0.1c-0.4,0.2-1.5,0.6-1.8,0.2c-0.1-0.2-0.1-0.3-0.2-0.5c-0.1-0.2-0.2-0.3-0.3-0.3c0,0-0.1,0-0.2,0
	c-0.2-0.2-0.6-0.2-0.7-0.1c0.1,0,0.3,0.1,0.4,0.3c-0.1,0.1-0.1,0.2-0.1,0.2c-0.1,0.1,0,0.4,0.7,0.6c0,0,0.1,0.1,0,0.1
	c-0.1,0-0.2,0.1-0.4-0.1c-0.3-0.2-0.3-0.5-0.6-0.3c0,0-0.1,0.1-0.2,0.1c0,0,0,0-0.1,0c-0.3,0-0.8,0.3-0.5,0.7c0-0.1,0.1-0.3,0.4-0.3
	c0,0.1,0.1,0.2,0.1,0.2c0.1,0.3,0.2,0.6,0.9,0.1c0.1,0,0.1,0,0.1,0c-0.2,0.3-0.6,0.6-0.3,0.8c0,0,0.1,0.1,0.2,0.1c0,0,0,0,0,0.1
	c-0.1,0.4,0.4,0.7,0.6,0.7c-0.1-0.1-0.3-0.3-0.2-0.6c0.1,0,0.2,0.1,0.2,0.1c0.3-0.1,0.2-0.5,0.4-0.7c0.1,0,0.1,0,0.1,0
	c0,0.2,0.1,0.6,0.5,0.5c0.4,0,0.6-0.4,0.5-0.6c0,0,0,0,0,0c0.1,0.1,0.2,0.2,0.2,0.4c0.1,0,0.2-0.1,0.3-0.3c0.1,0.2,0.1,0.4-0.2,0.7
	c0.2-0.1,0.6-0.2,0.7-0.7c0.1,0.1,0.1,0.2,0.1,0.2c0,0,0,0,0,0c0.1,0.1,0.4,0.1,0.8,0c0,0,0,0,0,0.1c0,0.2,0,0.3,0,0.4
	c0-0.1,0.1-0.2,0.2-0.2c0.1,0,0,0.4,0.2,0.6c0.1-1,0.6-0.6,1.3-1c0.1,0,0.1,0,0.1,0c0,0.1-0.1,0.3-0.3,0.3c0.7,0.2,1.8-0.9,2-1.4
	c0.3,0,0.5-0.1,0.7-0.1c2,0.2,0.6-1.8,3.9-1.3c0.2,0,0.6-0.2,0.8-0.4c-0.2,0.4-0.2,1.3,0.2,1.4c0.2,0,0.6,0.2,0.8,0.3
	c0,0,0,0.1,0,0.1c-0.3,0-0.5,0.1-0.6,0.1c-0.7,0.5-0.7-1-1.4-0.8c0,0-0.2,0.1-0.2,0.2c-0.3,0-0.7,0.3-0.6,0.6
	c0.1-0.1,0.2-0.2,0.5-0.3c0,0.1,0,0.1,0,0.2c0,0.1,0,0.2,0.3,0.2c0.1,0,0.2-0.1,0.3-0.1c0,0,0.1,0,0.1,0.1c0,0.3-0.9-0.2-0.8,0.6
	c0,0,0.1,0.2,0.1,0.2c0,0.2,0.2,0.5,0.6,0.3c-0.1,0-0.2-0.1-0.2-0.3c0.1,0,0.2,0,0.2,0c0,0,0.1,0,0.1-0.1c0,0,0,0,0,0
	c0,0,0.1,0,0.1,0.1c0,0,0,0.1,0,0.2c0,0,0,0.2,0.1,0.2c0,0.3,0.4,0.6,0.8,0.3c-0.1,0-0.4-0.1-0.4-0.2c0.1,0,0.2-0.1,0.2-0.1
	c0.1-0.1,0.1-0.2,0.1-0.3c0-0.1,0-0.1,0.1-0.1c0.1,0,0.1,0,0.2,0c0.1,0,0.1,0,0.1,0c0.1,0.2,0.3,0.3,0.6,0.2
	c0.5-0.2,0.1-0.6,0.5-0.7c0.1,0,0.2,0,0.3,0c0.4,0.1,1,0.1,1.1-0.1c0.1-0.2,0.1-0.9-0.4-1.1c-0.2-0.1,0-0.4-0.2-0.8
	c0.4,0.2,0.9,0.4,1.5,0.4c1.1,0,1.3-0.1,1.8-0.4c0.5-0.3,1.1-0.2,1.3-0.1c0.1,0,0.3,0.1,0.2,0.3c-0.1,0.6,0.1,0.6-0.1,0.9
	c-0.1,0.2-0.6,0-0.9,0c-0.2,0-0.3,0.1-0.3,0.1c-0.3,0-0.6,0.3-0.6,0.6c0.1-0.1,0.3-0.2,0.5-0.3c0,0,0,0.1,0,0.1
	c0,0.4,0.5,0.5,0.7,0.3c0,0,0.1,0,0.1,0.1c-0.2,0.2-0.6,0.5-0.3,0.7c0,0,0.1,0.1,0.2,0.1c0,0.2,0.1,0.5,0.3,0.5
	c-0.1-0.1-0.1-0.2,0-0.5c0.1,0,0.2,0,0.2,0c0.2,0,0.1-0.5,0.4-0.6c0,0,0.1,0,0,0c-0.1,0.3-0.1,0.6,0.1,0.7c0,0,0.1,0,0.2,0
	c0.1,0.2,0.3,0.4,0.6,0.2c-0.1,0-0.3-0.1-0.3-0.2c0.1-0.1,0.2-0.2,0.2-0.2c0.2-0.6-0.3-0.6-0.3-0.8c0-0.3,0.5-0.1,0.5-0.7
	c0-0.1,0-0.3-0.2-0.3c0,0,0,0,0,0l0,0c0.2,0,0.3,0,0.4-0.2c-0.4,0-0.3-0.3-0.3-0.5c0,0,0-0.1,0-0.1c0.1-0.1,0.2-0.3,0.2-0.6
	c-0.1,0.2-0.6,0.4-0.7,0c0,0,0-0.3-0.5-0.2c-0.7,0.1-1.2-0.1-2.5-0.2c1.5,0,3.8-0.4,3.8-1.3c0-0.7-0.8-1.2-3.1-1.2
	c-2.3,0-7.6,0.9-7.6-0.4c0-0.6,1-0.6,2.3-0.5c0.1,0.1,0.2,0.2,0.5,0.3c3,0.9,6.5-0.7,8.3-0.2c-2.1-1.6-3.9,0.1-6.2-0.4
	c1.3,0,1.8-0.4,1.9-0.7c-1,0.7-3-0.3-4.2,0.4c-0.1,0-0.1,0.1-0.2,0.2c-1.7,0-3,0-3,1.1c0,2.3,6.2,1,8.2,1s2.4,0.2,2.4,0.6
	c0,0.5-1.9,0.7-3,0.7c-1.7,0-6.8-0.9-9.9-0.3c0.2-0.5,0.8-1.2,0.5-1.5c0.3-0.1,0.5-0.3,0.5-0.6c-0.2-0.2-0.4-0.2-0.6-0.3
	c0.1-0.1,0-0.3-0.1-0.4c0,0-0.1-0.3-0.2-0.4c-0.1-0.1-0.3-0.3-0.7-0.5c-0.3-0.2-0.6-0.2-0.7-0.2c-0.1,0-0.4,0.1-0.4,0.1
	c-0.2,0-0.4,0-0.4,0.2c-0.1-0.1-0.3-0.2-0.5-0.2c-0.1,0.3-0.2,0.5-0.1,0.8c-0.3,0-0.6,0.7-0.8,0.6c0.1,0.2,0.2,0.3,0.3,0.3
	c-0.2,0.4-0.3,0.9-0.6,0.9c0.2,0.2,0.3,0.3,0.4,0.3c0,0.3,0,0.6-0.1,0.9l-0.5-0.2L125.3,140.9z M129,138.8c0.1,0.1,0.6,0.3,0.9,0.4
	c-0.4,0.1-0.3,0.2-0.6,0.2C129.1,139.3,129,139,129,138.8 M128.4,138.5c-0.1,0.2-0.4,0.4-0.6,0.2c-0.2-0.2,0-0.2-0.2-0.6
	C127.9,138.2,128.3,138.5,128.4,138.5 M127.6,140.3c0.1-0.2,0.1-0.3,0.2-0.3c0.2,0,0.2,0,0.3-0.2c0.1-0.2-0.1-0.3-0.3-0.4
	c0.2,0,0.3-0.1,0.2-0.2c-0.1-0.1-0.3,0.1-0.3,0c0-0.1,0.1-0.1,0.1-0.2c0.1-0.1,0.1,0,0.2,0l0.7,0.3c0.1,0,0.2,0.1,0.2,0.2
	c0,0.1,0,0.2-0.1,0.2c-0.1,0-0.1-0.2-0.2-0.2c-0.1,0-0.1,0.1,0,0.3c-0.2,0-0.3-0.1-0.4,0c-0.1,0.1,0,0.2,0.1,0.4
	c0.1,0.1,0,0.2-0.1,0.4c-0.1,0.2-0.3,0.4-0.5,0.3C127.5,140.8,127.5,140.5,127.6,140.3 M129.5,144.4
	C129.5,144.4,129.5,144.4,129.5,144.4C129.5,144.4,129.5,144.4,129.5,144.4"/>
<path class="st0" d="M126.8,154.4c0.1,0,0.3-0.1,0.4-0.1c0,0,0,0.1,0,0.1c0.7,0,0.6-0.6,0.9-0.6c3.8,0.5,1.6-1.6,6.1-1.2
	c0.2,0,0.3-0.1,0.5-0.3c-0.2,0.4-0.2,1.1,0.2,1.2c0.2,0,0.6,0.2,0.8,0.3c0,0,0,0.1,0,0.1c-0.3,0-0.5,0.1-0.6,0.2
	c-0.7,0.5-0.7-1-1.4-0.7c0,0-0.2,0.1-0.2,0.1c-0.3,0-0.7,0.4-0.6,0.7c0.1-0.1,0.2-0.2,0.5-0.3c0,0.1,0,0.1,0,0.1
	c0,0.1,0,0.2,0.3,0.2c0.2,0,0.2-0.1,0.3-0.1c0,0,0.1,0,0.1,0.1c0,0.3-0.9-0.2-0.7,0.6c0,0,0.1,0.2,0.1,0.2c0,0.2,0.1,0.5,0.6,0.3
	c-0.1,0-0.2-0.2-0.2-0.3c0.1,0,0.2,0,0.2,0c0,0,0.1,0,0.1-0.1c0,0,0,0,0,0c0,0,0.1,0,0.1,0.1c0,0-0.1,0.1-0.1,0.2c0,0,0,0.2,0.1,0.2
	c0,0.3,0.4,0.6,0.8,0.3c-0.1,0-0.4-0.1-0.4-0.2c0.1,0,0.2-0.1,0.2-0.1c0.1-0.1,0.1-0.2,0.1-0.3c0-0.1,0-0.1,0.1-0.1
	c0.1,0,0.1,0,0.2,0c0.1,0,0.1,0,0.1,0.1c0.1,0.2,0.3,0.3,0.6,0.2c0.5-0.2,0.1-0.6,0.5-0.7c0.1,0,0.2,0,0.3,0c0.4,0.1,1,0.1,1.1-0.1
	c0.1-0.2,0-0.9-0.4-1.1c-0.2-0.1,0-0.4-0.2-0.8c0.4,0.2,0.9,0.4,1.5,0.4c1.1,0,1.3-0.2,1.8-0.5c0.5-0.3,1.1-0.2,1.3-0.1
	c0.1,0,0.2,0.1,0.2,0.3c-0.1,0.6,0.1,0.6-0.1,0.9c-0.1,0.2-0.6,0-0.9,0c-0.2,0-0.3,0.1-0.3,0.1c-0.3,0.1-0.6,0.3-0.6,0.6
	c0.1-0.1,0.3-0.2,0.5-0.3c0,0.1,0,0.1,0,0.1c0,0.4,0.5,0.5,0.7,0.2c0,0,0.1,0,0.1,0.1c-0.2,0.2-0.6,0.5-0.3,0.7c0,0,0.1,0.1,0.2,0.1
	c0,0.2,0.2,0.5,0.3,0.5c-0.1-0.1-0.1-0.2,0-0.5c0.1,0,0.2,0,0.2,0c0.2,0,0.1-0.5,0.4-0.6c0,0,0.1,0,0.1,0c-0.1,0.3-0.1,0.6,0.1,0.7
	c0,0,0.1,0,0.2,0.1c0.1,0.2,0.3,0.4,0.7,0.2c-0.1,0-0.2-0.1-0.3-0.2c0.1-0.1,0.2-0.2,0.2-0.2c0.2-0.6-0.3-0.6-0.3-0.8
	c0-0.3,0.6-0.1,0.6-0.7c0-0.1,0-0.3-0.2-0.3c0,0,0,0,0,0v0c0.2,0,0.3,0,0.4-0.2c-0.4,0-0.3-0.3-0.4-0.6c0,0,0-0.1,0-0.1
	c0.1-0.1,0.2-0.3,0.2-0.6c-0.1,0.2-0.6,0.4-0.6,0c0,0,0-0.3-0.5-0.2c-0.7,0.1-1.2-0.1-2.5-0.2c1.3-0.1,3.8-0.4,3.8-1.3
	c0-0.7-0.8-1.2-3.1-1.2c-2.3,0-9.5,0.9-9.5-0.4c0-0.8,2.4-0.5,4.2-0.5c0.1,0.1,0.2,0.2,0.5,0.3c3,0.8,6.1-1.2,8.3-0.4
	c-1.7-1.5-3.9,0.2-6.2-0.3c1.3,0,2.7-0.3,2.8-0.6c-1,0.7-4-0.5-5.2,0.3c-0.1,0-0.2,0.1-0.2,0.2c-2.2,0-4.9-0.3-4.9,1
	c0,2.3,8.2,1,10.1,1c2,0,2.4,0.2,2.4,0.6c0,0.6-1.9,0.7-3,0.7c-1.8,0-9.4-1-12.5-0.1c0.2-0.5,0.9-1.3,0.6-1.7
	c0.3-0.1,0.5-0.4,0.5-0.6c-0.2-0.2-0.4-0.2-0.6-0.3c0.1-0.1,0-0.3-0.1-0.4c0,0-0.1-0.3-0.2-0.4c-0.1-0.1-0.3-0.3-0.7-0.5
	c-0.3-0.2-0.6-0.2-0.7-0.2c-0.1,0-0.4,0.1-0.4,0.1c-0.2,0-0.4,0-0.4,0.2c-0.1-0.1-0.3-0.2-0.5-0.2c-0.1,0.3-0.2,0.5-0.1,0.8
	c-0.3,0-0.6,0.7-0.8,0.6c0.1,0.2,0.2,0.3,0.2,0.3c-0.2,0.4-0.3,0.9-0.6,0.9c0.1,0.1,0.2,0.2,0.2,0.3c0,0.2-0.1,0.5-0.1,0.7l-0.2-0.1
	c-0.2,0-0.3,0-0.4,0c-0.1,0-0.2,0-0.4-0.1c-0.4,0-0.6-0.6-1.3-1c-0.5-0.3-0.5-0.5-0.5-1c0-0.4,0.2-0.8,0.2-1.2c0,0-0.1-0.2-0.1-0.3
	c-0.1-0.3-0.4-0.5-0.6-0.4c0.1,0.1,0.2,0.2,0.2,0.4c-0.1,0.1-0.2,0.2-0.2,0.2c-0.1,0.1-0.1,0.3,0,0.4c0,0,0,0.1,0,0.1
	c0,0.1,0,0.1,0,0.2c0,0.1,0,0-0.1,0c-0.1-0.3-0.2-0.7-0.5-0.7c0,0-0.1,0-0.2,0c0,0,0,0,0-0.1c0-0.3-0.3-0.5-0.7-0.2
	c0.1,0,0.2,0,0.3,0.1c0,0.1-0.1,0.3-0.1,0.3c0,0.3,0.2,0.4,0.5,0.4c0.1,0,0.1,0,0.1,0.1c0,0,0,0.1,0,0.1c0,0,0,0,0,0
	c-0.5-0.2-0.8,0-0.8,0.3c0,0,0,0.1,0,0.2c-0.2,0.1-0.2,0.4,0.1,0.6c0-0.1,0-0.3,0.1-0.3c0,0,0.1,0,0.1,0c0.1,0.1,0.1,0.1,0.1,0.1
	c0,0,0.1,0,0.3-0.1c0,0,0.1,0,0.1,0c0.1,0,0.1,0.1,0.2,0.1c0,0,0,0.1,0,0.1c-0.4,0.3-0.3,0.7,0.2,0.8c0.1,0,0.1,0.1,0.1,0.1
	c0,0.7-0.9,0.5-0.9-0.1c-0.5,0.8,0.4,1.3,1,0.9c0,0,0.1,0,0.1,0c0,0.1,0.1,0.2,0.2,0.2c0,0,0-0.1,0.1-0.1c0,0,0,0,0,0.1
	c0,0.2,0.1,0.4,0.3,0.4c0-0.1,0-0.3,0.1-0.3c0.1,0,0.6,0.9,1.5,1.4c0.2-0.1,0.4-0.1,0.5-0.3c0,0.1,0.1,0.2,0.2,0.2
	c0,0.4,0.3,1,0.2,1c-0.1,0-1.6-0.1-1.9,0.1c-0.4,0.2-1.5,0.6-1.8,0.2c-0.1-0.2-0.1-0.3-0.2-0.5c-0.1-0.2-0.2-0.3-0.4-0.3
	c0,0-0.2,0-0.2,0c-0.2-0.2-0.6-0.2-0.7-0.1c0.1,0,0.3,0.1,0.4,0.3c-0.1,0.1-0.1,0.2-0.1,0.2c-0.1,0.2,0,0.4,0.6,0.6
	c0,0,0.1,0.1,0,0.1c-0.1,0-0.2,0.1-0.4,0c-0.3-0.2-0.3-0.5-0.6-0.3c0,0-0.1,0.1-0.2,0.1c0,0-0.1,0-0.1,0c-0.3,0-0.7,0.3-0.6,0.7
	c0-0.1,0.2-0.3,0.4-0.3c0,0.1,0.1,0.2,0.1,0.2c0.1,0.4,0.2,0.6,0.9,0.1c0.1,0,0.1,0,0,0.1c-0.2,0.3-0.6,0.6-0.3,0.8
	c0,0,0.1,0.1,0.2,0.1c0,0,0,0.1,0,0.1c-0.1,0.4,0.4,0.7,0.6,0.7c-0.1-0.1-0.3-0.3-0.2-0.6c0.1,0,0.2,0.1,0.2,0.1
	c0.3-0.1,0.2-0.5,0.4-0.7c0.1,0,0.1,0,0.1,0.1c0,0.2,0.1,0.5,0.5,0.5c0.4,0,0.6-0.4,0.5-0.6c0,0,0,0,0,0c0.1,0.1,0.2,0.2,0.2,0.4
	c0.1,0,0.2-0.1,0.3-0.3c0.1,0.2,0.1,0.5-0.2,0.7c0.2,0,0.6-0.2,0.7-0.7c0.1,0.1,0.1,0.2,0.1,0.2c0,0,0,0,0,0c0.1,0,0.4,0.1,0.8,0
	c0,0,0.1,0,0.1,0c0,0.2,0,0.3,0,0.4c0,0,0.1-0.2,0.2-0.2c0.1,0,0,0.4,0.2,0.6c0.1-1,1.3-0.5,2-0.9c0.1-0.1,0.1,0,0.1,0
	c0,0.1-0.1,0.3-0.3,0.3c0.2,0,0.5-0.1,0.7-0.3C126.1,155,126.9,154.7,126.8,154.4 M125.6,148.2c-0.1,0.2-0.4,0.4-0.6,0.2
	c-0.2-0.2,0-0.2-0.2-0.6C125,147.9,125.5,148.2,125.6,148.2 M126.1,149.6c-0.1,0-0.1-0.2-0.2-0.2c-0.1,0-0.1,0.1,0,0.3
	c-0.2-0.1-0.3-0.1-0.4,0c-0.1,0.2,0,0.2,0.1,0.4c0.1,0.1,0,0.2-0.1,0.4c-0.1,0.2-0.3,0.4-0.5,0.3c-0.3-0.2-0.2-0.4-0.2-0.6
	c0.1-0.2,0.2-0.3,0.2-0.3c0.2,0,0.2,0,0.3-0.2c0.1-0.2-0.1-0.3-0.3-0.4c0.2-0.1,0.3-0.1,0.2-0.2c-0.1-0.1-0.3,0.1-0.3,0
	c0-0.1,0.1-0.1,0.1-0.2c0.1-0.1,0.1,0,0.2,0l0.7,0.4c0.1,0.1,0.2,0.1,0.2,0.2C126.1,149.4,126.1,149.6,126.1,149.6 M126.5,149.1
	c-0.3,0-0.4-0.4-0.3-0.6c0.1,0.1,0.6,0.3,0.9,0.4C126.6,148.9,126.7,149.1,126.5,149.1"/>
<path class="st0" d="M173,166.8c0,0,0-0.1,0-0.1c0.1-0.1,0.3-0.3,0.2-0.6c-0.1,0.2-0.6,0.4-0.7,0c0,0,0-0.3-0.4-0.2
	c-0.7,0.1-1.4-0.1-2.7-0.2c-0.1,0-0.2-0.1,0-0.1c1.6-0.1,3.8-0.3,3.8-1.2c0-0.7-0.8-1.2-3.1-1.2c-2.3,0-9.5,0.9-9.5-0.5
	c0-0.8,2.4-0.5,4.2-0.4c0.1,0.1,0.2,0.2,0.5,0.3c3,0.9,6.4-1.4,8.2-0.9c-2.4-0.8-3.8,0.6-6.1,0.1c1.3,0,2.7-0.3,2.8-0.6
	c-1,0.7-3.9-0.5-5.2,0.3c-0.1,0.1-0.1,0.1-0.2,0.2c-2.2,0-4.9-0.3-4.9,1c0,2.3,8.2,1,10.1,1c1.9,0,2.4,0.2,2.4,0.6
	c0,0.5-1.9,0.7-3,0.7c-1.8,0-9.4-1-12.5-0.1c0.2-0.5,0.9-1.3,0.6-1.7c0.3-0.1,0.5-0.3,0.5-0.6c-0.2-0.2-0.4-0.2-0.6-0.3
	c0.1-0.1,0-0.3-0.1-0.4c0,0-0.1-0.3-0.2-0.4c-0.1-0.1-0.3-0.3-0.7-0.5c-0.3-0.2-0.6-0.2-0.7-0.2c-0.1,0-0.4,0.1-0.4,0.1
	c-0.2,0-0.4,0-0.4,0.2c-0.1-0.1-0.3-0.2-0.5-0.2c-0.1,0.3-0.2,0.5-0.1,0.8c-0.3,0-0.6,0.7-0.8,0.6c0.1,0.2,0.2,0.3,0.2,0.3
	c-0.2,0.4-0.3,0.9-0.6,0.9c0.2,0.2,0.3,0.3,0.4,0.3c0,0.2,0,0.5-0.1,0.7l-0.4-0.1c-0.2,0-0.3,0-0.4,0c-0.1,0-0.2-0.1-0.4-0.1
	c-0.4,0-0.6-0.6-1.3-1c-0.5-0.3-0.5-0.5-0.5-1c0-0.4,0.2-0.8,0.2-1.1c0,0-0.1-0.3-0.1-0.4c-0.1-0.2-0.4-0.4-0.6-0.4
	c0.1,0.1,0.2,0.2,0.2,0.4c-0.1,0.1-0.2,0.2-0.2,0.2c-0.1,0.1-0.1,0.3,0,0.4c0,0,0,0.1,0,0.1c0,0.1,0,0.1,0,0.2c0,0.1,0,0-0.1,0
	c-0.1-0.3-0.2-0.7-0.5-0.7c0,0-0.1,0-0.2,0c0,0,0,0,0-0.1c0-0.3-0.3-0.5-0.7-0.2c0.1,0,0.2,0,0.3,0.1c0,0.1-0.1,0.3-0.1,0.3
	c0,0.3,0.2,0.4,0.5,0.4c0.1,0,0.1,0,0.1,0.1c0,0,0,0.1,0,0.1c0,0.1,0,0.1,0,0c-0.5-0.2-0.8,0-0.8,0.2c0,0,0,0.2,0,0.2
	c-0.2,0.1-0.2,0.4,0.1,0.6c0-0.1,0-0.3,0.1-0.3c0,0,0.1,0,0.1,0c0,0.1,0.1,0.1,0.1,0.1c0,0,0.1,0,0.3-0.1c0,0,0.1,0,0.1,0
	c0,0,0.1,0.1,0.2,0.1c0,0,0,0.1,0,0.1c-0.4,0.3-0.3,0.7,0.2,0.8c0.1,0,0.1,0.1,0.1,0.1c0,0.7-0.9,0.5-0.9-0.1
	c-0.5,0.8,0.4,1.3,1,0.9c0,0,0.1,0,0.1,0c0,0.1,0.1,0.2,0.2,0.2c0,0,0-0.1,0.1-0.1c0,0,0,0,0,0.1c0,0.2,0.1,0.4,0.3,0.4
	c0-0.1,0-0.3,0.1-0.3c0.1,0,0.5,1,1.5,1.5c0-0.1,0.4-0.2,0.6-0.3c0,0.2,0.1,0.4,0.3,0.4l0.2-0.1c-0.1,0.4,0.5,0.9,0.4,0.9
	c-0.1,0-1-0.1-1.3,0.1c-0.4,0.2-1.5,0.6-1.8,0.2c-0.1-0.2-0.1-0.3-0.2-0.5c-0.1-0.2-0.2-0.3-0.4-0.3c0,0-0.2,0-0.2,0
	c-0.2-0.2-0.6-0.2-0.7-0.1c0.1,0,0.3,0.1,0.4,0.3c0,0.1-0.1,0.2-0.1,0.2c-0.1,0.1,0,0.4,0.6,0.6c0,0,0.1,0.1,0,0.1
	c-0.1,0-0.2,0.1-0.4,0c-0.3-0.2-0.3-0.5-0.6-0.3c0,0-0.1,0-0.2,0.1c0,0-0.1,0-0.1,0c-0.3,0-0.8,0.3-0.5,0.7c0-0.1,0.1-0.3,0.4-0.3
	c0,0.1,0.1,0.2,0.1,0.2c0.1,0.4,0.2,0.6,0.9,0.1c0.1-0.1,0.1,0,0.1,0c-0.2,0.3-0.6,0.6-0.3,0.8c0,0,0.1,0.1,0.2,0.1c0,0,0,0.1,0,0.1
	c-0.1,0.4,0.4,0.7,0.6,0.7c-0.1-0.1-0.3-0.3-0.2-0.6c0.1,0,0.2,0.1,0.2,0.1c0.3-0.1,0.2-0.6,0.4-0.7c0.1,0,0.1,0,0.1,0.1
	c0,0.2,0.1,0.6,0.5,0.5c0.4,0,0.6-0.4,0.5-0.6c0,0,0,0,0,0c0.1,0.1,0.2,0.2,0.2,0.4c0.1,0,0.2-0.1,0.3-0.3c0.1,0.2,0.1,0.5-0.2,0.7
	c0.2-0.1,0.6-0.3,0.7-0.7c0.1,0.1,0.1,0.2,0.1,0.2c0,0,0,0,0,0c0.1,0,0.4,0.1,0.8,0c0,0,0.1,0,0.1,0c0,0.1,0,0.3,0,0.4
	c0-0.1,0.1-0.2,0.2-0.2c0.1,0,0,0.4,0.2,0.6c0.1-1,0.6-0.6,1.3-1c0.1-0.1,0.1,0,0.1,0c0,0.1-0.1,0.3-0.3,0.3
	c0.2,0.2,1.2-0.4,1.2-0.8c0-0.1,0.4-0.1,0.7-0.2c0.7,0,0.6-0.5,0.9-0.5c3.8,0.5,1.6-1.6,6.1-1.2c0.2,0,0.3-0.2,0.5-0.4
	c-0.2,0.4-0.2,1.3,0.2,1.4c0.2,0,0.6,0.2,0.8,0.3c0,0.1,0,0.1,0,0.1c-0.3,0-0.6,0.1-0.6,0.2c-0.7,0.5-0.7-1.1-1.4-0.8
	c0,0-0.2,0.1-0.2,0.2c-0.3,0-0.7,0.3-0.6,0.6c0.1-0.1,0.2-0.2,0.5-0.3c0,0.1,0,0.1,0,0.2c0,0.1,0,0.2,0.3,0.2c0.1,0,0.2-0.1,0.3-0.1
	c0,0,0.1,0,0.1,0.1c0,0.3-0.9-0.2-0.7,0.6c0,0,0.1,0.2,0.1,0.2c0,0.2,0.2,0.5,0.6,0.3c-0.1-0.1-0.2-0.2-0.2-0.3c0.1,0,0.2,0,0.2,0
	c0,0,0.1,0,0.1-0.1c0,0,0,0,0,0c0,0,0.1,0,0.1,0.1c0,0.1-0.1,0.1-0.1,0.2c0,0,0,0.2,0.1,0.2c0,0.3,0.4,0.6,0.8,0.3
	c-0.1,0-0.4-0.1-0.4-0.2c0.1,0,0.2-0.1,0.2-0.1c0.1,0,0.1-0.2,0.1-0.3c0-0.1,0-0.1,0.1-0.1c0.1,0,0.1,0,0.2,0c0.1,0,0.1,0,0.1,0.1
	c0.1,0.2,0.3,0.3,0.6,0.2c0.5-0.2,0.1-0.6,0.5-0.7c0.1,0,0.2,0,0.3,0c0.4,0.1,1,0.1,1.1-0.1c0.1-0.2,0.1-0.9-0.4-1.1
	c-0.2-0.1,0-0.4-0.2-0.8c0.4,0.2,0.9,0.4,1.5,0.4c1.1,0,1.4-0.2,1.9-0.4c0.6-0.3,1.1-0.2,1.3-0.1c0.1,0,0.2,0.1,0.2,0.3
	c-0.2,0.6,0,0.6-0.1,0.9c-0.1,0.2-0.6,0-0.9,0c-0.2,0-0.3,0.1-0.3,0.1c-0.3,0.1-0.6,0.3-0.6,0.6c0.1-0.1,0.3-0.2,0.5-0.2v0.1
	c0,0.4,0.4,0.5,0.7,0.2c0,0,0.1,0,0.1,0.1c-0.2,0.2-0.7,0.5-0.3,0.7c0,0,0.1,0.1,0.2,0.1c0,0.2,0.1,0.5,0.3,0.5
	c-0.1-0.1-0.1-0.2,0.1-0.4h0.2c0.2,0,0.2-0.5,0.4-0.6c0,0,0.1,0,0,0c-0.1,0.3-0.2,0.6,0,0.7c0,0,0.1,0,0.2,0
	c0.1,0.2,0.3,0.4,0.6,0.2c-0.1,0-0.2-0.1-0.3-0.2c0.1-0.1,0.2-0.2,0.2-0.3c0.2-0.6-0.3-0.6-0.2-0.8c0-0.3,0.6-0.1,0.6-0.7
	c0-0.1,0-0.3-0.2-0.3c0,0,0,0,0,0h0c0.2,0,0.3,0,0.4-0.2C172.9,167.4,173.1,167.1,173,166.8 M156.2,162.5c0.1,0.1,0.7,0.3,0.9,0.4
	c-0.4,0.1-0.3,0.2-0.6,0.2C156.3,163.1,156.2,162.7,156.2,162.5 M155.7,162.2c-0.1,0.2-0.4,0.4-0.6,0.2c-0.2-0.2,0-0.2-0.2-0.6
	C155.1,161.9,155.5,162.2,155.7,162.2 M154.8,164.1c0.1-0.2,0.1-0.3,0.2-0.3c0.2,0,0.2,0,0.3-0.2c0.1-0.2-0.1-0.2-0.3-0.4
	c0.2-0.1,0.3-0.1,0.2-0.2c-0.1-0.1-0.3,0.1-0.3,0c0-0.1,0.1-0.1,0.2-0.2c0.1-0.1,0.1-0.1,0.2,0l0.7,0.4c0.1,0,0.2,0.1,0.2,0.2
	c0,0.1,0,0.2-0.1,0.2c-0.1,0-0.1-0.2-0.2-0.2c-0.1,0-0.1,0.1,0,0.3c-0.2-0.1-0.4-0.1-0.4,0c-0.1,0.1,0,0.2,0.1,0.4
	c0.1,0.1,0,0.2-0.1,0.4c-0.1,0.2-0.3,0.4-0.5,0.3C154.7,164.5,154.7,164.2,154.8,164.1"/>
<path class="st0" d="M162.7,171.7c0.1,0.1,0.2,0.3,0.5,0.4c2.9,0.8,6.1-1.3,7.8-0.8c-2.3-0.8-3.7,0.6-5.8,0.1c1.3,0,2.6-0.2,2.7-0.6
	c-1,0.6-3.8-0.4-4.9,0.3c-0.1,0-0.1,0.1-0.2,0.1c-1.2,0-2.9-0.1-2.9,1c0,2.2,5.9,0.9,7.8,0.9c1.4,0,1.6,0.2,1.6,0.5
	c0,0.5-2.1,0.7-3.2,0.7c-1.6,0-6.5-0.8-9.4-0.3c0.2-0.5,0.8-1.1,0.5-1.4c0.3-0.1,0.5-0.3,0.5-0.6c-0.2-0.1-0.4-0.2-0.5-0.2
	c0.1-0.1,0-0.3-0.1-0.4c0,0-0.1-0.3-0.2-0.4c-0.1-0.1-0.3-0.3-0.7-0.4c-0.3-0.2-0.5-0.2-0.7-0.2c-0.1,0-0.4,0.1-0.4,0.1
	c-0.2,0-0.3,0-0.4,0.2c-0.1-0.1-0.3-0.2-0.5-0.2c-0.1,0.3-0.2,0.4-0.1,0.8c-0.3,0-0.5,0.7-0.8,0.6c0.1,0.2,0.2,0.3,0.2,0.3
	c-0.2,0.4-0.3,0.9-0.6,0.9c0.1,0.1,0.2,0.2,0.2,0.2c-0.1,0.3-0.1,0.6-0.1,0.8l-0.3-0.1c0,0-0.1,0-0.1,0c-0.3,0-0.6,0-1.2-0.3
	c-0.4-0.2-0.5-0.5-0.5-0.9c0-0.4,0.2-0.7,0.2-1.1c0,0-0.1-0.2-0.1-0.3c-0.1-0.2-0.4-0.4-0.6-0.4c0.1,0.1,0.2,0.2,0.2,0.4
	c-0.1,0.1-0.2,0.2-0.2,0.2c-0.1,0.1-0.1,0.3,0,0.4c0,0,0,0.1,0,0.1c0,0,0,0.1,0,0.2c0,0.1,0,0,0,0c-0.1-0.3-0.2-0.7-0.5-0.7
	c0,0-0.1,0-0.2,0c0,0,0,0,0-0.1c0-0.3-0.3-0.5-0.6-0.2c0.1,0,0.2,0,0.3,0.1c0,0.1-0.1,0.3-0.1,0.3c0,0.3,0.2,0.4,0.5,0.4
	c0.1,0,0.1,0,0.1,0.1c0,0,0,0.1,0,0.1c0,0.1,0,0-0.1,0c-0.5-0.2-0.7,0-0.7,0.2c0,0,0,0.1,0,0.2c-0.2,0.1-0.2,0.4,0.1,0.6
	c0-0.1,0-0.3,0.1-0.3c0,0,0.1,0,0.1,0c0,0,0.1,0.1,0.1,0.1c0,0,0.1,0,0.3-0.1c0,0,0.1,0,0.1,0c0,0,0.1,0.1,0.1,0.1c0,0,0,0.1,0,0.1
	c-0.3,0.3-0.3,0.7,0.2,0.7c0.1,0,0.1,0.1,0.1,0.1c0,0.6-0.9,0.5-0.8-0.1c-0.5,0.7,0.4,1.3,1,0.9c0,0,0.1,0,0.1,0
	c0,0.1,0.1,0.2,0.2,0.2c0,0,0-0.1,0.1-0.1c0,0,0.1,0,0.1,0.1c0,0.2,0.1,0.4,0.3,0.4c0-0.1,0-0.2,0.1-0.2c0.1,0,0.1-0.3,0.9,0.1
	c0.1,0.1,0.1,0.2,0.3,0.3l0.6-0.1c-0.1,0.4,0.1,1.1,0,1.1c-0.1,0-1-0.1-1.3,0c-0.4,0.2-1.4,0.6-1.7,0.2c-0.1-0.1-0.1-0.3-0.2-0.5
	c-0.1-0.1-0.2-0.2-0.3-0.3c0,0-0.1,0-0.2,0c-0.2-0.2-0.5-0.2-0.7-0.1c0.1,0,0.3,0.1,0.4,0.2c0,0.1-0.1,0.2-0.1,0.2
	c-0.1,0.1,0,0.3,0.6,0.6c0,0,0.1,0.1,0,0.1c-0.1,0-0.2,0.1-0.4,0c-0.2-0.2-0.3-0.5-0.6-0.3c0,0-0.1,0.1-0.2,0.1c0,0,0,0-0.1,0
	c-0.3,0-0.7,0.3-0.5,0.7c0-0.1,0.2-0.3,0.4-0.3c0,0.1,0.1,0.2,0.1,0.2c0.1,0.3,0.2,0.6,0.9,0.1c0.1-0.1,0.1,0,0.1,0
	c-0.1,0.3-0.6,0.6-0.3,0.8c0,0,0.1,0.1,0.2,0.1c0,0,0,0,0,0.1c-0.1,0.4,0.3,0.7,0.6,0.6c-0.1-0.1-0.2-0.3-0.2-0.6
	c0.1,0,0.2,0.1,0.2,0c0.3-0.1,0.2-0.5,0.4-0.6c0.1,0,0.1,0,0.1,0c0,0.2,0.1,0.5,0.5,0.5c0.4,0,0.5-0.3,0.5-0.5c0,0,0,0,0,0
	c0.1,0.1,0.2,0.2,0.2,0.4c0.1,0,0.2-0.1,0.3-0.3c0.1,0.2,0.1,0.4-0.1,0.7c0.1-0.1,0.5-0.2,0.6-0.7c0.1,0.1,0.1,0.1,0.1,0.2
	c0,0,0,0,0,0c0.1,0.1,0.4,0.1,0.8,0c0,0,0.1,0,0.1,0c0,0.2,0,0.3,0,0.4c0,0,0.1-0.2,0.2-0.2c0.1,0,0,0.4,0.2,0.6
	c0.1-1,0.9-0.7,1.5-1.1c0.1,0,0.1,0,0.1,0c0,0.1-0.1,0.2-0.3,0.3c0.7,0.4,1.3-0.5,1.5-1c0.1,0,0.1-0.1,0.2-0.2
	c0,0.1,0.1,0.2-0.1,0.3c0.6,0.1,0.6-0.4,0.8-0.4c1.9,0.2,0.4-1.6,3.6-1.1c0.2,0,0.6-0.2,0.8-0.3c-0.2,0.4-0.2,1.3,0.2,1.3
	c0.2,0,0.6,0.2,0.7,0.3c0,0,0,0.1,0,0.1c-0.2,0-0.5,0.1-0.6,0.2c-0.7,0.4-0.7-1-1.4-0.7c0,0-0.1,0.1-0.2,0.2c-0.3,0-0.7,0.3-0.6,0.6
	c0.1-0.1,0.2-0.2,0.5-0.3c0,0.1,0,0.1,0,0.2c0,0.1,0,0.2,0.3,0.2c0.1,0,0.2-0.1,0.3-0.1c0.1,0,0.1,0,0.1,0.1c0,0.3-0.9-0.1-0.7,0.6
	c0,0,0.1,0.2,0.1,0.2c0,0.2,0.1,0.5,0.5,0.3c-0.1,0-0.2-0.1-0.2-0.3c0.1,0,0.2,0,0.2,0c0,0,0.1,0,0.1-0.1c0,0,0,0,0,0
	c0,0,0.1,0,0.1,0.1c0,0-0.1,0.1-0.1,0.2c0,0,0,0.2,0.1,0.2c0,0.3,0.4,0.5,0.8,0.3c-0.1,0-0.4-0.1-0.4-0.2c0.1,0,0.2-0.1,0.2-0.1
	c0.1,0,0.1-0.1,0.1-0.3c0-0.1,0-0.1,0.1-0.1c0.1,0,0.1,0,0.2,0c0.1,0,0.1,0,0.1,0.1c0.1,0.2,0.3,0.3,0.6,0.2
	c0.5-0.2,0.1-0.6,0.4-0.6c0.1,0,0.2,0,0.3,0c0.4,0.1,0.9,0.1,1-0.1c0.1-0.2,0.1-0.8-0.4-1.1c-0.2-0.1,0-0.4-0.2-0.7
	c0.4,0.2,0.8,0.3,1.4,0.3c1,0,1.5-0.1,2-0.4c0.6-0.3,1.1-0.2,1.3-0.1c0.1,0,0.2,0.1,0.1,0.2c-0.2,0.5-0.1,0.6-0.3,0.8
	c-0.2,0.2-0.6,0-0.8,0c-0.2,0-0.3,0.1-0.3,0.1c-0.3,0-0.6,0.3-0.7,0.6c0.1-0.1,0.3-0.2,0.5-0.2c0,0,0,0.1,0,0.1
	c-0.1,0.4,0.3,0.5,0.6,0.2c0,0,0.1,0,0.1,0c-0.2,0.2-0.7,0.5-0.4,0.6c0,0,0.1,0.1,0.2,0.1c-0.1,0.2,0,0.4,0.2,0.5
	c0-0.1,0-0.2,0.1-0.4c0.1,0,0.2,0,0.2,0c0.2,0,0.2-0.4,0.5-0.6c0,0,0.1,0,0,0c-0.2,0.3-0.3,0.6-0.1,0.7c0,0,0.1,0,0.2,0
	c0,0.2,0.2,0.4,0.6,0.2c-0.1,0-0.2-0.1-0.2-0.2c0.1-0.1,0.2-0.2,0.2-0.2c0.3-0.6-0.1-0.6-0.1-0.8c0.1-0.3,0.5-0.1,0.7-0.6
	c0-0.1,0-0.3-0.1-0.4c0,0,0,0,0,0h0c0.1,0,0.3,0,0.4-0.2c-0.4,0-0.2-0.3-0.2-0.5c0,0,0-0.1,0-0.1c0.1-0.1,0.3-0.3,0.3-0.6
	c-0.2,0.2-0.7,0.4-0.6,0c0,0,0-0.3-0.4-0.2c-0.7,0-1.7-0.1-2.9-0.2c-0.1,0-0.1-0.1,0-0.1c1.3-0.1,3.9-0.2,3.9-1.2
	c0-0.5-0.3-1.1-2.4-1c-2.2,0.1-7.2,0.8-7.2-0.4C160.6,171.5,161.9,171.6,162.7,171.7 M156,171.8c0.1,0.1,0.6,0.3,0.9,0.3
	c-0.4,0.1-0.3,0.2-0.6,0.2C156.1,172.3,156,172,156,171.8 M155.5,171.5c-0.1,0.2-0.4,0.4-0.5,0.2c-0.2-0.2,0-0.2-0.2-0.6
	C154.9,171.2,155.4,171.5,155.5,171.5 M154.7,173.3c0.1-0.1,0.1-0.3,0.2-0.3c0.1,0,0.2,0,0.3-0.2c0.1-0.2-0.1-0.2-0.2-0.4
	c0.2,0,0.2-0.1,0.2-0.2c-0.1-0.1-0.2,0.1-0.3,0c0-0.1,0.1-0.1,0.1-0.2c0.1-0.1,0.1-0.1,0.2,0l0.7,0.3c0.1,0,0.1,0.1,0.1,0.2
	c0,0.1,0,0.2,0,0.2c-0.1,0-0.1-0.2-0.2-0.2c-0.1,0-0.1,0.1,0,0.3c-0.2-0.1-0.3-0.2-0.4,0c-0.1,0.1,0,0.2,0.1,0.4
	c0.1,0.1,0,0.2-0.1,0.3c-0.1,0.2-0.3,0.4-0.5,0.3C154.5,173.7,154.6,173.4,154.7,173.3"/>
<path class="st0" d="M160.5,180.9c0.1,0.1,0.2,0.3,0.5,0.4c2.8,0.8,6.1-1.3,7.8-0.8c-2.2-0.8-3.7,0.6-5.8,0.1c1.3,0,2.6-0.3,2.7-0.6
	c-1,0.6-3.8-0.4-4.9,0.3c-0.1,0.1-0.2,0.1-0.2,0.2c-0.9,0.2-1.6,0.7-1.6,1.3c0,0.8,1.1,1.1,3.1,1c2-0.1,4.2-0.3,4.2,0
	c0,0.5-1.4,1-3.3,1c-1.5,0-4-1-7.1-0.2v0c0.2-0.5,0.9-1.3,0.6-1.7c0.2-0.1,0.4-0.3,0.4-0.5c-0.1-0.1-0.3-0.2-0.5-0.2
	c0.1-0.1,0-0.3-0.1-0.4c0,0-0.1-0.3-0.1-0.4c-0.1-0.1-0.3-0.3-0.6-0.4c-0.3-0.2-0.5-0.1-0.6-0.2c-0.1,0-0.4,0.1-0.4,0.1
	c-0.1,0-0.3,0-0.4,0.2c-0.1-0.1-0.3-0.2-0.5-0.2c-0.1,0.2-0.2,0.4-0.1,0.8c-0.3,0-0.5,0.7-0.7,0.6c0.1,0.2,0.2,0.2,0.2,0.3
	c-0.2,0.4-0.3,0.8-0.5,0.8c0.1,0.1,0.2,0.2,0.3,0.3c-0.2,0.6-0.2,1.3-0.1,1.8c-0.4-0.5-1.1-1.5-1.6-1.8c-0.4-0.2-0.4-0.4-0.4-0.9
	c0-0.4,0.2-0.7,0.1-1c0,0-0.1-0.2-0.1-0.3c-0.1-0.2-0.4-0.4-0.6-0.4c0.1,0.1,0.2,0.2,0.2,0.4c-0.1,0.1-0.2,0.2-0.2,0.2
	c-0.1,0.1-0.1,0.2,0,0.4c0,0,0,0,0,0.1c0,0,0,0.1,0,0.2c0,0.1,0,0-0.1,0c-0.1-0.3-0.2-0.6-0.4-0.7c0,0-0.1,0-0.2,0c0,0,0,0,0-0.1
	c0-0.2-0.3-0.5-0.6-0.2c0.1,0,0.2,0,0.3,0.1c0,0.1-0.1,0.3-0.1,0.3c0,0.3,0.2,0.4,0.5,0.4c0.1,0,0.1,0,0.1,0.1c0,0,0,0.1,0,0.1
	c0,0.1,0,0,0,0c-0.5-0.2-0.7,0-0.7,0.2c0,0,0,0.1,0,0.2c-0.2,0.1-0.2,0.4,0.1,0.6c0-0.1,0-0.3,0.1-0.3c0,0,0.1,0,0.1,0
	c0,0.1,0.1,0.1,0.1,0.1c0,0,0.1,0,0.3-0.1c0,0,0,0,0.1,0c0,0,0.1,0.1,0.1,0.1c0,0,0,0.1,0,0.1c-0.3,0.3-0.3,0.6,0.2,0.7
	c0.1,0,0.1,0,0.1,0.1c0,0.6-0.8,0.5-0.8-0.1c-0.4,0.7,0.3,1.2,0.9,0.8c0,0,0.1,0,0.1,0c0,0.1,0.1,0.2,0.2,0.2c0,0,0-0.1,0.1-0.1
	c0,0,0,0,0,0.1c0,0.2,0.1,0.4,0.3,0.4c0-0.1,0-0.2,0.1-0.2c0.1,0,0,0.9,0.8,1.4c0.1,0.5,0.6,0.8,1,0.7c0.1,0.3,0.4,0.7,0.3,0.7
	c-0.1,0-1.1-0.1-1.4,0c-0.1,0.1-0.4,0.2-0.8,0.3c0,0-0.2,0.1-0.2,0c-0.3,0.1-0.6,0-0.7-0.2c-0.1-0.1-0.1-0.3-0.2-0.5
	c-0.1-0.2-0.2-0.3-0.3-0.3c0,0-0.1,0-0.2,0c-0.2-0.2-0.5-0.2-0.7-0.1c0.1,0,0.3,0,0.4,0.2c0,0.1-0.1,0.2-0.1,0.2
	c-0.1,0.1,0,0.3,0.6,0.6c0,0,0.1,0.1,0,0.1c-0.1,0-0.2,0.1-0.3,0c-0.2-0.2-0.3-0.5-0.6-0.3c0,0-0.1,0-0.2,0.1c0,0-0.1,0-0.1,0
	c-0.3,0-0.7,0.3-0.5,0.6c0-0.1,0.1-0.2,0.3-0.3c0,0.1,0.1,0.2,0.1,0.2c0.1,0.3,0.2,0.6,0.8,0.1c0.1,0,0.1,0,0.1,0
	c-0.1,0.3-0.6,0.5-0.2,0.7c0,0,0.1,0.1,0.1,0.1c0,0,0,0,0,0.1c-0.1,0.4,0.3,0.6,0.5,0.6c-0.1-0.1-0.2-0.3-0.2-0.5c0.1,0,0.2,0,0.2,0
	c0.3-0.1,0.2-0.5,0.3-0.6c0.1,0,0.1,0,0.1,0c0,0.1,0.1,0.5,0.5,0.5c0.3,0,0.5-0.3,0.5-0.5c0,0,0,0,0,0c0.1,0.1,0.2,0.2,0.2,0.4
	c0.1,0,0.2-0.1,0.3-0.3c0.1,0.2,0.1,0.4-0.2,0.6c0.1,0,0.5-0.2,0.6-0.6c0.1,0.1,0.1,0.1,0.1,0.2c0,0,0,0,0,0c0.1,0,0.4,0.1,0.7,0
	c0,0,0.1,0,0.1,0c0,0.1,0,0.3,0,0.4c0,0,0.1-0.2,0.2-0.2c0.1,0,0,0.4,0.2,0.6c0.1-0.9,0.6-0.6,1.2-0.9c0.1,0,0.1,0,0.1,0
	c0,0.1-0.1,0.2-0.2,0.3c0.2,0,0.9-0.3,0.9-0.6c0-0.1,0.4-0.5,0.5-1.6c0.1,0,0.1,0,0.2,0c0.8-0.1,1.1-0.6,1.9-0.7
	c-0.2,0.2-0.3,0.8-0.2,1.1c0,0.4,0.6,0.9,0.7,1c0,0,0,0.1,0,0.1c-0.2,0-0.5,0.1-0.6,0.1c-0.6,0.4-0.6-0.9-1.3-0.7
	c0,0-0.1,0.1-0.2,0.1c-0.3,0-0.6,0.3-0.6,0.6c0.1-0.1,0.2-0.2,0.4-0.2c0,0.1,0,0.1,0,0.1c0,0.1,0,0.2,0.3,0.2c0.1,0,0.2-0.1,0.3-0.1
	c0,0,0.1,0,0.1,0.1c0,0.2-0.8-0.2-0.7,0.5c0,0,0.1,0.2,0.1,0.2c0,0.2,0.2,0.4,0.5,0.3c-0.1-0.1-0.2-0.1-0.2-0.3c0.1,0,0.1,0,0.2,0
	c0,0,0.1,0,0.1-0.1c0,0,0,0,0,0c0,0,0.1,0,0.1,0.1c0,0-0.1,0.1,0,0.2c0,0,0,0.2,0.1,0.2c0,0.2,0.3,0.5,0.7,0.3
	c-0.1,0-0.3-0.1-0.4-0.2c0.1,0,0.2-0.1,0.2-0.1c0.1,0,0.1-0.1,0.1-0.2c0-0.1,0-0.1,0.1-0.1c0.1,0,0.1,0,0.2,0c0.1,0,0.1,0,0.1,0.1
	c0.1,0.2,0.3,0.3,0.5,0.2c0.5-0.2,0.1-0.5,0.4-0.6c0.1,0,0.2,0,0.3,0c0.4,0.1,0.6,0.1,0.7,0c0.1-0.2,0-0.8-0.3-1
	c-0.2-0.1,0.3-1.5-0.7-2.2c0.5,0.1,2.1,0.3,2.4,0c0.5,0.1,1,0.4,1.1,0.5c0.1,0.1,0.1,0.2,0,0.3c-0.4,0.3-0.4,0.4-0.6,0.5l0,0
	c-0.1-0.1-0.3-0.4-0.4-0.4c-0.1-0.1-0.3,0-0.3,0c-0.2-0.1-0.6,0-0.7,0.3c0.1,0,0.3-0.1,0.5,0c0,0,0,0.1,0,0.1c0,0.1,0,0.1,0.1,0.2h0
	h0c0,0,0,0,0,0c0,0,0,0.1,0,0.1c-0.2,0-0.7-0.1-0.6,0.2c0,0,0,0.1,0.1,0.2c-0.2,0.1-0.2,0.4-0.1,0.5c0-0.1,0.1-0.2,0.3-0.3
	c0,0.1,0.1,0.1,0.1,0.1c0.1,0.2,0.4-0.2,0.6-0.1c0,0,0,0,0,0c-0.2,0.1-0.5,0.3-0.4,0.5c0,0,0.1,0.1,0.1,0.1c-0.1,0.2,0,0.4,0.3,0.5
	c0-0.1-0.1-0.2,0-0.3c0.1,0,0.2,0,0.3,0c0.5-0.2,0.2-0.6,0.3-0.7c0.2-0.2,0.4,0.3,0.8,0c0.1-0.1,0.2-0.2,0.1-0.4c0,0,0,0,0,0v0
	c0.1,0.1,0.2,0.2,0.4,0.1c-0.3-0.3,0-0.4,0.2-0.6c0,0,0-0.1,0.1,0c0.1,0,0.3,0,0.5-0.3c-0.2,0-0.8-0.3-0.4-0.4
	c0.5-0.2,0.6-0.4,0.4-0.7c-0.4-0.5-1.2-0.5-1.2-1.1c0.3,0,0.6,0,0.7,0c2.5,0,4-0.7,4-1.5c0-0.6-0.7-0.9-2.5-0.8
	c-2.2,0.1-5,0.4-5-0.3C159.5,181.3,159.9,181.1,160.5,180.9 M154.6,180.9c-0.1,0.2-0.3,0.3-0.5,0.2c-0.2-0.2,0-0.2-0.2-0.6
	C154.1,180.6,154.5,180.8,154.6,180.9 M155.1,182.1c-0.1,0-0.1-0.2-0.2-0.2c-0.1,0-0.1,0.1,0,0.2c-0.2-0.1-0.3-0.1-0.4,0
	c-0.1,0.1,0,0.2,0.1,0.3c0.1,0.1,0,0.2-0.1,0.3c-0.1,0.1-0.2,0.4-0.5,0.2c-0.2-0.1-0.2-0.4-0.1-0.5c0.1-0.1,0.1-0.2,0.2-0.2
	c0.1,0,0.2,0,0.3-0.2c0.1-0.2-0.1-0.2-0.2-0.3c0.2,0,0.2-0.1,0.1-0.2c-0.1-0.1-0.2,0.1-0.3,0c0-0.1,0.1-0.1,0.1-0.2
	c0.1-0.1,0.1,0,0.2,0l0.7,0.3c0.1,0.1,0.1,0.1,0.1,0.2C155.1,182,155.1,182.1,155.1,182.1 M155.4,181.7c-0.2,0-0.3-0.3-0.3-0.5
	c0.1,0.1,0.6,0.3,0.8,0.3C155.6,181.5,155.7,181.7,155.4,181.7"/>
<path class="st0" d="M108.3,153.7c-0.4-2.5-0.1-4.8-2.9-8.1c-2.7-3.2-11.9-13.3-14.7-16.5c0.7-0.1,1.6,0.1,3.4,1.8
	c1.1,1,3.8,3.7,5.8,5.6c2.4-6.4,6-12.2,10.5-17.3c0.8-0.9,1.6-1.7,2.5-2.6c-2,0.5-4,1.3-5.8,2.5c-0.1-2.8-0.8-5.4-2.7-7.2
	c0.7-3.9,0.1-8.7-8.7-14.5c4.5,1.1,7.2,5.2,10.6,2c-3.1-0.1-3.2-6.8-14.3-12.4c4.2-0.1,7.6,6.8,12.5,2.9c-4.6-0.6-6.2-8.8-14.5-11.4
	c2.9,0.3,5.9,1.8,8.4-1.6c-2.9,0.7-4.6-2-7.7-2.2c1.2-3.6,0.9-5.8-0.4-8.5c-2.2,0.2-4.4,0.8-6,2.1c-0.2-2-2.3-2.1-4.2-2
	c0.1,0.9,0.5,2.1-0.4,2.3C78,69,73,70.3,69.2,71.8c-3.8,1.5-8.2,4.2-9.5,5.1c-0.8,0.5-1.4-0.7-1.9-1.3c-1.4,1.1-2.7,2.6-1.7,4.1
	c-2.1,0.2-4.5,0.7-6.5,2.3c0,2.5,2.1,4.9,5.1,6.2c-5.2,5.1-0.5,9.9-5,14.4c6.4,0.2,5.3-8.7,8.5-9.9c-0.3,6.3-3.8,7.4-3.8,14.1
	c0,3.6,2.2,7.5,0.2,9.9c5.4-1.5,3.9-13.3,7.3-16.9c0.6,2,0.2,4-0.4,6c-1.9,5.5,0.2,13.1-2.7,15.5c4.8-0.5,5.9-7.2,9.1-11.1
	c-3.4,8.9-7.1,24.4-12.1,31.7c-9.3,12.6-14.8,27.9-23.3,27.9c-3.8,0-6.6-2.3-6.6-7.1c0-14.3,24.5-24.1,24.5-39.3
	c0-6.8-5.5-9.4-9-9.4c-2.3,0-5.1,1.2-7.5,3.1c-1-0.4-2-0.6-2.9-0.6c-8.7,0-6.3,15.5-13.9,15.4c3,1.7,8.1-1.6,11.2-5.9
	c-1.3,10.1-15.8,7.4-14.7,19.5c2-9.5,25.2-8.1,25.2-22.5c0-1.6-0.8-3-2-4c1.7-1.1,3.4-1.5,4.9-1.5c2.8,0,5.3,2.1,5.3,6.1
	c0,12.7-24.3,23.5-24.3,39.1c0,2.6,0.8,4.8,2,6.6c-1.7,0.7-3.5,0.4-4.9-1.3c-0.1,4,5.6,6.6,9.2,4.6c0.8,0.3,1.6,0.4,2.5,0.5
	c-1.1,3-4.8,3.9-6.8,3.8c6,4.7,16.4-1.5,15.8-6.8c4.7-3.8,7.7-10.4,11.2-14.7c-0.2,1-0.4,2-0.5,3c-3.5,6.3-6.8,12-7.7,20.4
	c-0.8,7-4.3,13.3-9.2,13.3c-1.1,0-2.8-1.4-3.7-0.7c-1.5,1.3-0.1,2.7-0.1,4c0,2-3.8,4-3.8,10.1c0,2.8,1.6,6.1,1,7.9
	c1.6-0.8,3.7-3.4,4.5-6.8c1.7,8.1-3.5,7.8,0.2,15c0.5-2.4,2.8-3.4,4.3-2.4c1.5,1,0.8,1.7-0.3,2.8c-1.1,1.1-2.1,6.4,2.8,6.1
	c-0.9-0.6-1-2,1.5-2.5c3.4-0.7,4.4,0.9,8,0.9c2.2,0,2.8-2.9,4.6-2.9c1.8,0,1.8,1.4,1.2,2.4c2.8-0.8,3.4-2.3,3.4-3.9
	c0-1.6-1.3-2.6-0.3-3.2c1-0.6,4.3,0.1,3,2.8c1.7-0.3,2.6-1.5,2.6-3.6c0-2.1-2.4-3.3-4.6-2.9c-0.4-1.3-2.3-2-4.1-2
	c-4,0-3.4,3.2-6.1,3.2c-4.4,0-8.6-5.7-8.6-15.3c0-5.1,5.5-6.4,9.4-8.1c3.9-1.7,10.8-5.9,14.9-12.8c3.2-5.4,3.3-11.3,2.9-18.3
	c5.5,3.2,6.2,7.7,6.2,11c0,4.3-2.2,6-4,6.8c-1.5,0.7-2,0.4-2.1,1.3c-0.2,1.1,0.5,1.7,1.2,2.1c2,1,1.6,2.9,2.1,5
	c0.6,2.1,2.4,5.3,5.5,7.7c0.3-1.3,0.2-3.3,0.1-6c4.2,2.1,0.8,10.6,9.1,10.6c-1.5-0.9-1.1-3.1-0.2-3.4c0.9-0.3,2,0.6,3.6,2.8
	c1.6,2.2,1.2,2,5.1,2c3.9,0,2.1-1.3,4.2-1.3c2.1,0,1.9,2.4,0.8,4.1c3.5-1,4.5-3.7,3.4-6.4c3.1-1.7,4.7,0.7,5.1,2.4
	c3-3,0-6.7-2.4-6.9c0.1-1.1-1-2.3-2.2-2.4c-1.3-0.1-2.5-0.2-3.9-0.1c-1.4,0.1-2.2,2.2-3.9,2.2c-5.2,0-15.4-9.3-15.4-13.4
	c0-4,9.8-6.5,9.8-12.8c0-8.2-8.1-11-14.8-16.3c2.4-2.7,9.5-3.3,13.5-1.4c0.5-2.3,1.9-1.7,2.5-5.7c1.4,3.5-0.5,6.3,1,7.8
	c1.1-1.7,4.1-1.4,3.9-5.7c0.9,2.7-1.1,6.8,0.9,8.6c0.4-2.2,1.7-2.6,2.5-2.6c0.8,0,1.6,0.6,1.6,1.9c0,3.3-3.9,2.4-3.9,6.1
	c0,1.6,2,2.1,2,3.1c0,1-1.6,2.6-3.6,1.2c0.6,1.4,1.9,2.7,3.6,2.7c1.8,0,3.7-1.4,4.4-3.3c0.9,2.4,0.2,5-1.5,5.3
	c1.8,0.9,6,0.1,5.5-5.4c2.4,0.4,3.6,2,2.2,4.9c2-0.5,3.8-1.4,3.8-3.5c0-1.6-1.6-2.7-1.3-4.9C111.1,157.8,108.7,156.1,108.3,153.7
	 M65.3,86c-2.2,0.2-2.2-1.9-6.1-2.9c2.8-0.6,6.3-2,9.4-3.1C69.2,82.5,68.2,85.7,65.3,86 M81.2,102.7c-2.9,1.2-5.1-1.3-5.7-3
	c-0.6-1.7-1-3.1-0.3-3.8c1.2-1.2,1.6-2.2,0.9-3.7c-0.9-1.8-2.7-0.9-4.7-0.4c0.9-1.7,1-2.9-0.3-2.7c-1.5,0.2-1.5,2.6-2.4,2.3
	c-0.9-0.3-0.4-1.7-0.4-2.5c0-1,0.7-1.4,1.7-1.9l8.3-3.2c1.1-0.4,1.8-0.6,2.6,0.2c0.5,0.5,1.9,1.2,1.4,2c-0.4,0.8-2.1-1-3.4,0
	c-1,0.8-0.1,1.6,1.7,2.1c-1.8,1-3.7,1.7-3.1,3.6c0.5,1.6,1.4,2,3.2,2c0.9,0,1.6,1.4,2.4,3C84,98.4,84.2,101.4,81.2,102.7 M81.7,79.6
	c-2.2,1.7-5.2,0.2-6.5-2.1c3.1-1.3,6.6-2.7,9-4.2C81.9,76.7,83.4,78.2,81.7,79.6"/>
<path class="st0" d="M53.8,66.5c0-0.9-0.7-1.6-1.6-1.6c-0.9,0-1.6,0.7-1.6,1.6c0,0.9,0.7,1.6,1.6,1.6C53.1,68.1,53.8,67.3,53.8,66.5
	"/>
<path class="st0" d="M53.2,62.2c0-0.9-0.7-1.6-1.6-1.6c-0.9,0-1.6,0.7-1.6,1.6c0,0.9,0.7,1.6,1.6,1.6C52.5,63.8,53.2,63.1,53.2,62.2
	"/>
<path class="st0" d="M54.2,60.3c0.9,0,1.6-0.7,1.6-1.6c0-0.9-0.7-1.6-1.6-1.6c-0.9,0-1.6,0.7-1.6,1.6C52.6,59.6,53.3,60.3,54.2,60.3
	"/>
<path class="st0" d="M58.4,60.1c0.9,0,1.6-0.7,1.6-1.6c0-0.9-0.7-1.6-1.6-1.6c-0.9,0-1.6,0.7-1.6,1.6C56.8,59.3,57.5,60.1,58.4,60.1
	"/>
<path class="st0" d="M76.5,57.1c0.6,0.6,1.6,0.6,2.3,0c0.6-0.6,0.6-1.6,0-2.2c-0.6-0.6-1.6-0.6-2.3,0C75.9,55.5,75.9,56.5,76.5,57.1
	"/>
<path class="st0" d="M76.2,53.7c0.6-0.6,0.6-1.6,0-2.3c-0.6-0.6-1.6-0.6-2.2,0c-0.6,0.6-0.6,1.6,0,2.3
	C74.5,54.3,75.5,54.3,76.2,53.7"/>
<path class="st0" d="M71.9,53c0.6-0.6,0.6-1.6,0-2.2c-0.6-0.6-1.6-0.6-2.3,0c-0.6,0.6-0.6,1.6,0,2.3C70.3,53.6,71.3,53.6,71.9,53"/>
<path class="st0" d="M68.3,55.7c0.6-0.6,0.6-1.6,0-2.2c-0.6-0.6-1.6-0.6-2.3,0c-0.6,0.6-0.6,1.6,0,2.3
	C66.7,56.3,67.7,56.3,68.3,55.7"/>
<path class="st0" d="M58.2,53.5l1.3,2.8l1.6-1.9c0.1,0,0.1,0,0.2,0.1c0.1,0.9,0.2,2.6,0.2,3.5c0,1.1,0.9,2,2,2c1.1,0,2-0.9,2-2
	c0-0.8-0.4-1.4-1.1-1.8c-0.8-0.6-1.7-1.4-2.2-2.1c0-0.1,0.1-0.2,0.1-0.2L65,54l-1.1-2.9l-2,1.7c0,0-0.1,0-0.1,0l-0.1-3l-2.8,1.1
	l1.9,2.2c0,0.1-0.1,0.1-0.1,0.2L58.2,53.5z"/>
<path class="st0" d="M76.6,58.5c0.6,1,0.8,1.4,0.9,2.2c-0.5-0.2-1-0.7-1.7-1.5l0.3,3.7c0.4-0.7,0.8-1.1,1.3-1.3
	c-0.1,2.4-1.1,3.4-1.9,3.6c-1,0.2-1.8-0.5-1.9-1.2c-0.2-1.1,0.7-1.7,1.7-0.8c0.2-2.2-1.6-2.2-2.4-1.3c0.9-2.2,0.6-3.6-1.4-4.7
	c-1.2,2-0.7,3.3,0.8,4.9c-1.5-0.8-2.8,0.5-1.5,2.1c0.3-1.4,1.5-1.1,1.8,0c0.3,1-0.7,2.2-2.3,2.7c-2.3,0.7-3-0.8-3.6-2
	c0.5-0.3,1.7-0.2,3,0.6l-1.1-3.6c-0.5,1.3-1.3,1.8-2.2,2.2c-0.1-1.1,0.7-3.2,0.7-3.2l-4.4,1.8c0,0,2,1,2.7,1.8
	c-0.9,0.3-1.8,0.5-3.1-0.1l1.7,3.4c0.3-1.5,1.1-2.4,1.7-2.5c0.5,1.3,1,2.8-1.2,3.9c-1.5,0.8-3,0.5-3.5-0.4c-0.6-1,0.1-2.1,1.3-1.3
	c-0.2-2.1-2-2.1-2.6-0.5c0-2.2-0.5-3.5-2.8-4.1c-0.6,2.2,0.2,3.4,2.3,4.3c-1.2-0.1-2.5,1.1-0.9,2.6c0-1.4,1.1-1.5,1.8-0.6
	c0.4,0.6,0.4,1.7-0.5,2.2c-0.7,0.5-2.1,0.4-3.9-1.2c0.5-0.2,1.1-0.1,1.9,0l-2.3-2.9c0.1,1,0.1,1.8-0.1,2.2c-0.5-0.6-0.7-1.1-0.9-2.2
	L52.7,69c1.7,1,3.6,2.7,6,5.9c2.5-1.6,7-3.7,9.7-4.8c2.8-1.1,7.5-2.7,10.3-3.3c-0.6-4-0.3-6.5,0.2-8.4L76.6,58.5z"/>
<path class="st0" d="M266.8,198.7c0,3.8,3.1,6.9,6.9,6.9c3.8,0,6.9-3.1,6.9-6.9c0-3.8-3.1-6.9-6.9-6.9
	C269.9,191.8,266.8,194.9,266.8,198.7 M268.5,198.7c0-2.8,2.3-5.1,5.1-5.1c2.8,0,5.1,2.3,5.1,5.1c0,2.8-2.3,5.1-5.1,5.1
	C270.8,203.8,268.5,201.5,268.5,198.7"/>
<path class="st0" d="M241.1,205.1c-0.9,0.6-1.5,1.5-1.7,2.5c-0.2,1.2,0.2,2.4,1.1,3.4c0.8,1,2.1,1.6,3.4,1.9
	c1.4,0.2,2.8,0.1,3.9-0.5c1.2-0.6,2-1.6,2.2-2.9h0c0.4-2.4-1.6-4.8-4.5-5.3C243.9,203.9,242.3,204.2,241.1,205.1 M244.2,211.2
	c-2-0.4-3.3-1.8-3.1-3.3c0.1-0.7,0.6-1.2,1-1.4c0.8-0.6,1.9-0.8,3-0.6c1.8,0.3,3.1,1.6,3.1,2.9c0,0.1,0,0.2,0,0.3
	C248,210.6,246.2,211.5,244.2,211.2"/>
<path class="st0" d="M203.2,108.5c-2.1,1.7-2.8,4.5-1.4,6.2c1.4,1.8,4.2,1.8,6.4,0.2c1.2-0.9,1.9-2.2,2.1-3.5c0.1-1-0.1-2-0.7-2.7
	c-0.6-0.7-1.4-1.2-2.4-1.3C205.8,107.2,204.4,107.6,203.2,108.5 M202.9,112.6c0-0.9,0.5-1.9,1.4-2.6c0.8-0.6,1.8-0.9,2.6-0.8
	c0.4,0.1,0.9,0.2,1.3,0.7c0.4,0.5,0.4,1,0.3,1.4c-0.1,0.8-0.6,1.7-1.4,2.3c-1.4,1-3.1,1.1-3.9,0.1C203,113.4,202.9,113,202.9,112.6"
	/>
<path class="st0" d="M233,193.6c-1,1-1.7,2.5-1.7,4.1v0.1c0,1.6,0.6,3,1.5,4.1c0.8,0.8,1.8,1.2,2.8,1.3c1,0,2-0.4,2.8-1.2
	c1-1,1.7-2.5,1.7-4.1c0-1.4-0.4-2.7-1.1-3.7c-0.8-1.1-1.9-1.7-3.2-1.7C234.9,192.4,233.8,192.9,233,193.6 M235.7,201.4L235.7,201.4
	c-0.7,0-1.2-0.4-1.5-0.7c-0.7-0.7-1.1-1.8-1-2.9c0-1.1,0.4-2.2,1.1-2.9c0.3-0.3,0.9-0.7,1.6-0.7c1.5,0,2.6,1.7,2.6,3.7
	c0,1.1-0.5,2.2-1.1,2.9C237,201.1,236.4,201.5,235.7,201.4"/>
<path class="st0" d="M199.4,138.1c-1.1,0.4-1.9,1.1-2.3,2c-1.1,2.2,0.3,5,2.9,6.3c1.5,0.7,3.1,0.8,4.5,0.3c1-0.4,1.9-1.1,2.3-2
	c0.4-0.9,0.5-2,0.1-3.1c-0.5-1.4-1.6-2.6-3-3.3C202.4,137.7,200.7,137.6,199.4,138.1 M200.8,144.8c-1.8-0.9-2.7-2.6-2.1-4
	c0.3-0.6,0.9-0.9,1.3-1.1c0.9-0.3,2-0.2,3.1,0.3c1,0.5,1.8,1.3,2.1,2.2c0.2,0.4,0.3,1.1,0,1.7c-0.3,0.6-0.9,0.9-1.3,1.1
	C202.9,145.4,201.8,145.3,200.8,144.8"/>
<path class="st0" d="M271.7,131c2.2,6.1,6.7,8.4,10.1,6.8c-7.6-0.9-1.4-13.9-11.2-13.9c-0.6,0-1.1,0.1-1.6,0.2
	c-1.6-1.7-3.5-2.5-6.4-2.5c-4.1,0-11.3,4-11.3,12.2c0,17.7,20.6,19.3,20.6,35c0,4.6-3.5,7.4-7.3,7.4c-3.5,0-6.3-3.9-9.2-10
	c-1.4-2.9-4.4-6.9-7.6-11c0.9,0.7,2,1.1,3.1,1.1c1.1,0,2.1-0.3,2.9-1c0.7-0.7,1.2-1.7,1.2-2.8c0-0.1,0-0.1,0-0.2
	c0-1.4-0.6-2.8-1.7-4c-1.1-1.2-2.6-1.9-4-1.9c-1.1,0-2.1,0.4-2.9,1c-0.7,0.7-1.2,1.7-1.2,2.8c0,0.1,0,0.1,0,0.2
	c0,0.6,0.1,1.2,0.3,1.8c-4.4-5.8-8.6-11.5-8.6-14.6c0-2.8,1.9-5.2,4.2-8.1c0.1,0.1,0.8,0.4,0.8,0.4l0.6-0.7c0.8-0.9,2.5-2.8,6.1-6.6
	l0.2-0.2l0,0l0.9-0.9l-2.2-1.8c0.6-1.3,1.1-2.8,1.5-4.4c0.7,2.9,2.1,4.7,4.2,4.1c-1.3-3,1.4-6.9-0.4-14.1c1.7,2.8,4.1,4.3,5.9,3.8
	c-4.6-4.1,1.4-9.7-4.6-18.5c2,0.7,3.2,0.3,4.1-0.7c-5.4-0.8-2.9-7.7-12.5-10.2c2.4-0.4,3.7-1.8,3.4-3.1c-2.5,1.8-4.7-3.4-13-3.2
	c-0.5-3.1-3.4-6.3-6.6-7.9c0.6,2.4,0,4.5-0.6,6.3l-26.9-26.4c-0.8-0.7-1.2-0.9-1.4-0.6c-0.2,0.3-0.2,0.8,0.3,1.3l23.1,28.9
	c-1.7,0.6-3.4,1.3-5.2,2c-1.1,0.4-2,1.6-2,3c-4.3,2.1-8,4.8-9.9,6.5c-1.4,1.3-2.6,1.6-1.3,4.5c0.5,1.1-1,3.8,2.3,1.8
	c2.2-1.3,7.2-4,7.9-2.3c0.4,0.9-2.1,2.1-3.8,2.7c-1.7,0.7-3.5,1.9-3.2,2.6c0.3,0.6,1.6,0,1.7,0.6c0.1,0.8,0.6,1.4,1.3,1.4
	c0.7,0,1.5-1.4,2.1-0.9c0.5,0.5-0.3,3.6-0.8,4.4c2.6-0.3,4.3-2.8,4.4-4.8c0.1-1.9,0.6-2.4,1-2.7c0.4-0.3,0.9,2.1,0.3,3.5
	c1.4-0.3,2.8-2.1,2.6-5.5c0.7-0.5,1.4-1,1.9-1c0.9,0,2.6,2.4,5.1,2.4c4.6,0,7.1-3.7,7.4-5.4c0.2-1.4,0.1-2.8-0.6-3.8
	c1.6,1.3,2.2,3.4,2.2,4.9c0,6.5-11.4,9.5-16.1,14c-0.2,0.2-0.3,0.3-0.5,0.5l-5.4-2.1l-0.4,1.2c0,0.1-0.1,0.3-0.3,1
	c-0.6,1.8-1.7,5.7-2.5,7.9c0,0-0.3,0.9-0.3,0.9l0.5,0.3c-3.2,4.2-5.8,9-6.3,13.8c-1.3-1.3-2.5-2.4-3.9-3.6c0.1-0.5,0.2-1,0.3-1.5
	c0.1-1.4-0.4-2.8-1.2-3.8c-0.7-0.8-1.6-1.2-2.5-1.2c-0.9-0.1-1.9,0.3-2.6,1c-0.2,0.2-0.3,0.3-0.5,0.5c-0.2-0.1-0.4-0.3-0.6-0.4
	c-1.8-1.4-4-3-5.3-4.4c-0.6-0.6-1.1-1-2.3-1c-0.5,0-1.6,0-2.4,0c-0.8,0-1.3,0.6-2.2,1.4c-0.5,0.4-2.2,1.8-3.9,3.1
	c0.8,0.8,1.6,1.6,2.4,2.5c0.2,0.2,0.4,0.5,0.7,0.7c0.8-0.6,1.3-1,1.7-1.4c0.6-0.5,1.3-0.6,2-0.6c0.7,0,1.6,0.5,2.3,1.5
	c0.5,0.7,4.8,6.4,8.4,10.4c-0.4,0.1-0.8,0.3-1.1,0.4c-1.5,0.6-5,0.5-6.6,0.4c-1.5-0.1-1.8-0.5-2.9,1.1c-0.4,0.6-0.9,1.4-1.4,2
	c-0.5,0.6-0.9,1.3,0.2,3.2c1.6,2.7,5.5,9.7,6.8,12.9c1.3,3.2,2.8,3.7,5.3,4.7c2.5,1,6.8,3.5,7.3,4l0.2-2.4c-0.7-0.7-3.1-1.6-4-2
	c-0.9-0.3-1.1-0.7-0.1-0.7c1.1,0,4.1,1.1,6.2,1.9c-0.6-2.4-2.9-5-4.3-6.5c-1.8-0.5-3.6-0.5-4.4,0.1c0.1,0.5-0.3,1.1-1,1.1
	c-0.7,0-1.2-0.6-1-1.3c0.2-0.7,1.3-1,1.1-2.3c-0.2-1.4-1.9-1.6-3-1.7c-1.5-2.2-3.3-5.5-4.1-6.8c-0.8-1.3-0.3-2,0.2-2.5
	c1.3-1.1,4,0.6,9.5,0.9c1.9,0.1,4.3,0.2,6.8,0.4c0.7,6.3,3.3,12.4,12.1,14.6c4.3,1.1,8.7,4.2,10.3,8.4c-17.6-0.3-20.4,6.6-20.4,13
	c0,7.4,6.2,7,6.2,12.5c0,4.8-14.8,6.8-19.3,7.5c-3.8,0.6-6,1.4-7.8,3.2c-1.8,1.8-3.7,3.6-7,6.9c0,0,1.4,0.3,2.8,0.2l2.5-3.2
	c0.7-1.1,1.2-2,1.7-1.9c0.5,0.1,0.2,0.9-0.4,2.1l-2.1,3.5c8.7,0.6,9.3-2.6,9.3-4c0-1.3-2.1-2.2-0.9-3.1c1.2-0.8,2.3-0.2,3.3,0.9
	c1,1.2,1.3,2.2,3.7,1.2c0,0,19-7.9,21.4-9c2.2-1,1.5-1.9,0.3-3c-1.4-1.2-1.7-3.1-1.7-5.1c0-5.7,3.5-7.5,9.6-7.4
	c-0.1,1-0.2,1.9-0.2,2.8c0,9,13.6,17.7,17.2,17.7c1.6,0,3.8-1.2,4,4.2c0.1,4,0.9,6.8,0.2,11.4c-0.7,4.6-2,5.3-4.8,7.2
	c-2.7,1.9-5.4,8-6.5,9.3c1.2,0.8,2.5,0.9,3.6-2c0.8-2.4,1.8-4.2,2.9-4.8c-1.1,2.7-1.9,6.6-2.4,7.8c3.5,0.6,9.1-2.5,9.1-5
	c0-2.4-1.9-2.2-1.9-3.9c0-0.7,0.9-1.5,1.9-1.5c1.4,0,2.4,1.1,2.5,1.6c1.5-0.8,2.5-2.3,2.4-5.9c0-1.4-0.1-2.8-0.1-4.3
	c0.1,0.2,0.2,0.4,0.3,0.6c0.7,1,1.8,1.6,3.1,1.8c1.3,0.1,2.6-0.3,3.8-1c1.4-0.9,2.3-2.2,2.6-3.6c0.1-0.3,0.1-0.6,0.1-0.9
	c0-0.8-0.2-1.5-0.6-2.1c-0.6-0.9-1.5-1.4-2.5-1.7c-1.4-0.3-3,0-4.4,0.9c-1.2,0.8-2.2,2-2.5,3.3c-0.3-4.9-0.6-9.5-0.5-11.3
	c0.2-2.7,0.3-4-0.6-4.4c-0.9-0.4-1.9,1.1-3.3,1.1c-1.3,0-5.3-3.7-5.3-7.5c0-3.9,4.2-8.9,4-14.2c-0.1-1.6,1-2.5,1.6-1
	c0.8,1.8,2,4.3,3.8,6.3c-1.1,6.7,6.2,13.2,12.3,8.3c-3,0.5-5-2.2-6.4-4.9c0.5,0.1,1,0.1,1.6,0.1c0.3,0,0.6,0,0.9,0
	c2.1,2.6,8.9,2.4,10.6-4.1c-1.2,1.4-3.6,2.4-5.3,2.2c2.5-2,3.9-5.2,3.9-8.6c0-16.9-20.5-18.9-20.5-34.3c0-5.7,5-9.4,8.5-9.4
	c1.3,0,2.4,0.4,3.2,1c-1.3,1.3-2,3.4-1.9,5.9c0.5,12.1,20.4,11.5,20.6,17.4C287,140.1,272.2,142.8,271.7,131 M218.8,84.4
	c1-1.8,0-4.6,3.4-4.6c1.7,0,3.1,1.7,5.1,2.3C224.1,82.3,221.2,83,218.8,84.4 M200.7,121.6c-0.1,1-0.5,1.9-1.1,2.4
	c-0.3,0.2-0.7,0.5-1.3,0.5c-1.1-0.1-2-1.4-2-2.9c0-0.1,0-0.2,0-0.2c0.1-1,0.4-1.9,1-2.4c0.3-0.2,0.7-0.6,1.3-0.5
	c0.6,0,1,0.4,1.3,0.7C200.5,119.7,200.8,120.6,200.7,121.6 M259.3,207c0.2-0.9,0.9-1.9,1.8-2.5c1-0.6,2.1-0.9,3-0.7
	c0.4,0.1,1.1,0.3,1.4,0.9h0c0.4,0.6,0.4,1.2,0.3,1.7c-0.2,0.9-0.9,1.9-1.8,2.5c-1.7,1.1-3.7,1-4.5-0.2
	C259.2,208.1,259.2,207.4,259.3,207 M247,150.3c0-0.4,0.1-1.1,0.6-1.6l0,0c0.5-0.5,1.2-0.6,1.6-0.5c1,0,2,0.5,2.8,1.4
	c0.8,0.8,1.2,1.9,1.2,2.9c0,0.4-0.1,1.1-0.6,1.6l0,0c-0.5,0.5-1.2,0.6-1.6,0.6c-1,0-2-0.5-2.8-1.4C247.4,152.4,247,151.3,247,150.3
	 M213.1,112.1l0.1-0.1c1-3,2.8-8.8,2.8-8.9l0.1-0.2l3.8,1.5l-0.5,0.2c-0.7,0.3-1.6,0.9-2.7,1.9c0.7,0.2,1.7,0.1,2.3-0.3l0.6-0.4
	l-1.7,4.2l-0.2-0.4c-0.2-0.4-1-1.4-1.7-1.7c-0.1,0.3-0.1,0.6-0.1,0.8c0,1.5,1.1,2.2,2.1,2.8c1.8,0.9,3,1.1,3.4,0.3
	c0.1-0.1,0.1-0.3,0.1-0.5c0-0.3-0.1-0.6-0.3-0.8c-0.3-0.4-1-0.7-1.8-0.3l-0.3,0.1l0-0.3c-0.1-1.1,0.2-1.8,0.6-2.1
	c0.4-0.4,0.9-0.6,1.5-0.6c0.6,0,1.2,0.4,1.6,1c0.2-2.3,1.5-4,3.7-4.7l0.2-0.1l0.1,0.2c0.3,0.7,0.4,1.4,0.4,2.1
	c0,1.3-0.6,2.5-1.7,3.8c0.9-0.2,1.7,0.1,2.1,0.7c0.3,0.5,0.4,1.1,0.3,1.6c-0.1,0.5-0.5,1.1-1.4,1.6l-0.3,0.1l0-0.3
	c-0.1-0.7-0.6-1.2-1.2-1.3c-0.5-0.1-1,0.2-1.3,0.6c-0.5,0.9,0.2,1.9,2,2.8c2.1,1.2,3.5,0.2,4.3-1c-0.6-0.1-1.6,0.1-2.5,0.6l-0.7,0.4
	l2.7-5.1l0.1,0.6c0.1,0.3,0.3,1.2,1,1.9c0.1-0.4,0.3-1.1,0.3-1.9c0-0.5-0.1-1-0.3-1.5l-0.3-0.6l5.6,3.3l-0.7,0.1
	c-1,0.1-1.9,0.7-2.8,1.7c1,0.3,1.9,0,2.2-0.1l0.6-0.2l-3.1,4.9l0-0.8v-0.2c0-1-0.3-1.8-0.7-2.3c-0.2,0.5-0.4,1.1-0.4,1.6
	c0,0.9,0.4,1.8,1.7,2.6c1.7,1,2.9,1.1,3.4,0.3c0.3-0.4,0.2-0.9-0.1-1.4c-0.4-0.5-1-0.7-1.7-0.4l-0.3,0.1l0-0.3
	c0-1.1,0.3-1.7,0.7-2.1c0.4-0.4,0.9-0.6,1.5-0.6c0.8,0.1,1.4,0.7,1.6,1.5c0.8-2.4,2.1-3.6,4.4-4l0.2,0l0,0.2
	c0.1,0.4,0.1,0.8,0.1,1.3c0,1.7-0.8,3.2-2.3,4.3c0.7,0,1.4,0.3,1.7,0.9c0.2,0.3,0.3,0.7,0.3,1c0,0.2,0,0.4-0.1,0.6
	c-0.1,0.5-0.5,1.1-1.5,1.5l-0.3,0.1l0-0.3c-0.1-0.9-0.7-1.3-1.2-1.4c-0.5-0.1-1,0.1-1.2,0.5c-0.4,0.7,0.2,1.7,2,2.8
	c1.2,0.7,2.5,1.4,4.1,0c-0.6-0.5-1.8-0.7-2.3-0.7h-0.4l2.8-3.5l0,0.7c0,0,0,0.1,0,0.1c0,0.7,0.4,1.6,0.9,2c0.2-1,0.3-1.8,0.3-2.5
	c0-0.3,0-0.5-0.1-0.7l-0.1-0.5l3.2,2.6l-0.1,0.2c0,0-4.2,4.5-6.3,6.8l-0.1,0.1L213.1,112.1z M241.1,182.2c-1.1,1.6-3.1,2.2-4.3,1.3
	c-1.2-0.9-1.4-2.9-0.2-4.5c1.1-1.6,3-2.2,4.3-1.3C242.1,178.6,242.2,180.6,241.1,182.2 M249.2,169.4c-1.1,1.6-3.1,2.1-4.3,1.3
	c-1.3-0.9-1.3-2.9-0.2-4.5c1.1-1.6,3.1-2.2,4.3-1.3C250.3,165.8,250.4,167.8,249.2,169.4"/>
<path class="st0" d="M153.4,223.7c-0.5,0-1,0.1-1.4,0.2v-8.1c-3.6-0.1-7.9-0.8-12.2-2V224c-0.5-0.1-0.9-0.2-1.5-0.2
	c-2.9,0-4.7,2.5-4.7,4.7c0,2.1,1.3,4.1,2.4,5.4c0.5-1.3,1-2.4,1.8-2.4c1.5,0,0.8,7.2,5,7.4c-0.1,0.4-0.2,0.7-0.2,1.2
	c0,1.8,1.5,3.3,3.3,3.3c1.8,0,3.3-1.5,3.3-3.3c0-0.4-0.1-0.8-0.2-1.2c4.3-0.2,3.5-7.4,5-7.4c0.7,0,1.2,1,1.8,2.4
	c1.1-1.2,2.4-3.2,2.4-5.4C158.1,226.2,156.3,223.7,153.4,223.7 M145.9,242c-1,0-1.9-0.8-1.9-1.9s0.8-1.9,1.9-1.9
	c1,0,1.9,0.8,1.9,1.9S146.9,242,145.9,242 M155.8,231.4c-0.5-0.9-1.2-1.5-1.9-1.5c-2.9,0-1.7,7.5-5.1,7.5c-1.5,0-2.3-1-2.3-2
	c0-1.1,0.7-1.4,0.7-2.2c0-0.8-0.7-1.2-1.4-1.2c-0.7,0-1.4,0.3-1.4,1.2c0,0.9,0.7,1.2,0.7,2.2c0,1.1-0.8,2-2.3,2
	c-3.4,0-2.3-7.5-5.1-7.5c-0.6,0-1.4,0.5-1.9,1.5c-0.6-1.1-0.9-2.1-0.9-2.9c0-1.4,1.1-3.3,3.3-3.3c3.8,0,2.9,5.2,4.7,5.2
	c0.8,0,1.4-0.5,1.4-1.3c0-1.5-2.6-2.9-2.6-5c0-2.1,1.9-3.9,4.1-5.6c2.1,1.7,4.1,3.5,4.1,5.6c0,2.1-2.7,3.5-2.7,5
	c0,0.8,0.6,1.3,1.4,1.3c1.8,0,0.9-5.2,4.7-5.2c2.2,0,3.3,1.9,3.3,3.3C156.7,229.3,156.3,230.4,155.8,231.4"/>
<path class="st0" d="M129.4,75.8c-1.3,2.4-2.4,3.9-2.2,5.8c0.2,1.9,2.1,3.2,3.1,5.1c0.8-2.2,2.3-3.9,2.1-5.6
	C132.2,79.3,129.8,77.1,129.4,75.8"/>
<path class="st0" d="M162.2,75.8c1.3,2.4,2.4,3.9,2.2,5.8c-0.2,1.9-2.1,3.2-3.1,5.1c-0.9-2.2-2.3-3.9-2.1-5.6
	C159.4,79.3,161.8,77.1,162.2,75.8"/>
<path class="st0" d="M110.5,74.4c1.2,0,2.2-1,2.2-2.2c0-1.2-1-2.2-2.2-2.2c-1.2,0-2.2,1-2.2,2.2C108.3,73.4,109.3,74.4,110.5,74.4"
	/>
<path class="st0" d="M112,77.5c0-1.2-1-2.2-2.2-2.2c-1.2,0-2.2,1-2.2,2.2c0,1.2,1,2.2,2.2,2.2C111,79.8,112,78.8,112,77.5"/>
<path class="st0" d="M113.1,82.9c0-1.2-1-2.2-2.2-2.2c-1.2,0-2.2,1-2.2,2.2c0,1.2,1,2.2,2.2,2.2C112.1,85.1,113.1,84.1,113.1,82.9"
	/>
<path class="st0" d="M122.8,63.8c1.2,0,2.2-1,2.2-2.2c0-1.2-1-2.2-2.2-2.2c-1.2,0-2.2,1-2.2,2.2C120.6,62.8,121.6,63.8,122.8,63.8"
	/>
<path class="st0" d="M117.3,65.5c1.2,0,2.2-1,2.2-2.2c0-1.2-1-2.2-2.2-2.2c-1.2,0-2.2,1-2.2,2.2C115.1,64.5,116.1,65.5,117.3,65.5"
	/>
<path class="st0" d="M113,69.3c1.2,0,2.2-1,2.2-2.2c0-1.2-1-2.2-2.2-2.2c-1.2,0-2.2,1-2.2,2.2C110.7,68.3,111.7,69.3,113,69.3"/>
<path class="st0" d="M128.6,64.3c1.2,0,2.2-1,2.2-2.2c0-1.2-1-2.2-2.2-2.2c-1.2,0-2.2,1-2.2,2.2C126.4,63.4,127.4,64.3,128.6,64.3"
	/>
<path class="st0" d="M134.1,65.9c1.2,0,2.2-1,2.2-2.2c0-1.2-1-2.2-2.2-2.2c-1.2,0-2.2,1-2.2,2.2C131.9,64.9,132.9,65.9,134.1,65.9"
	/>
<path class="st0" d="M139.3,68.4c1.2,0,2.2-1,2.2-2.2c0-1.2-1-2.2-2.2-2.2c-1.2,0-2.2,1-2.2,2.2C137,67.4,138,68.4,139.3,68.4"/>
<path class="st0" d="M178.8,72.2c0,1.2,1,2.2,2.2,2.2c1.2,0,2.2-1,2.2-2.2c0-1.2-1-2.2-2.2-2.2C179.8,69.9,178.8,70.9,178.8,72.2"/>
<path class="st0" d="M181.8,75.3c-1.2,0-2.2,1-2.2,2.2c0,1.2,1,2.2,2.2,2.2c1.2,0,2.2-1,2.2-2.2C184,76.3,183,75.3,181.8,75.3"/>
<path class="st0" d="M180.7,80.7c-1.2,0-2.2,1-2.2,2.2c0,1.2,1,2.2,2.2,2.2c1.2,0,2.2-1,2.2-2.2C182.9,81.7,181.9,80.7,180.7,80.7"
	/>
<path class="st0" d="M168.7,63.8c1.2,0,2.2-1,2.2-2.2c0-1.2-1-2.2-2.2-2.2c-1.2,0-2.2,1-2.2,2.2C166.5,62.8,167.5,63.8,168.7,63.8"
	/>
<path class="st0" d="M174.3,65.5c1.2,0,2.2-1,2.2-2.2c0-1.2-1-2.2-2.2-2.2c-1.2,0-2.2,1-2.2,2.2C172,64.5,173,65.5,174.3,65.5"/>
<path class="st0" d="M178.6,69.3c1.2,0,2.2-1,2.2-2.2c0-1.2-1-2.2-2.2-2.2c-1.2,0-2.2,1-2.2,2.2C176.4,68.3,177.4,69.3,178.6,69.3"
	/>
<path class="st0" d="M163,64.3c1.2,0,2.2-1,2.2-2.2c0-1.2-1-2.2-2.2-2.2c-1.2,0-2.2,1-2.2,2.2C160.7,63.4,161.7,64.3,163,64.3"/>
<path class="st0" d="M157.5,65.9c1.2,0,2.2-1,2.2-2.2c0-1.2-1-2.2-2.2-2.2c-1.2,0-2.2,1-2.2,2.2C155.3,64.9,156.3,65.9,157.5,65.9"
	/>
<path class="st0" d="M150.1,66.1c0,1.2,1,2.2,2.2,2.2c1.2,0,2.2-1,2.2-2.2c0-1.2-1-2.2-2.2-2.2C151.1,63.9,150.1,64.9,150.1,66.1"/>
<path class="st0" d="M142,78.1h2.5v-9.5c-0.9-0.1-1.7-0.4-2.5-0.8V78.1z"/>
<path class="st0" d="M149.6,67.9c-0.8,0.4-1.6,0.6-2.5,0.8v9.5h2.5V67.9z"/>
<path class="st0" d="M144.3,57.4v-5.6c-2.8,0.6-4.9,2.8-5.4,5.6H144.3z"/>
<path class="st0" d="M147.2,57.4h5.4c-0.5-2.8-2.6-5-5.4-5.6V57.4z"/>
<path class="st0" d="M139,60.1c0.7,3.1,3.5,5.4,6.8,5.4c3.3,0,6.1-2.3,6.8-5.4H139z"/>
<path class="st0" d="M149.6,50.9c-1.6-1.2-2.8-3-3-4.9c1.8,0.3,3.8,1.6,5,3.2v-7.6c-1.2,1.6-3.3,2.9-5,3.2c0.2-1.8,1.3-3.5,2.9-5.5
	h-7.4c1.5,1.9,2.7,3.6,2.9,5.5c-1.8-0.3-3.8-1.6-5-3.2v7.6c1.2-1.6,3.2-2.9,5-3.2c-0.2,1.9-1.4,3.7-3,4.9H149.6z"/>
<path class="st0" d="M157.7,203.1c-7-1.7-15.3-4.7-23-8.3l0-0.1c0.2-1.6-0.4-3.3-1.6-4.7c-1.2-1.4-2.8-2.2-4.4-2.2
	c-0.7,0-1.4,0.2-2.1,0.4c-1.1-1-2.2-2.1-3.2-3.3c-2.9-3.4-5.2-7.4-6.8-11.9c-0.9-2.5-1.6-5.2-2-7.9c-0.4,2.3-3.1,4.9-7.4,4.9
	c0.1-0.5-0.1-1.2-0.5-1.3c-1.2,1.3-2.7,2.6-6.6,1.2c0.6,3.1,1.5,6.1,2.6,9.1c2.4,6.3,5.7,12,10,16.8c1.4,1.6,2.9,3.1,4.5,4.5
	c0,0.3-0.1,0.6-0.1,0.9c0,1.6,1.6,4.2,3.9,5.3c1.9,0.9,3.9,0.7,5.7-0.6c3.4,1.8,7.7,3.5,12.4,4.8c5.2,1.5,10.3,2.3,14.2,2.3
	c3.4,0,7.9-1.6,12.3-4.4c1.8-1.1,3.4-2.4,4.7-3.5c0.2-0.2,0.3-0.3,0.5-0.5C167.2,205.2,162,204.2,157.7,203.1 M105,178.5
	c-0.6-1.5-0.6-2.9,0-4.2c0.5-1.2,1.6-2.2,2.9-2.7c1.3-0.5,2.7-0.5,4,0.1c1.3,0.6,2.3,1.7,2.9,3.1c0.3,0.7,0.4,1.4,0.4,2.1
	c0,0.7-0.1,1.4-0.4,2.1c-0.6,1.3-1.6,2.2-2.9,2.7c-1.3,0.5-2.7,0.5-3.9-0.1C106.6,181,105.6,179.9,105,178.5 M113.4,193.1l-1.7-2.4
	c0,0,2.7-1.9,3-2.1c-0.2-0.3-1.5-2.1-1.7-2.4c-0.3,0.2-3,2.1-3,2.1l-1.7-2.4l8.3-5.9l1.7,2.4c0,0-2.7,1.9-3,2.1
	c0.2,0.3,1.5,2.1,1.7,2.4c0.3-0.2,3-2.1,3-2.1l1.7,2.5L113.4,193.1z M132.2,192.6l-0.7-0.6c-1.4-1-2.5-1-3.7,0
	c-0.6,0.5-1.1,1.1-1.6,1.7l-0.8,0.9l0.5,0.4c1.4,1.1,1.6,2.4,1.2,3.1c-0.2,0.3-0.4,0.5-0.7,0.6c-0.7,0.2-1.7-0.1-2.7-0.7l-0.5-0.3
	l-0.3,0.5c-0.1,0.1-0.2,0.3-0.3,0.4c-0.1,0.2-0.2,0.4-0.4,0.6c-0.6,1.1-0.9,1.9-0.9,2.6c0,0.2,0,0.4,0.1,0.5
	c0.2,0.8,0.8,1.1,1.4,1.5l0.3,0.2c0.6,0.4,1.5,0.9,2.2,1.3c-1.3,0.7-2.5,0.8-3.8,0.2c-1.9-0.9-3.1-3.1-3.1-4.2
	c0-1.7,0.7-3.7,2.1-5.9l0.2-0.3l-0.2-0.3c-0.4-0.7-0.7-1.3-1-1.9c0.7,0.1,1.4,0.2,2.1,0.4l0.4,0.1l0.2-0.3c0.8-0.9,3.8-3.9,6.5-3.9
	c1.2,0,2.5,0.6,3.5,1.7c0.7,0.8,1.1,1.7,1.3,2.7C133.1,193.3,132.6,193,132.2,192.6 M136.7,205.9c-1.6,0-3-1.3-3-3c0-1.6,1.3-3,3-3
	c1.6,0,3,1.3,3,3C139.7,204.6,138.4,205.9,136.7,205.9 M149.8,209.9c-1.5,0-2.7-1.2-2.7-2.7c0-1.5,1.2-2.7,2.7-2.7
	c1.5,0,2.7,1.2,2.7,2.7C152.5,208.7,151.3,209.9,149.8,209.9"/>
<path class="st0" d="M112.2,176.8L112.2,176.8c0-0.3-0.1-0.7-0.2-1c-0.5-1.3-1.8-1.9-3-1.4c-1.3,0.5-1.8,1.8-1.3,3.1
	c0.2,0.6,0.7,1.1,1.3,1.4c0.5,0.2,1.2,0.2,1.8,0C111.6,178.5,112.2,177.7,112.2,176.8"/>
<path class="st0" d="M113.7,132.3c-1.1-0.6-2.4-0.2-3,1c-0.3,0.6-0.4,1.2-0.2,1.7c0.2,0.5,0.6,1,1.1,1.3c0.5,0.3,1.1,0.4,1.6,0.2
	c0.6-0.2,1.1-0.6,1.3-1.1c0.2-0.4,0.3-0.7,0.3-1.1C114.8,133.4,114.3,132.7,113.7,132.3"/>
<polygon class="st0" points="174.7,126.9 173.6,127.2 174.1,127.9 "/>
<path class="st0" d="M187.9,147.5l-0.9-1.9l0,0c-0.2,0.2-0.4,0.5-0.6,0.8c-0.1,0.1-0.2,0.3-0.3,0.5c0.2,0.1,0.4,0.1,0.6,0.2
	C187.1,147.3,187.5,147.4,187.9,147.5"/>
<path class="st0" d="M187,160.6c0.2,0,0.4,0,0.4-0.5c0,0,0-0.4,0-0.6c-0.2,0-0.6,0-0.8,0l0,0.5c0,0.3,0.1,0.4,0.1,0.5
	C186.7,160.6,186.8,160.6,187,160.6"/>
<path class="st0" d="M135.5,112.7c-0.5-0.2-1.2-0.3-1.8,0c-0.7,0.3-1.2,0.7-1.4,1.2c-0.3,0.6-0.2,1.4-0.1,1.8c0.2,0.5,1,2.1,3.1,1.3
	c0.6-0.2,1.1-0.6,1.3-1.2c0.1-0.3,0.2-0.6,0.2-0.9c0-0.3-0.1-0.5-0.2-0.8C136.5,113.4,136.1,112.9,135.5,112.7"/>
<path class="st0" d="M192.6,154.7c-1-0.7-2.1-1.8-2.9-3.4c-1.1-0.4-4.1-1.4-5.4-1.9c0,0-0.6-0.2-0.7-0.2l-4.2,1.1l-0.8-2.9l4.2-1.1
	c0.1-0.1,0.2-0.3,0.4-0.5c0.6-0.8,1.7-2.3,2.3-2.9c-1-1.9-2-3.7-2.7-4.8c-0.6-1.1-0.9-2.1-0.9-2.9l-3.8,2c0.2,0.3,1.7,3.4,1.7,3.4
	l-2.6,1.3l-3-6.1l9.1-4.5l0.4,0.8c0.2-0.3,0.5-0.7,0.7-1c0.3-0.5,0.6-0.8,0.9-1.1c-1.8-3-3.8-5.9-6.2-8.5c-2.9-3.2-6-5.9-9.5-8.2
	c1.9-1.2,3.7-2.9,3.7-5.8c0-1.7-0.7-3.1-1.9-4.2c2-6.3,5.4-13.8,8.4-17.1l-6.3-2.7c1.6,2.5,1.7,5.4,1.4,7.1c-1.6-1.1-3-2.7-3.5-4.7
	c-0.3,1.9-1.4,5-2.3,6.8c1.8-0.9,3.3-1.2,5.1-0.5c-1.1,1.4-3.8,3.6-7.9,2.6c-2.2-0.5-4.5-1.7-4.4-3.4c0.1-1,0.8-2.3,2.2-2.1
	c1.4,0.1,1.4,2.2,1,3.1c1.8-1,3.6-6.3,0.9-7.1c-2.2-0.6-4.2,2.4-5,4.7c-0.4-2.8-1.6-5.5-3.8-5.3c-2.9,0.2-2,5.5-0.9,6.9
	c0.2-1.9,1.2-2.9,2-2.8c0.8,0.1,1.8,0.6,1.6,2.3c-0.2,1.7-2.6,2.8-5.4,2.8c-2.7,0-7.3-0.8-7.7-5.9c1.7,0.3,4.4,1.6,5.6,3.3
	c-0.4-3.1-0.4-5.3,0-8.5c-1.4,2-3.8,3.1-5.5,3.3c0.5-2.2,2.4-4.5,4.6-5.9h-11.4c2.2,1.4,4.1,3.7,4.6,5.9c-1.7-0.3-4-1.3-5.4-3.3
	c0.4,3.2,0.4,5.4,0,8.5c1.1-1.7,3.8-3,5.5-3.3c-0.5,5.1-5.1,5.9-7.8,5.9c-2.8,0-5.2-1.1-5.4-2.8c-0.2-1.7,0.9-2.2,1.6-2.3
	c0.8-0.1,1.9,0.9,2,2.8c1-1.4,2-6.7-0.9-6.9c-2.2-0.2-3.4,2.5-3.8,5.3c-0.7-2.3-2.8-5.4-5-4.7c-2.8,0.8-0.9,6,0.9,7.1
	c-0.4-0.9-0.3-3,1-3.1c1.4-0.2,2.2,1.1,2.2,2.1c0.1,1.7-2.1,2.9-4.4,3.4c-4.1,1-6.8-1.2-7.9-2.6c1.9-0.8,3.3-0.4,5.2,0.5
	c-1-1.8-2-4.9-2.3-6.8c-0.5,2.1-1.9,3.6-3.6,4.8c-0.4-1.7-0.3-4.6,1.4-7.1l-6.3,2.7c3,3.3,6.5,10.9,8.5,17.2
	c-1.2,1.1-1.9,2.4-1.9,4.1c0,2.9,1.9,4.7,3.7,5.8c-3.4,2.3-6.6,5-9.5,8.2c-4.3,4.8-7.7,10.4-10,16.7c-0.1,0.3-0.2,0.6-0.3,0.9
	c0.7,0.7,1.4,1.5,2.1,2.2c0-0.1,0.1-0.2,0.1-0.3c0.3-0.8,1.3-1.7,1.9-2.2l3.1,1.3c-1.3,0.9-2.9,2.2-2.5,2.5c0.1,0.1,0.8-0.4,1.1-0.7
	c0.9-0.7,2.3-1.9,4.2-1.1c0.8,0.3,1.4,0.9,1.8,1.7c0.3,0.8,0.3,1.7,0,2.5c-0.4,0.9-1.3,1.9-2.3,2.6l-2.9-1.1c1.2-0.7,2.3-2,2.5-2.4
	c0.1-0.2,0.1-0.5,0-0.5c-0.2-0.1-0.9,0.3-1.4,0.8c-0.6,0.5-1.3,1-2.2,1.2c1.3,1.9,2.2,3.7,2.3,5.1c0.1,2.8,0.7,4,2.2,5.9
	c2.3,2.9-0.1,2.6,1.9,6.2c-0.1-1-0.1-2-0.2-3h31.2v34.1c-1.3,0-2.7,0.2-3.7,1.5c3.6,1.5,7.2,2.8,10.7,3.8c0.3-2.2,0.9-3.3,2-4.7
	c0,0-4.7-0.5-7.2-0.6v-34.1h30.5c-0.1,4.7-0.9,9.3-2.5,13.6c-1.6,4.5-3.9,8.5-6.9,11.9c-2.9,3.4-6.3,6.1-10.1,8
	c-0.9,0.4-1.5,1.9-2.1,3.2c-0.4,1-0.8,2-1,3.4c1.4,0.4,1.7,0.7,3.1,1.1c10.7,2.7,13.5,2.2,14.1,1.7h0c2.4-1.9,4.7-4,6.7-6.3
	c4.3-4.9,7.7-10.5,10-16.8c2.4-6.5,3.7-13.4,3.7-20.6C192.7,157.3,192.7,156,192.6,154.7 M177.9,123l1.2,1.6l-5.4,10.5l-2-2.7l1-1.8
	l-2-2.5l-1.7,0.6l-2.4-2.3L177.9,123z M170.9,116.3l1.8,1.4l-6.2,8.3l-2.5-1.7l3.1-4.1l-3,0.8l-0.5-3.2l-2.9,4.2l-2.6-1.4l5.9-8.5
	l2,1.1l0.7,4.3L170.9,116.3z M120.6,107.3c0-5.9,16.7-6.4,25.2-6.4h0h0c8.5,0,25.2,0.5,25.2,6.4c0,1.7-1,3-3.5,4.5
	c-4.2-2.8-11.3-5.8-21.7-5.8c-10.4,0-17.6,3.1-21.7,5.8C121.7,110.3,120.6,108.9,120.6,107.3 M156.3,109.6l-2,10.3l-2.9-0.6l2-10.3
	L156.3,109.6z M141.3,117.4l-1.3,2.8c-2.2,0.5-4.6,0-5.1-0.2c-2.4,0.3-4.7-1.1-5.5-3.3c-0.5-1.4-0.5-2.7,0.1-3.9
	c0.6-1.3,1.8-2.3,3.3-2.9c2.8-1,5.8,0.3,6.8,3.1c0.2,0.5,0.3,1.1,0.3,1.7c0,1-0.3,2-0.9,2.8C139.5,117.5,140.4,117.7,141.3,117.4
	 M121.6,116.1l1.9,2l-2,1.9c0.3,0.3,4.7,5.1,4.7,5.1l-2.1,2l-4.7-5.1l-2,1.9l-1.9-2L121.6,116.1z M114.1,123.3l7.7,6l-1.8,2.3
	l-7.7-6L114.1,123.3z M114,139.3c-1.2,0.4-2.6,0.3-3.8-0.4c-1.2-0.6-2-1.7-2.4-2.9c-0.4-1.3-0.2-2.7,0.4-4c0.7-1.3,1.8-2.2,3-2.6
	c1.2-0.4,2.6-0.2,3.8,0.4c1.2,0.6,2.1,1.7,2.4,2.9c0.1,0.5,0.2,1,0.2,1.4c0,0.9-0.2,1.7-0.7,2.6C116.4,138,115.3,138.9,114,139.3
	 M114.1,157.7c0.1-4.8,0.9-9.4,2.5-13.8c1.6-4.5,3.9-8.5,6.8-11.9c2.9-3.4,6.3-6.1,10.1-8c3.7-1.9,7.7-2.8,11.8-2.9v36.5H114.1z
	 M145.9,119c-2.2,0-4.4-1.2-4.5-4.1l0-6.1l3-0.1v5.9c0,0.8,0.1,0.9,0.3,1.1c0.3,0.3,0.7,0.4,1.2,0.4c0.6,0,1.1-0.2,1.3-0.4
	c0.1-0.1,0.3-0.4,0.3-1.2l0-5.8l3,0v6c0,1.2-0.4,2.2-1.1,3C148.5,118.5,147.4,118.9,145.9,119 M147.1,157.7v-36.5
	c3.8,0.2,7.5,1.1,11,2.9c3.8,1.9,7.2,4.6,10.1,8c2.9,3.4,5.2,7.4,6.9,11.9c1.6,4.4,2.4,9,2.5,13.8H147.1z M172.7,198.7l-2-2l2.5-2.5
	l-0.5-0.5l-2.4,2.4l-2.1-2l2.4-2.5l-0.6-0.6l-2.6,2.5l-2-2l4.7-4.6l7.3,7.1L172.7,198.7z M181,189.5c-0.5,0.7-1.6,1.4-2.4,1.7l0,0
	l-2.8-1.9c3-0.9,3.2-1.8,3-1.9c-0.1-0.1-0.6,0.1-1.2,0.4c-1.1,0.5-2.7,1.3-4.4,0.2c-0.7-0.5-1.2-1.2-1.3-2c-0.2-0.8,0-1.7,0.5-2.5
	c0.6-0.8,1.7-1.6,2.8-2l2.8,1.9l-0.5,0.1c-1.4,0.3-2.5,1.1-2.8,1.5c-0.1,0.2-0.2,0.3-0.2,0.4c0,0,0,0.1,0.1,0.1
	c0.2,0.2,1-0.2,1.6-0.4c1.1-0.5,2.6-1.2,4-0.2c0.7,0.5,1.2,1.2,1.3,1.9c0,0.2,0.1,0.4,0.1,0.6C181.7,188.1,181.5,188.8,181,189.5
	 M187.1,177.2l-6.3,2.2l4.7,1.9l-1.1,2.7l-9.5-3.8l0.9-2.2l6.2-2.1l-4.6-1.9l1.1-2.7l9.5,3.8L187.1,177.2z M188.7,172.4l-2.8-0.5
	l0.6-3.5l-0.7-0.1l-0.6,3.4l-2.8-0.5l0.6-3.4l-0.8-0.2l-0.7,3.6l-2.8-0.5l1.2-6.6l10,1.8L188.7,172.4z M190.3,160.1
	c0,1.1-0.4,2-1,2.6c-0.6,0.6-1.4,0.9-2.4,0.9c-0.9,0-1.7-0.3-2.2-0.9c-0.6-0.6-1-1.6-1-2.7v-0.5c-0.4,0-3.6-0.1-3.6-0.1l0.1-3
	l10.2,0.2L190.3,160.1z"/>
<path class="st0" d="M65,231.1c0,0-0.3,0.2-0.6,0.3c0.2,0.4,2.3,3.8,2.6,4.3c0.2-0.1,0.6-0.4,0.6-0.4c2.2-1.2,2-2.7,1.4-3.7
	C67.8,229.9,66.4,230.4,65,231.1"/>
<path class="st0" d="M204.2,217.9c0.2,0,0.3-0.2,0.4-0.3c0.1-0.1,0.1-0.2,0.1-0.3c0-0.2-0.2-0.4-0.4-0.6c0,0-0.8-0.5-0.9-0.5
	c0,0-0.5,0.8-0.7,1.2c0.3,0.2,0.7,0.4,0.7,0.4C203.7,217.9,204,218,204.2,217.9"/>
<path class="st0" d="M190.8,216.4c2,0.5,3.3,0.2,4.1-1.8c0.6-1.4,0.1-2.6-2.2-3.2h0c0,0-0.1,0-0.8-0.2c-0.2,0.5-1.7,4.8-1.8,5
	C190.4,216.3,190.8,216.4,190.8,216.4"/>
<path class="st0" d="M211.1,227.6c0.7,0.4,1.4,0.5,2.2,0.3c0.7-0.2,1.3-0.6,1.7-1.3c0.4-0.6,0.5-1.3,0.3-2c-0.2-0.7-0.6-1.2-1.3-1.6
	c-0.7-0.4-1.5-0.5-2.2-0.4c-0.7,0.2-1.3,0.6-1.7,1.3c-0.4,0.6-0.5,1.3-0.3,2C209.9,226.6,210.3,227.2,211.1,227.6"/>
<path class="st0" d="M160.5,250.8c-0.6-0.5-1.2-0.8-2.1-0.7c-0.9,0-1.6,0.3-2.2,0.9c-0.6,0.5-0.8,1.2-0.8,2c0,0.8,0.3,1.4,0.8,1.9
	c0.6,0.5,1.3,0.7,2.1,0.7c0.9,0,1.6-0.3,2.1-0.9c0.6-0.6,0.8-1.2,0.8-2C161.4,251.9,161.1,251.3,160.5,250.8"/>
<path class="st0" d="M232.3,242.6c5.8,0,11-7.4,18.3-10.6c-18.4,5.4-43.8-25.8-61.1-25.8c-4.8,0-10.5,1.8-13.2,8.5
	c-2.9,7.1-6.2,9.4-6.2,12.6c0,2.7,2.5,4.9,6.7,7.1c2.7,1.4,5.5,2.2,5.4,4.8c-7.9,3.6-20.9,6.1-36.3,6.1c-15.4,0-28.4-2.5-36.3-6.1
	c-0.1-2.6,2.7-3.4,5.4-4.8c4.2-2.2,6.7-4.3,6.7-7.1c0-3.1-3.2-5.5-6.2-12.6c-2.8-6.7-8.4-8.5-13.2-8.5c-17.3,0-42.7,31.2-61.1,25.8
	c7.3,3.2,12.5,10.6,18.3,10.6c14.9,0,32.2-22.4,48.4-22.4c0.2,0,0.5,0,0.7,0c-3.8,4.7-9,5.6-9,10.4c0,3.3,2.9,5.3,4.8,9.7
	c1.2,2.8,1.5,4.7,2.5,8.6c0.9,3.5,3.3,12.3,39.1,12.3c35.7,0,38.1-8.8,39.1-12.3c1-3.9,1.3-5.9,2.5-8.6c2-4.4,4.8-6.4,4.8-9.7
	c0-4.7-5.3-5.7-9-10.4c0.2,0,0.5,0,0.7,0C200.1,220.2,217.4,242.6,232.3,242.6 M234.8,231.9l-1.5,2.6c-0.8-0.4-2.3-1-3.4-1.6
	c-0.9,1.5-3.7,5.9-4.2,6.7l-2.9-1.3c0-0.1,3.3-5.1,4.3-6.9c-0.9-0.5-2.2-1.3-2.9-1.7l1.5-2.6C228.1,228.6,232.8,231,234.8,231.9
	 M224.7,226.3l-5.9,9.7l-2.8-1.7l5.9-9.6L224.7,226.3z M210.9,219.7c1.5-0.4,3.1-0.1,4.5,0.7c1.5,0.8,2.4,2,2.8,3.5
	c0.1,0.5,0.2,1,0.2,1.5c0,1-0.3,2-0.9,2.9c-0.9,1.4-2.1,2.3-3.7,2.6c-1.5,0.3-3.1,0.1-4.6-0.8c-1.4-0.8-2.4-2-2.8-3.5
	c-0.4-1.5-0.2-2.9,0.6-4.3C208.2,220.9,209.4,220.1,210.9,219.7 M205.8,214.2L205.8,214.2c0.5,0.3,1.2,0.9,1.7,1.7
	c0.6,1,0.5,2.1-0.1,3.2c-0.4,0.7-1,1.2-1.7,1.4c-0.3,0.1-0.6,0.1-0.9,0.1c0.1,0.5,0.2,1,0.2,1.6c0.1,2.4,0.5,4.9,0.5,5
	c-0.5-0.3-3.2-2.1-3.4-2.2l-0.3-3.3c-0.1-1.2-0.2-1.7-0.5-1.9c-0.3,0.5-2.1,3.5-2.1,3.5l-2.8-1.5l5.6-9.8
	C202.9,212.5,205,213.7,205.8,214.2 M189.8,207.6l4.3,1.1c2.7,0.7,5.2,3.2,3.8,6.9c-1.7,4.2-4.9,4.5-8.1,3.7l-3.8-0.9L189.8,207.6z
	 M69.1,238l-3.3,1.8l-5.7-9.5l3.5-1.9c1.2-0.7,2.3-1,3.2-1c1,0,1.9,0.2,2.8,0.7c0.9,0.5,1.7,1.2,2.1,2.1
	C73.1,232.6,73.2,235.8,69.1,238 M77.7,232.9l-5.9-9.5l2.6-1.7l5.9,9.5L77.7,232.9z M83.9,228.8l-5.9-9.5l6.2-4.1l1.6,2.5l-3.6,2.4
	c0.2,0.3,0.4,0.6,0.5,0.9l3.4-2.3l1.6,2.5l-3.4,2.3c0.2,0.3,0.4,0.7,0.6,1l3.7-2.5l1.6,2.5L83.9,228.8z M96.7,221.5
	c-3.3,1.4-5.4,0-6.5-2.4l-2.7-6l2.9-1.5c0,0,2.7,6.1,2.7,6.1c0.6,1.3,1.2,1.7,2.4,1.1c1.4-0.7,1.4-1.3,0.9-2.4l-2.8-6.3l3.2-1.1
	l2.6,6.2C100.4,217.6,100.2,220,96.7,221.5 M108.1,238.5c-4.3-2.2-6.8-4.9-6.8-7.6c0-4.4,6.9-6.9,9.6-10.4c4.1,0.7,9.5,2.6,9.5,6.2
	C120.5,231,106.9,232.8,108.1,238.5 M115.2,254.9l-0.6-11.5c1.8,0.5,5.6,1.5,7.6,1.9l0.1,3.1c-1-0.2-2.9-0.6-4.3-1
	c0,0.1,0,0.7,0.1,1c0.4,0.1,3.9,1,3.9,1l0.1,3.2c0,0-3.2-0.8-3.9-1c0,0.1,0,0.9,0.1,1.2c1.1,0.4,2.8,0.8,4.2,1.1l0.2,3.2
	C119.8,256.6,117,255.7,115.2,254.9 M133,250c-0.9-0.1-2.5-0.3-3.3-0.4v8.7l-3.2-0.5v-8.7c-0.9-0.1-2.3-0.4-3.3-0.5v-3.1
	c2.8,0.5,6.7,1,9.9,1.4V250z M151.2,259l-3.2,0.1v-6.2c-0.8,0.9-2.7,3.2-2.7,3.2s-1.9-2.3-2.7-3.2v6.2l-3.2-0.1v-11.6l2.7,0.1
	c0,0,2.8,3.4,3.3,3.9c0.5-0.6,3.2-3.9,3.2-3.9l2.8-0.1V259z M162.9,257c-1.2,1.1-2.7,1.7-4.5,1.8c-1.8,0-3.2-0.5-4.4-1.6
	c-1.2-1.1-1.8-2.5-1.8-4.2c0-1.7,0.6-3.2,1.8-4.3c1.2-1.2,2.7-1.8,4.5-1.8c1.8-0.1,3.3,0.5,4.5,1.6c1.2,1.1,1.8,2.5,1.8,4.2
	C164.7,254.3,164.1,255.8,162.9,257 M176.4,255l-2.4,0.9c0,0-3.9-4-4.8-4.9c-0.1,1.2-0.4,6.2-0.4,6.2l-3.2,0.6l0.7-11.9l2.3-0.4
	l4.9,4.9c0.1-1.2,0.4-6.1,0.4-6.1l3.2-0.9L176.4,255z M190.4,230.9c0,2.7-2.4,5.3-6.8,7.6c1.2-5.7-12.4-7.5-12.4-11.7
	c0-3.6,5.4-5.5,9.5-6.2C183.4,224,190.4,226.5,190.4,230.9"/>
</svg>
