<svg
  xmlns="http://www.w3.org/2000/svg"
  width="164.46mm"
  height="46.41mm"
  viewBox="0 0 466.19 131.55"
>
  <title>MHRA-logo</title>
  <path
    d="M139.25,74.27a6.77,6.77,0,1,1-6.77-6.77A6.77,6.77,0,0,1,139.25,74.27Z"
    transform="translate(-66.24 -67.5)"
    fill="#031f73"
  />
  <path
    d="M166.39,80.68a6.77,6.77,0,1,1-6.77-6.77A6.77,6.77,0,0,1,166.39,80.68Z"
    transform="translate(-66.24 -67.5)"
    fill="#e98300"
  />
  <path
    d="M188.22,99.66a6.77,6.77,0,1,1-6.77-6.77A6.78,6.78,0,0,1,188.22,99.66Z"
    transform="translate(-66.24 -67.5)"
    fill="#031f73"
  />
  <path
    d="M198.59,126.66a6.77,6.77,0,1,1-6.77-6.77A6.77,6.77,0,0,1,198.59,126.66Z"
    transform="translate(-66.24 -67.5)"
    fill="#031f73"
  />
  <path
    d="M195.45,154.4a6.77,6.77,0,1,1-6.77-6.77A6.77,6.77,0,0,1,195.45,154.4Z"
    transform="translate(-66.24 -67.5)"
    fill="#031f73"
  />
  <path
    d="M179.26,178.38a6.77,6.77,0,1,1-6.77-6.77A6.77,6.77,0,0,1,179.26,178.38Z"
    transform="translate(-66.24 -67.5)"
    fill="#031f73"
  />
  <path
    d="M153.72,192a6.77,6.77,0,1,1-6.77-6.77A6.77,6.77,0,0,1,153.72,192Z"
    transform="translate(-66.24 -67.5)"
    fill="#c60c30"
  />
  <path
    d="M125.78,192.27A6.77,6.77,0,1,1,119,185.5,6.77,6.77,0,0,1,125.78,192.27Z"
    transform="translate(-66.24 -67.5)"
    fill="#031f73"
  />
  <path
    d="M100,179.09a6.77,6.77,0,1,1-6.77-6.77A6.78,6.78,0,0,1,100,179.09Z"
    transform="translate(-66.24 -67.5)"
    fill="#031f73"
  />
  <path
    d="M83.41,155.38a6.77,6.77,0,1,1-6.77-6.77A6.77,6.77,0,0,1,83.41,155.38Z"
    transform="translate(-66.24 -67.5)"
    fill="#031f73"
  />
  <path
    d="M79.78,127.7A6.77,6.77,0,1,1,73,120.93,6.77,6.77,0,0,1,79.78,127.7Z"
    transform="translate(-66.24 -67.5)"
    fill="#031f73"
  />
  <path
    d="M89.66,100.56a6.77,6.77,0,1,1-6.77-6.77A6.77,6.77,0,0,1,89.66,100.56Z"
    transform="translate(-66.24 -67.5)"
    fill="#031f73"
  />
  <path
    d="M111.17,81.18a6.77,6.77,0,1,1-6.77-6.77A6.78,6.78,0,0,1,111.17,81.18Z"
    transform="translate(-66.24 -67.5)"
    fill="#031f73"
  />
  <path
    d="M138.55,94.07A6.07,6.07,0,1,1,132.48,88,6.06,6.06,0,0,1,138.55,94.07Z"
    transform="translate(-66.24 -67.5)"
    fill="#031f73"
  />
  <path
    d="M119.83,98.73a6.07,6.07,0,1,1-6.07-6.07A6.07,6.07,0,0,1,119.83,98.73Z"
    transform="translate(-66.24 -67.5)"
    fill="#031f73"
  />
  <path
    d="M156.65,98.42a6.07,6.07,0,1,1-6.07-6.07A6.07,6.07,0,0,1,156.65,98.42Z"
    transform="translate(-66.24 -67.5)"
    fill="#031f73"
  />
  <path
    d="M171.21,111.08a6.07,6.07,0,1,1-6.07-6.07A6.06,6.06,0,0,1,171.21,111.08Z"
    transform="translate(-66.24 -67.5)"
    fill="#031f73"
  />
  <path
    d="M178.15,129.08a6.07,6.07,0,1,1-6.07-6.07A6.07,6.07,0,0,1,178.15,129.08Z"
    transform="translate(-66.24 -67.5)"
    fill="#7ab800"
  />
  <path
    d="M140,134a7.53,7.53,0,1,1-7.53-7.52A7.53,7.53,0,0,1,140,134Z"
    transform="translate(-66.24 -67.5)"
    fill="#031f73"
  />
  <path
    d="M176.05,147.59a6.07,6.07,0,1,1-6.07-6.07A6.07,6.07,0,0,1,176.05,147.59Z"
    transform="translate(-66.24 -67.5)"
    fill="#031f73"
  />
  <path
    d="M165.25,163.6a6.07,6.07,0,1,1-6.07-6.07A6.06,6.06,0,0,1,165.25,163.6Z"
    transform="translate(-66.24 -67.5)"
    fill="#031f73"
  />
  <path
    d="M148.21,172.67a6.07,6.07,0,1,1-6.07-6.07A6.07,6.07,0,0,1,148.21,172.67Z"
    transform="translate(-66.24 -67.5)"
    fill="#031f73"
  />
  <path
    d="M129.69,172.86a6.07,6.07,0,1,1-6.07-6.07A6.07,6.07,0,0,1,129.69,172.86Z"
    transform="translate(-66.24 -67.5)"
    fill="#031f73"
  />
  <path
    d="M112.37,164.06A6.07,6.07,0,1,1,106.3,158,6.07,6.07,0,0,1,112.37,164.06Z"
    transform="translate(-66.24 -67.5)"
    fill="#fcd900"
  />
  <path
    d="M101.29,148.25a6.07,6.07,0,1,1-6.07-6.07A6.07,6.07,0,0,1,101.29,148.25Z"
    transform="translate(-66.24 -67.5)"
    fill="#031f73"
  />
  <path
    d="M98.86,129.77a6.07,6.07,0,1,1-6.07-6.07A6.07,6.07,0,0,1,98.86,129.77Z"
    transform="translate(-66.24 -67.5)"
    fill="#031f73"
  />
  <path
    d="M105.48,111.64a6.07,6.07,0,1,1-6.07-6.07A6.06,6.06,0,0,1,105.48,111.64Z"
    transform="translate(-66.24 -67.5)"
    fill="#93509e"
  />
  <path
    d="M137.81,113.33a5.33,5.33,0,1,1-5.33-5.33A5.33,5.33,0,0,1,137.81,113.33Z"
    transform="translate(-66.24 -67.5)"
    fill="#031f73"
  />
  <path
    d="M153.82,121a5.33,5.33,0,1,1-5.33-5.33A5.33,5.33,0,0,1,153.82,121Z"
    transform="translate(-66.24 -67.5)"
    fill="#031f73"
  />
  <path
    d="M157.92,138.27a5.33,5.33,0,1,1-5.33-5.33A5.33,5.33,0,0,1,157.92,138.27Z"
    transform="translate(-66.24 -67.5)"
    fill="#031f73"
  />
  <path
    d="M146.85,152.58a5.33,5.33,0,1,1-5.32-5.33A5.32,5.32,0,0,1,146.85,152.58Z"
    transform="translate(-66.24 -67.5)"
    fill="#031f73"
  />
  <path
    d="M129.11,152.66a5.33,5.33,0,1,1-5.33-5.33A5.33,5.33,0,0,1,129.11,152.66Z"
    transform="translate(-66.24 -67.5)"
    fill="#031f73"
  />
  <path
    d="M117.76,138.62a5.33,5.33,0,1,1-5.32-5.33A5.33,5.33,0,0,1,117.76,138.62Z"
    transform="translate(-66.24 -67.5)"
    fill="#031f73"
  />
  <path
    d="M121.57,121.31a5.33,5.33,0,1,1-5.32-5.33A5.32,5.32,0,0,1,121.57,121.31Z"
    transform="translate(-66.24 -67.5)"
    fill="#031f73"
  />
  <path
    d="M507,145H480l7-20c2.25-6.51,5.38-16.53,6.38-20.29,1,3.76,4.51,13.9,6.64,20.16Zm25.43,32.56L500.49,89.87h-13.9L455,177.54h13.65L476,156.75H511l7.39,20.79Zm-93.56-61.12c0,9.52-6.14,14-14.91,14H398.41V102.27H424c8.89,0,14.91,5,14.91,14.15m13.27-.37c0-18-12.9-26.18-28.18-26.18H385.51v87.67h12.9V142.85H418.2l17.41,34.69h15.15l-17.91-35.82c11.9-3,19.29-11.65,19.29-25.67m-74.39,61.49V89.87H364.6v35.45H324.27V89.87H311.12v87.67h13.15V138.47H364.6v39.07Zm-74.39,0V89.87h-14l-19.28,46.72c-2.13,5.13-4.64,11.39-5.89,15-1.13-3.64-3.88-10-6-15L238.49,89.87H225v87.67h12.4V131.2c0-5.26-.13-12.9-.25-15.4,1,2.5,3.5,8.76,5.63,13.77l21,49.35,21.29-49.35c2.13-5,4.64-11.27,5.64-13.77-.12,2.5-.25,10.14-.25,15.4v46.34Z"
    transform="translate(-66.24 -67.5)"
    fill="#031f73"
  />
</svg>
