<?xml version="1.0" encoding="utf-8"?>
<!-- Generator: Adobe Illustrator 23.1.1, SVG Export Plug-In . SVG Version: 6.00 Build 0)  -->
<svg
  version="1.1"
  id="Layer_1"
  xmlns="http://www.w3.org/2000/svg"
  xmlns:xlink="http://www.w3.org/1999/xlink"
  x="0px"
  y="0px"
  viewBox="0 0 140 140"
  style="enable-background:new 0 0 140 140;"
  xml:space="preserve"
>
  <path
    d="M76.8,11c0,3.7-3,6.8-6.8,6.8c-3.7,0-6.8-3-6.8-6.8s3-6.8,6.8-6.8C73.8,4.2,76.8,7.3,76.8,11L76.8,11z"
  />
  <path
    d="M104,17.4c0,3.7-3,6.8-6.8,6.8c-3.7,0-6.8-3-6.8-6.8c0-3.7,3-6.8,6.8-6.8C100.9,10.6,104,13.7,104,17.4L104,17.4z"
  />
  <path
    d="M125.8,36.4c0,3.7-3,6.8-6.8,6.8c-3.7,0-6.8-3-6.8-6.8c0-3.7,3-6.8,6.8-6.8C122.8,29.6,125.8,32.7,125.8,36.4z"
  />
  <path
    d="M136.2,63.4c0,3.7-3,6.8-6.8,6.8c-3.7,0-6.8-3-6.8-6.8c0-3.7,3-6.8,6.8-6.8S136.2,59.7,136.2,63.4L136.2,63.4z"
  />
  <path
    d="M133,91.1c0,3.7-3,6.8-6.8,6.8c-3.7,0-6.8-3-6.8-6.8c0-3.7,3-6.8,6.8-6.8S133,87.4,133,91.1C133,91.1,133,91.1,133,91.1z"
  />
  <path
    d="M116.8,115.1c0,3.7-3,6.8-6.8,6.8c-3.7,0-6.8-3-6.8-6.8c0-3.7,3-6.8,6.8-6.8C113.8,108.3,116.8,111.4,116.8,115.1
	C116.8,115.1,116.8,115.1,116.8,115.1z"
  />
  <path
    d="M91.3,128.7c0,3.7-3,6.8-6.8,6.8c-3.7,0-6.8-3-6.8-6.8c0-3.7,3-6.8,6.8-6.8C88.3,122,91.3,125,91.3,128.7
	C91.3,128.7,91.3,128.7,91.3,128.7z"
  />
  <path
    d="M63.4,129c0,3.7-3,6.8-6.8,6.8c-3.7,0-6.8-3-6.8-6.8c0-3.7,3-6.8,6.8-6.8C60.3,122.2,63.4,125.3,63.4,129
	C63.4,129,63.4,129,63.4,129z"
  />
  <path
    d="M37.6,115.8c0,3.7-3,6.8-6.8,6.8c-3.7,0-6.8-3-6.8-6.8c0-3.7,3-6.8,6.8-6.8C34.6,109.1,37.6,112.1,37.6,115.8z"
  />
  <path
    d="M21,92.1c0,3.7-3,6.8-6.8,6.8c-3.7,0-6.8-3-6.8-6.8s3-6.8,6.8-6.8S21,88.4,21,92.1L21,92.1z"
  />
  <path
    d="M17.4,64.4c0,3.7-3,6.8-6.8,6.8c-3.7,0-6.8-3-6.8-6.8c0-3.7,3-6.8,6.8-6.8C14.3,57.7,17.4,60.7,17.4,64.4
	C17.4,64.4,17.4,64.4,17.4,64.4z"
  />
  <path
    d="M27.2,37.3c0,3.7-3,6.8-6.8,6.8s-6.8-3-6.8-6.8c0-3.7,3-6.8,6.8-6.8h0C24.2,30.5,27.2,33.6,27.2,37.3z"
  />
  <path
    d="M48.8,17.9c0,3.7-3,6.8-6.8,6.8c-3.7,0-6.8-3-6.8-6.8s3-6.8,6.8-6.8h0C45.7,11.1,48.7,14.2,48.8,17.9z"
  />
  <path
    d="M76.1,30.8c0,3.4-2.7,6.1-6.1,6.1c-3.4,0-6.1-2.7-6.1-6.1c0-3.4,2.7-6.1,6.1-6.1C73.4,24.7,76.1,27.4,76.1,30.8
	C76.1,30.8,76.1,30.8,76.1,30.8z"
  />
  <path
    d="M57.4,35.5c0,3.4-2.7,6.1-6.1,6.1s-6.1-2.7-6.1-6.1s2.7-6.1,6.1-6.1l0,0C54.7,29.4,57.4,32.1,57.4,35.5z"
  />
  <path
    d="M94.2,35.2c0,3.4-2.7,6.1-6.1,6.1c-3.4,0-6.1-2.7-6.1-6.1c0-3.4,2.7-6.1,6.1-6.1S94.2,31.8,94.2,35.2L94.2,35.2z"
  />
  <path
    d="M108.8,47.8c0,3.4-2.7,6.1-6.1,6.1c-3.4,0-6.1-2.7-6.1-6.1c0-3.4,2.7-6.1,6.1-6.1C106.1,41.7,108.8,44.4,108.8,47.8
	C108.8,47.8,108.8,47.8,108.8,47.8z"
  />
  <path
    d="M115.7,65.8c0,3.4-2.7,6.1-6.1,6.1c-3.4,0-6.1-2.7-6.1-6.1c0-3.4,2.7-6.1,6.1-6.1S115.7,62.5,115.7,65.8L115.7,65.8z"
  />
  <path
    d="M77.6,70.7c0,4.2-3.4,7.5-7.5,7.5c-4.2,0-7.5-3.4-7.5-7.5c0-4.2,3.4-7.5,7.5-7.5c0,0,0,0,0,0C74.2,63.2,77.6,66.6,77.6,70.7
	z"
  />
  <path
    d="M113.6,84.3c0,3.4-2.7,6.1-6.1,6.1c-3.4,0-6.1-2.7-6.1-6.1c0-3.4,2.7-6.1,6.1-6.1C110.9,78.2,113.6,81,113.6,84.3
	L113.6,84.3z"
  />
  <path
    d="M102.8,100.3c0,3.4-2.7,6.1-6.1,6.1s-6.1-2.7-6.1-6.1c0-3.4,2.7-6.1,6.1-6.1C100.1,94.3,102.8,97,102.8,100.3
	C102.8,100.3,102.8,100.3,102.8,100.3z"
  />
  <path
    d="M85.8,109.4c0,3.4-2.7,6.1-6.1,6.1s-6.1-2.7-6.1-6.1c0-3.4,2.7-6.1,6.1-6.1C83.1,103.3,85.8,106,85.8,109.4L85.8,109.4z"
  />
  <path
    d="M67.3,109.6c0,3.4-2.7,6.1-6.1,6.1c-3.4,0-6.1-2.7-6.1-6.1c0-3.4,2.7-6.1,6.1-6.1C64.6,103.5,67.3,106.2,67.3,109.6
	L67.3,109.6z"
  />
  <path
    d="M50,100.8c0,3.4-2.7,6.1-6.1,6.1c-3.4,0-6.1-2.7-6.1-6.1c0-3.4,2.7-6.1,6.1-6.1c0,0,0,0,0,0C47.2,94.7,49.9,97.4,50,100.8z"
  />
  <path
    d="M38.9,85c0,3.4-2.7,6.1-6.1,6.1s-6.1-2.7-6.1-6.1c0-3.4,2.7-6.1,6.1-6.1C36.2,78.9,38.9,81.6,38.9,85L38.9,85z"
  />
  <path
    d="M36.4,66.5c0,3.4-2.7,6.1-6.1,6.1s-6.1-2.7-6.1-6.1s2.7-6.1,6.1-6.1l0,0C33.7,60.4,36.4,63.1,36.4,66.5z"
  />
  <path
    d="M43.1,48.4c0,3.4-2.7,6.1-6.1,6.1s-6.1-2.7-6.1-6.1s2.7-6.1,6.1-6.1l0,0C40.3,42.3,43.1,45,43.1,48.4
	C43.1,48.4,43.1,48.4,43.1,48.4z"
  />
  <path
    d="M75.4,50.1c0,2.9-2.4,5.3-5.3,5.3c-2.9,0-5.3-2.4-5.3-5.3c0-2.9,2.4-5.3,5.3-5.3C73,44.7,75.4,47.1,75.4,50.1L75.4,50.1z"
  />
  <path
    d="M91.4,57.7c0,2.9-2.4,5.3-5.3,5.3c-2.9,0-5.3-2.4-5.3-5.3c0-2.9,2.4-5.3,5.3-5.3C89,52.4,91.4,54.8,91.4,57.7L91.4,57.7z"
  />
  <path
    d="M95.5,75c0,2.9-2.4,5.3-5.3,5.3c-2.9,0-5.3-2.4-5.3-5.3c0-2.9,2.4-5.3,5.3-5.3C93.1,69.7,95.5,72.1,95.5,75L95.5,75z"
  />
  <path
    d="M84.4,89.3c0,2.9-2.4,5.3-5.3,5.3c-2.9,0-5.3-2.4-5.3-5.3c0-2.9,2.4-5.3,5.3-5.3c0,0,0,0,0,0C82.1,84,84.4,86.4,84.4,89.3
	C84.4,89.3,84.4,89.3,84.4,89.3z"
  />
  <path
    d="M66.7,89.4c0,2.9-2.4,5.3-5.3,5.3S56,92.3,56,89.4c0-2.9,2.4-5.3,5.3-5.3S66.7,86.4,66.7,89.4L66.7,89.4z"
  />
  <path
    d="M55.3,75.3c0,2.9-2.4,5.3-5.3,5.3c-2.9,0-5.3-2.4-5.3-5.3c0-2.9,2.4-5.3,5.3-5.3c0,0,0,0,0,0C53,70,55.3,72.4,55.3,75.3z"
  />
  <path
    d="M59.2,58c0,2.9-2.4,5.3-5.3,5.3c-2.9,0-5.3-2.4-5.3-5.3c0-2.9,2.4-5.3,5.3-5.3c0,0,0,0,0,0C56.8,52.7,59.2,55.1,59.2,58
	C59.2,58,59.2,58,59.2,58z"
  />
</svg>
